<svg width="245" height="220" viewBox="0 0 245 220" fill="none" xmlns="http://www.w3.org/2000/svg">
<g filter="url(#filter0_dd_2167_1045)">
<g clip-path="url(#clip0_2167_1045)">
<rect x="5" y="36" width="235" height="176" rx="3" fill="white"/>
<rect width="360" height="32" transform="translate(5 44)" fill="#EBECF0"/>
<path d="M25.8398 55.9287L22.5449 65H21.1982L24.9922 55.0469H25.8604L25.8398 55.9287ZM28.6016 65L25.2998 55.9287L25.2793 55.0469H26.1475L29.9551 65H28.6016ZM28.4307 61.3154V62.3955H22.8389V61.3154H28.4307ZM34.0566 64.0977C34.3574 64.0977 34.6354 64.0361 34.8906 63.9131C35.1458 63.79 35.3555 63.6214 35.5195 63.4072C35.6836 63.1885 35.777 62.9401 35.7998 62.6621H37.0029C36.9801 63.0996 36.832 63.5075 36.5586 63.8857C36.2897 64.2594 35.9365 64.5625 35.499 64.7949C35.0615 65.0228 34.5807 65.1367 34.0566 65.1367C33.5007 65.1367 33.0153 65.0387 32.6006 64.8428C32.1904 64.6468 31.8486 64.3779 31.5752 64.0361C31.3063 63.6943 31.1035 63.3024 30.9668 62.8604C30.8346 62.4137 30.7686 61.9421 30.7686 61.4453V61.1582C30.7686 60.6615 30.8346 60.1921 30.9668 59.75C31.1035 59.3034 31.3063 58.9092 31.5752 58.5674C31.8486 58.2256 32.1904 57.9567 32.6006 57.7607C33.0153 57.5648 33.5007 57.4668 34.0566 57.4668C34.6354 57.4668 35.1413 57.5853 35.5742 57.8223C36.0072 58.0547 36.3467 58.3737 36.5928 58.7793C36.8434 59.1803 36.9801 59.6361 37.0029 60.1465H35.7998C35.777 59.8411 35.6904 59.5654 35.54 59.3193C35.3942 59.0732 35.1937 58.8773 34.9385 58.7314C34.6878 58.5811 34.3939 58.5059 34.0566 58.5059C33.6693 58.5059 33.3434 58.5833 33.0791 58.7383C32.8193 58.8887 32.612 59.0938 32.457 59.3535C32.3066 59.6087 32.1973 59.8936 32.1289 60.208C32.0651 60.5179 32.0332 60.8346 32.0332 61.1582V61.4453C32.0332 61.7689 32.0651 62.0879 32.1289 62.4023C32.1927 62.7168 32.2998 63.0016 32.4502 63.2568C32.6051 63.512 32.8125 63.7171 33.0723 63.8721C33.3366 64.0225 33.6647 64.0977 34.0566 64.0977ZM41.5215 57.6035V58.5742H37.5225V57.6035H41.5215ZM38.876 55.8057H40.1406V63.168C40.1406 63.4186 40.1794 63.6077 40.2568 63.7354C40.3343 63.863 40.4346 63.9473 40.5576 63.9883C40.6807 64.0293 40.8128 64.0498 40.9541 64.0498C41.0589 64.0498 41.1683 64.0407 41.2822 64.0225C41.4007 63.9997 41.4896 63.9814 41.5488 63.9678L41.5557 65C41.4554 65.0319 41.3232 65.0615 41.1592 65.0889C40.9997 65.1208 40.806 65.1367 40.5781 65.1367C40.2682 65.1367 39.9834 65.0752 39.7236 64.9521C39.4639 64.8291 39.2565 64.624 39.1016 64.3369C38.9512 64.0452 38.876 63.6533 38.876 63.1611V55.8057ZM44.3789 57.6035V65H43.1074V57.6035H44.3789ZM43.0117 55.6416C43.0117 55.4365 43.0732 55.2633 43.1963 55.1221C43.3239 54.9808 43.5107 54.9102 43.7568 54.9102C43.9984 54.9102 44.1829 54.9808 44.3105 55.1221C44.4427 55.2633 44.5088 55.4365 44.5088 55.6416C44.5088 55.8376 44.4427 56.0062 44.3105 56.1475C44.1829 56.2842 43.9984 56.3525 43.7568 56.3525C43.5107 56.3525 43.3239 56.2842 43.1963 56.1475C43.0732 56.0062 43.0117 55.8376 43.0117 55.6416ZM48.6582 63.8584L50.6816 57.6035H51.9736L49.3145 65H48.4668L48.6582 63.8584ZM46.9697 57.6035L49.0547 63.8926L49.1982 65H48.3506L45.6709 57.6035H46.9697ZM54.5645 57.6035V65H53.293V57.6035H54.5645ZM53.1973 55.6416C53.1973 55.4365 53.2588 55.2633 53.3818 55.1221C53.5094 54.9808 53.6963 54.9102 53.9424 54.9102C54.1839 54.9102 54.3685 54.9808 54.4961 55.1221C54.6283 55.2633 54.6943 55.4365 54.6943 55.6416C54.6943 55.8376 54.6283 56.0062 54.4961 56.1475C54.3685 56.2842 54.1839 56.3525 53.9424 56.3525C53.6963 56.3525 53.5094 56.2842 53.3818 56.1475C53.2588 56.0062 53.1973 55.8376 53.1973 55.6416ZM59.6914 57.6035V58.5742H55.6924V57.6035H59.6914ZM57.0459 55.8057H58.3105V63.168C58.3105 63.4186 58.3493 63.6077 58.4268 63.7354C58.5042 63.863 58.6045 63.9473 58.7275 63.9883C58.8506 64.0293 58.9827 64.0498 59.124 64.0498C59.2288 64.0498 59.3382 64.0407 59.4521 64.0225C59.5706 63.9997 59.6595 63.9814 59.7188 63.9678L59.7256 65C59.6253 65.0319 59.4932 65.0615 59.3291 65.0889C59.1696 65.1208 58.9759 65.1367 58.748 65.1367C58.4382 65.1367 58.1533 65.0752 57.8936 64.9521C57.6338 64.8291 57.4264 64.624 57.2715 64.3369C57.1211 64.0452 57.0459 63.6533 57.0459 63.1611V55.8057ZM63.2529 64.2344L65.3105 57.6035H66.6641L63.6973 66.1416C63.6289 66.3239 63.5378 66.5199 63.4238 66.7295C63.3145 66.9437 63.1732 67.1465 63 67.3379C62.8268 67.5293 62.6172 67.6842 62.3711 67.8027C62.1296 67.9258 61.8402 67.9873 61.5029 67.9873C61.4027 67.9873 61.2751 67.9736 61.1201 67.9463C60.9652 67.9189 60.8558 67.8962 60.792 67.8779L60.7852 66.8525C60.8216 66.8571 60.8786 66.8617 60.9561 66.8662C61.0381 66.8753 61.0951 66.8799 61.127 66.8799C61.4141 66.8799 61.6579 66.8411 61.8584 66.7637C62.0589 66.6908 62.2275 66.5654 62.3643 66.3877C62.5055 66.2145 62.6263 65.9753 62.7266 65.6699L63.2529 64.2344ZM61.7422 57.6035L63.6631 63.3457L63.9912 64.6787L63.082 65.1436L60.3613 57.6035H61.7422Z" fill="#172B4D"/>
<rect width="360" height="32" transform="translate(5 76)" fill="white"/>
<path d="M28.4785 95.9268V97H23.208V95.9268H28.4785ZM23.4746 87.0469V97H22.1553V87.0469H23.4746ZM27.7812 91.3262V92.3994H23.208V91.3262H27.7812ZM28.4102 87.0469V88.127H23.208V87.0469H28.4102ZM31.1855 91.0254V99.8438H29.9141V89.6035H31.0762L31.1855 91.0254ZM36.1689 93.2402V93.3838C36.1689 93.9215 36.1051 94.4206 35.9775 94.8809C35.8499 95.3366 35.6631 95.7331 35.417 96.0703C35.1755 96.4076 34.877 96.6696 34.5215 96.8564C34.166 97.0433 33.7581 97.1367 33.2979 97.1367C32.8285 97.1367 32.4137 97.0592 32.0537 96.9043C31.6937 96.7493 31.3883 96.5238 31.1377 96.2275C30.887 95.9313 30.6865 95.5758 30.5361 95.1611C30.3903 94.7464 30.29 94.2793 30.2354 93.7598V92.9941C30.29 92.4473 30.3926 91.9574 30.543 91.5244C30.6934 91.0915 30.8916 90.7223 31.1377 90.417C31.3883 90.1071 31.6914 89.8724 32.0469 89.7129C32.4023 89.5488 32.8125 89.4668 33.2773 89.4668C33.7422 89.4668 34.1546 89.5579 34.5146 89.7402C34.8747 89.918 35.1777 90.1732 35.4238 90.5059C35.6699 90.8385 35.8545 91.2373 35.9775 91.7021C36.1051 92.1624 36.1689 92.6751 36.1689 93.2402ZM34.8975 93.3838V93.2402C34.8975 92.8711 34.8587 92.5247 34.7812 92.2012C34.7038 91.873 34.583 91.5859 34.4189 91.3398C34.2594 91.0892 34.0544 90.8932 33.8037 90.752C33.5531 90.6061 33.2546 90.5332 32.9082 90.5332C32.5892 90.5332 32.3112 90.5879 32.0742 90.6973C31.8418 90.8066 31.6436 90.9548 31.4795 91.1416C31.3154 91.3239 31.181 91.5335 31.0762 91.7705C30.9759 92.0029 30.9007 92.2445 30.8506 92.4951V94.2656C30.9417 94.5846 31.0693 94.8854 31.2334 95.168C31.3975 95.446 31.6162 95.6715 31.8896 95.8447C32.1631 96.0133 32.5072 96.0977 32.9219 96.0977C33.2637 96.0977 33.5576 96.027 33.8037 95.8857C34.0544 95.7399 34.2594 95.5417 34.4189 95.291C34.583 95.0404 34.7038 94.7533 34.7812 94.4297C34.8587 94.1016 34.8975 93.7529 34.8975 93.3838ZM39.1562 89.6035V97H37.8848V89.6035H39.1562ZM37.7891 87.6416C37.7891 87.4365 37.8506 87.2633 37.9736 87.1221C38.1012 86.9808 38.2881 86.9102 38.5342 86.9102C38.7757 86.9102 38.9603 86.9808 39.0879 87.1221C39.2201 87.2633 39.2861 87.4365 39.2861 87.6416C39.2861 87.8376 39.2201 88.0062 39.0879 88.1475C38.9603 88.2842 38.7757 88.3525 38.5342 88.3525C38.2881 88.3525 38.1012 88.2842 37.9736 88.1475C37.8506 88.0062 37.7891 87.8376 37.7891 87.6416ZM44.1465 96.0977C44.4473 96.0977 44.7253 96.0361 44.9805 95.9131C45.2357 95.79 45.4453 95.6214 45.6094 95.4072C45.7734 95.1885 45.8669 94.9401 45.8896 94.6621H47.0928C47.07 95.0996 46.9219 95.5075 46.6484 95.8857C46.3796 96.2594 46.0264 96.5625 45.5889 96.7949C45.1514 97.0228 44.6706 97.1367 44.1465 97.1367C43.5905 97.1367 43.1051 97.0387 42.6904 96.8428C42.2803 96.6468 41.9385 96.3779 41.665 96.0361C41.3962 95.6943 41.1934 95.3024 41.0566 94.8604C40.9245 94.4137 40.8584 93.9421 40.8584 93.4453V93.1582C40.8584 92.6615 40.9245 92.1921 41.0566 91.75C41.1934 91.3034 41.3962 90.9092 41.665 90.5674C41.9385 90.2256 42.2803 89.9567 42.6904 89.7607C43.1051 89.5648 43.5905 89.4668 44.1465 89.4668C44.7253 89.4668 45.2311 89.5853 45.6641 89.8223C46.097 90.0547 46.4365 90.3737 46.6826 90.7793C46.9333 91.1803 47.07 91.6361 47.0928 92.1465H45.8896C45.8669 91.8411 45.7803 91.5654 45.6299 91.3193C45.484 91.0732 45.2835 90.8773 45.0283 90.7314C44.7777 90.5811 44.4837 90.5059 44.1465 90.5059C43.7591 90.5059 43.4333 90.5833 43.1689 90.7383C42.9092 90.8887 42.7018 91.0938 42.5469 91.3535C42.3965 91.6087 42.2871 91.8936 42.2188 92.208C42.1549 92.5179 42.123 92.8346 42.123 93.1582V93.4453C42.123 93.7689 42.1549 94.0879 42.2188 94.4023C42.2826 94.7168 42.3896 95.0016 42.54 95.2568C42.695 95.512 42.9023 95.7171 43.1621 95.8721C43.4264 96.0225 43.7546 96.0977 44.1465 96.0977Z" fill="#172B4D"/>
<rect width="360" height="32" transform="translate(5 108)" fill="white"/>
<path d="M22.1553 119.047H25.4502C26.1976 119.047 26.8288 119.161 27.3438 119.389C27.8633 119.617 28.2575 119.954 28.5264 120.4C28.7998 120.842 28.9365 121.387 28.9365 122.034C28.9365 122.49 28.8431 122.907 28.6562 123.285C28.474 123.659 28.2096 123.978 27.8633 124.242C27.5215 124.502 27.1113 124.696 26.6328 124.823L26.2637 124.967H23.167L23.1533 123.894H25.4912C25.9652 123.894 26.3594 123.812 26.6738 123.647C26.9883 123.479 27.2253 123.253 27.3848 122.971C27.5443 122.688 27.624 122.376 27.624 122.034C27.624 121.651 27.5488 121.316 27.3984 121.029C27.248 120.742 27.0111 120.521 26.6875 120.366C26.3685 120.207 25.9561 120.127 25.4502 120.127H23.4746V129H22.1553V119.047ZM27.9727 129L25.5527 124.488L26.9268 124.481L29.3809 128.918V129H27.9727ZM33.6602 129.137C33.1452 129.137 32.6781 129.05 32.2588 128.877C31.8441 128.699 31.4863 128.451 31.1855 128.132C30.8893 127.813 30.6615 127.435 30.502 126.997C30.3424 126.56 30.2627 126.081 30.2627 125.562V125.274C30.2627 124.673 30.3516 124.137 30.5293 123.668C30.707 123.194 30.9486 122.793 31.2539 122.465C31.5592 122.137 31.9056 121.888 32.293 121.72C32.6803 121.551 33.0814 121.467 33.4961 121.467C34.0247 121.467 34.4805 121.558 34.8633 121.74C35.2507 121.923 35.5674 122.178 35.8135 122.506C36.0596 122.829 36.2419 123.212 36.3604 123.654C36.4788 124.092 36.5381 124.57 36.5381 125.09V125.657H31.0146V124.625H35.2734V124.529C35.2552 124.201 35.1868 123.882 35.0684 123.572C34.9544 123.262 34.7721 123.007 34.5215 122.807C34.2708 122.606 33.929 122.506 33.4961 122.506C33.209 122.506 32.9447 122.567 32.7031 122.69C32.4616 122.809 32.2542 122.987 32.0811 123.224C31.9079 123.461 31.7734 123.75 31.6777 124.092C31.582 124.434 31.5342 124.828 31.5342 125.274V125.562C31.5342 125.912 31.582 126.243 31.6777 126.553C31.778 126.858 31.9215 127.127 32.1084 127.359C32.2998 127.592 32.5299 127.774 32.7988 127.906C33.0723 128.038 33.3822 128.104 33.7285 128.104C34.1751 128.104 34.5534 128.013 34.8633 127.831C35.1732 127.649 35.4443 127.405 35.6768 127.1L36.4424 127.708C36.2829 127.95 36.0801 128.18 35.834 128.398C35.5879 128.617 35.2848 128.795 34.9248 128.932C34.5693 129.068 34.1478 129.137 33.6602 129.137ZM39.3887 118.5V129H38.1172V118.5H39.3887ZM44.4883 129.137C43.9733 129.137 43.5062 129.05 43.0869 128.877C42.6722 128.699 42.3145 128.451 42.0137 128.132C41.7174 127.813 41.4896 127.435 41.3301 126.997C41.1706 126.56 41.0908 126.081 41.0908 125.562V125.274C41.0908 124.673 41.1797 124.137 41.3574 123.668C41.5352 123.194 41.7767 122.793 42.082 122.465C42.3874 122.137 42.7337 121.888 43.1211 121.72C43.5085 121.551 43.9095 121.467 44.3242 121.467C44.8529 121.467 45.3086 121.558 45.6914 121.74C46.0788 121.923 46.3955 122.178 46.6416 122.506C46.8877 122.829 47.07 123.212 47.1885 123.654C47.307 124.092 47.3662 124.57 47.3662 125.09V125.657H41.8428V124.625H46.1016V124.529C46.0833 124.201 46.015 123.882 45.8965 123.572C45.7826 123.262 45.6003 123.007 45.3496 122.807C45.099 122.606 44.7572 122.506 44.3242 122.506C44.0371 122.506 43.7728 122.567 43.5312 122.69C43.2897 122.809 43.0824 122.987 42.9092 123.224C42.736 123.461 42.6016 123.75 42.5059 124.092C42.4102 124.434 42.3623 124.828 42.3623 125.274V125.562C42.3623 125.912 42.4102 126.243 42.5059 126.553C42.6061 126.858 42.7497 127.127 42.9365 127.359C43.1279 127.592 43.3581 127.774 43.627 127.906C43.9004 128.038 44.2103 128.104 44.5566 128.104C45.0033 128.104 45.3815 128.013 45.6914 127.831C46.0013 127.649 46.2725 127.405 46.5049 127.1L47.2705 127.708C47.111 127.95 46.9082 128.18 46.6621 128.398C46.416 128.617 46.113 128.795 45.7529 128.932C45.3975 129.068 44.9759 129.137 44.4883 129.137ZM53.2041 127.735V123.928C53.2041 123.636 53.1449 123.383 53.0264 123.169C52.9124 122.95 52.7393 122.782 52.5068 122.663C52.2744 122.545 51.9873 122.485 51.6455 122.485C51.3265 122.485 51.0462 122.54 50.8047 122.649C50.5677 122.759 50.3809 122.902 50.2441 123.08C50.112 123.258 50.0459 123.449 50.0459 123.654H48.7812C48.7812 123.39 48.8496 123.128 48.9863 122.868C49.123 122.608 49.319 122.374 49.5742 122.164C49.834 121.95 50.1439 121.781 50.5039 121.658C50.8685 121.531 51.2741 121.467 51.7207 121.467C52.2585 121.467 52.7324 121.558 53.1426 121.74C53.5573 121.923 53.8809 122.198 54.1133 122.567C54.3503 122.932 54.4688 123.39 54.4688 123.941V127.387C54.4688 127.633 54.4893 127.895 54.5303 128.173C54.5758 128.451 54.6419 128.69 54.7285 128.891V129H53.4092C53.3454 128.854 53.2952 128.66 53.2588 128.419C53.2223 128.173 53.2041 127.945 53.2041 127.735ZM53.4229 124.516L53.4365 125.404H52.1582C51.7982 125.404 51.4769 125.434 51.1943 125.493C50.9118 125.548 50.6748 125.632 50.4834 125.746C50.292 125.86 50.1462 126.004 50.0459 126.177C49.9456 126.345 49.8955 126.544 49.8955 126.771C49.8955 127.004 49.9479 127.216 50.0527 127.407C50.1576 127.599 50.3148 127.751 50.5244 127.865C50.7386 127.975 51.0007 128.029 51.3105 128.029C51.6979 128.029 52.0397 127.947 52.3359 127.783C52.6322 127.619 52.8669 127.419 53.04 127.182C53.2178 126.945 53.3135 126.715 53.3271 126.491L53.8672 127.1C53.8353 127.291 53.7487 127.503 53.6074 127.735C53.4661 127.968 53.277 128.191 53.04 128.405C52.8076 128.615 52.5296 128.79 52.2061 128.932C51.887 129.068 51.527 129.137 51.126 129.137C50.6247 129.137 50.1849 129.039 49.8066 128.843C49.4329 128.647 49.1413 128.385 48.9316 128.057C48.7266 127.724 48.624 127.353 48.624 126.942C48.624 126.546 48.7015 126.197 48.8564 125.896C49.0114 125.591 49.2347 125.338 49.5264 125.138C49.818 124.933 50.1689 124.778 50.5791 124.673C50.9893 124.568 51.4473 124.516 51.9531 124.516H53.4229ZM60.7646 127.038C60.7646 126.856 60.7236 126.687 60.6416 126.532C60.5641 126.373 60.4023 126.229 60.1562 126.102C59.9147 125.969 59.5501 125.855 59.0625 125.76C58.6523 125.673 58.2809 125.571 57.9482 125.452C57.6201 125.334 57.3398 125.19 57.1074 125.021C56.8796 124.853 56.7041 124.655 56.5811 124.427C56.458 124.199 56.3965 123.932 56.3965 123.627C56.3965 123.335 56.4603 123.06 56.5879 122.8C56.7201 122.54 56.9046 122.31 57.1416 122.109C57.3831 121.909 57.6725 121.752 58.0098 121.638C58.347 121.524 58.723 121.467 59.1377 121.467C59.7301 121.467 60.236 121.572 60.6553 121.781C61.0745 121.991 61.3958 122.271 61.6191 122.622C61.8424 122.968 61.9541 123.354 61.9541 123.777H60.6895C60.6895 123.572 60.6279 123.374 60.5049 123.183C60.3864 122.987 60.2109 122.825 59.9785 122.697C59.7507 122.57 59.4704 122.506 59.1377 122.506C58.7868 122.506 58.502 122.561 58.2832 122.67C58.069 122.775 57.9118 122.909 57.8115 123.073C57.7158 123.237 57.668 123.41 57.668 123.593C57.668 123.729 57.6908 123.853 57.7363 123.962C57.7865 124.067 57.873 124.165 57.9961 124.256C58.1191 124.342 58.2923 124.424 58.5156 124.502C58.7389 124.579 59.0238 124.657 59.3701 124.734C59.9762 124.871 60.4753 125.035 60.8672 125.227C61.2591 125.418 61.5508 125.653 61.7422 125.931C61.9336 126.209 62.0293 126.546 62.0293 126.942C62.0293 127.266 61.9609 127.562 61.8242 127.831C61.6921 128.1 61.4984 128.332 61.2432 128.528C60.9925 128.72 60.6917 128.87 60.3408 128.979C59.9945 129.084 59.6048 129.137 59.1719 129.137C58.5202 129.137 57.9688 129.021 57.5176 128.788C57.0664 128.556 56.7246 128.255 56.4922 127.886C56.2598 127.517 56.1436 127.127 56.1436 126.717H57.415C57.4333 127.063 57.5335 127.339 57.7158 127.544C57.8981 127.744 58.1214 127.888 58.3857 127.975C58.6501 128.057 58.9121 128.098 59.1719 128.098C59.5182 128.098 59.8076 128.052 60.04 127.961C60.277 127.87 60.457 127.744 60.5801 127.585C60.7031 127.425 60.7646 127.243 60.7646 127.038ZM66.7598 129.137C66.2448 129.137 65.7777 129.05 65.3584 128.877C64.9437 128.699 64.5859 128.451 64.2852 128.132C63.9889 127.813 63.7611 127.435 63.6016 126.997C63.4421 126.56 63.3623 126.081 63.3623 125.562V125.274C63.3623 124.673 63.4512 124.137 63.6289 123.668C63.8066 123.194 64.0482 122.793 64.3535 122.465C64.6589 122.137 65.0052 121.888 65.3926 121.72C65.7799 121.551 66.181 121.467 66.5957 121.467C67.1243 121.467 67.5801 121.558 67.9629 121.74C68.3503 121.923 68.667 122.178 68.9131 122.506C69.1592 122.829 69.3415 123.212 69.46 123.654C69.5785 124.092 69.6377 124.57 69.6377 125.09V125.657H64.1143V124.625H68.373V124.529C68.3548 124.201 68.2865 123.882 68.168 123.572C68.054 123.262 67.8717 123.007 67.6211 122.807C67.3704 122.606 67.0286 122.506 66.5957 122.506C66.3086 122.506 66.0443 122.567 65.8027 122.69C65.5612 122.809 65.3538 122.987 65.1807 123.224C65.0075 123.461 64.873 123.75 64.7773 124.092C64.6816 124.434 64.6338 124.828 64.6338 125.274V125.562C64.6338 125.912 64.6816 126.243 64.7773 126.553C64.8776 126.858 65.0212 127.127 65.208 127.359C65.3994 127.592 65.6296 127.774 65.8984 127.906C66.1719 128.038 66.4818 128.104 66.8281 128.104C67.2747 128.104 67.653 128.013 67.9629 127.831C68.2728 127.649 68.5439 127.405 68.7764 127.1L69.542 127.708C69.3825 127.95 69.1797 128.18 68.9336 128.398C68.6875 128.617 68.3844 128.795 68.0244 128.932C67.6689 129.068 67.2474 129.137 66.7598 129.137Z" fill="#172B4D"/>
<rect width="360" height="32" transform="translate(5 140)" fill="white"/>
<path d="M27.46 158.484C27.46 158.252 27.4235 158.047 27.3506 157.869C27.2822 157.687 27.1592 157.523 26.9814 157.377C26.8083 157.231 26.5667 157.092 26.2568 156.96C25.9515 156.828 25.5641 156.693 25.0947 156.557C24.6025 156.411 24.1582 156.249 23.7617 156.071C23.3652 155.889 23.0257 155.682 22.7432 155.449C22.4606 155.217 22.2441 154.95 22.0938 154.649C21.9434 154.349 21.8682 154.005 21.8682 153.617C21.8682 153.23 21.9479 152.872 22.1074 152.544C22.2669 152.216 22.4948 151.931 22.791 151.689C23.0918 151.443 23.4495 151.252 23.8643 151.115C24.279 150.979 24.7415 150.91 25.252 150.91C25.9993 150.91 26.6328 151.054 27.1523 151.341C27.6764 151.623 28.0752 151.995 28.3486 152.455C28.6221 152.911 28.7588 153.398 28.7588 153.918H27.4463C27.4463 153.544 27.3665 153.214 27.207 152.927C27.0475 152.635 26.806 152.407 26.4824 152.243C26.1589 152.075 25.7487 151.99 25.252 151.99C24.7826 151.99 24.3952 152.061 24.0898 152.202C23.7845 152.343 23.5566 152.535 23.4062 152.776C23.2604 153.018 23.1875 153.294 23.1875 153.604C23.1875 153.813 23.2308 154.005 23.3174 154.178C23.4085 154.346 23.5475 154.504 23.7344 154.649C23.9258 154.795 24.1673 154.93 24.459 155.053C24.7552 155.176 25.1084 155.294 25.5186 155.408C26.0837 155.568 26.5713 155.745 26.9814 155.941C27.3916 156.137 27.7288 156.358 27.9932 156.604C28.262 156.846 28.4603 157.122 28.5879 157.432C28.7201 157.737 28.7861 158.083 28.7861 158.471C28.7861 158.876 28.7041 159.243 28.54 159.571C28.376 159.899 28.1413 160.18 27.8359 160.412C27.5306 160.645 27.1637 160.825 26.7354 160.952C26.3115 161.075 25.8376 161.137 25.3135 161.137C24.8532 161.137 24.3997 161.073 23.9531 160.945C23.5111 160.818 23.1077 160.626 22.7432 160.371C22.3831 160.116 22.0938 159.801 21.875 159.428C21.6608 159.049 21.5537 158.612 21.5537 158.115H22.8662C22.8662 158.457 22.9323 158.751 23.0645 158.997C23.1966 159.239 23.3766 159.439 23.6045 159.599C23.8369 159.758 24.099 159.877 24.3906 159.954C24.6868 160.027 24.9945 160.063 25.3135 160.063C25.7738 160.063 26.1634 160 26.4824 159.872C26.8014 159.744 27.043 159.562 27.207 159.325C27.3757 159.088 27.46 158.808 27.46 158.484ZM31.541 155.025V163.844H30.2695V153.604H31.4316L31.541 155.025ZM36.5244 157.24V157.384C36.5244 157.922 36.4606 158.421 36.333 158.881C36.2054 159.337 36.0186 159.733 35.7725 160.07C35.5309 160.408 35.2324 160.67 34.877 160.856C34.5215 161.043 34.1136 161.137 33.6533 161.137C33.1839 161.137 32.7692 161.059 32.4092 160.904C32.0492 160.749 31.7438 160.524 31.4932 160.228C31.2425 159.931 31.042 159.576 30.8916 159.161C30.7458 158.746 30.6455 158.279 30.5908 157.76V156.994C30.6455 156.447 30.748 155.957 30.8984 155.524C31.0488 155.091 31.2471 154.722 31.4932 154.417C31.7438 154.107 32.0469 153.872 32.4023 153.713C32.7578 153.549 33.168 153.467 33.6328 153.467C34.0977 153.467 34.5101 153.558 34.8701 153.74C35.2301 153.918 35.5332 154.173 35.7793 154.506C36.0254 154.839 36.21 155.237 36.333 155.702C36.4606 156.162 36.5244 156.675 36.5244 157.24ZM35.2529 157.384V157.24C35.2529 156.871 35.2142 156.525 35.1367 156.201C35.0592 155.873 34.9385 155.586 34.7744 155.34C34.6149 155.089 34.4098 154.893 34.1592 154.752C33.9085 154.606 33.61 154.533 33.2637 154.533C32.9447 154.533 32.6667 154.588 32.4297 154.697C32.1973 154.807 31.999 154.955 31.835 155.142C31.6709 155.324 31.5365 155.534 31.4316 155.771C31.3314 156.003 31.2562 156.244 31.2061 156.495V158.266C31.2972 158.585 31.4248 158.885 31.5889 159.168C31.7529 159.446 31.9717 159.672 32.2451 159.845C32.5186 160.013 32.8626 160.098 33.2773 160.098C33.6191 160.098 33.9131 160.027 34.1592 159.886C34.4098 159.74 34.6149 159.542 34.7744 159.291C34.9385 159.04 35.0592 158.753 35.1367 158.43C35.2142 158.102 35.2529 157.753 35.2529 157.384ZM39.4023 154.766V161H38.1377V153.604H39.3682L39.4023 154.766ZM41.7129 153.562L41.7061 154.738C41.6012 154.715 41.501 154.702 41.4053 154.697C41.3141 154.688 41.2093 154.684 41.0908 154.684C40.7992 154.684 40.5417 154.729 40.3184 154.82C40.0951 154.911 39.9059 155.039 39.751 155.203C39.596 155.367 39.473 155.563 39.3818 155.791C39.2952 156.014 39.2383 156.26 39.2109 156.529L38.8555 156.734C38.8555 156.288 38.8988 155.868 38.9854 155.477C39.0765 155.085 39.2155 154.738 39.4023 154.438C39.5892 154.132 39.8262 153.895 40.1133 153.727C40.4049 153.553 40.7513 153.467 41.1523 153.467C41.2435 153.467 41.3483 153.478 41.4668 153.501C41.5853 153.519 41.6673 153.54 41.7129 153.562ZM44.2559 153.604V161H42.9844V153.604H44.2559ZM42.8887 151.642C42.8887 151.437 42.9502 151.263 43.0732 151.122C43.2008 150.981 43.3877 150.91 43.6338 150.91C43.8753 150.91 44.0599 150.981 44.1875 151.122C44.3197 151.263 44.3857 151.437 44.3857 151.642C44.3857 151.838 44.3197 152.006 44.1875 152.147C44.0599 152.284 43.8753 152.353 43.6338 152.353C43.3877 152.353 43.2008 152.284 43.0732 152.147C42.9502 152.006 42.8887 151.838 42.8887 151.642ZM47.5508 155.183V161H46.2861V153.604H47.4824L47.5508 155.183ZM47.25 157.021L46.7236 157.001C46.7282 156.495 46.8034 156.028 46.9492 155.6C47.0951 155.167 47.3001 154.791 47.5645 154.472C47.8288 154.153 48.1432 153.907 48.5078 153.733C48.877 153.556 49.2848 153.467 49.7314 153.467C50.096 153.467 50.4242 153.517 50.7158 153.617C51.0075 153.713 51.2559 153.868 51.4609 154.082C51.6706 154.296 51.8301 154.574 51.9395 154.916C52.0488 155.253 52.1035 155.666 52.1035 156.153V161H50.832V156.14C50.832 155.752 50.7751 155.442 50.6611 155.21C50.5472 154.973 50.3809 154.802 50.1621 154.697C49.9434 154.588 49.6745 154.533 49.3555 154.533C49.041 154.533 48.7539 154.599 48.4941 154.731C48.2389 154.864 48.0179 155.046 47.8311 155.278C47.6488 155.511 47.5052 155.777 47.4004 156.078C47.3001 156.374 47.25 156.689 47.25 157.021ZM57.1211 153.604V154.574H53.1221V153.604H57.1211ZM54.4756 151.806H55.7402V159.168C55.7402 159.419 55.779 159.608 55.8564 159.735C55.9339 159.863 56.0342 159.947 56.1572 159.988C56.2803 160.029 56.4124 160.05 56.5537 160.05C56.6585 160.05 56.7679 160.041 56.8818 160.022C57.0003 160 57.0892 159.981 57.1484 159.968L57.1553 161C57.055 161.032 56.9229 161.062 56.7588 161.089C56.5993 161.121 56.4056 161.137 56.1777 161.137C55.8678 161.137 55.583 161.075 55.3232 160.952C55.0635 160.829 54.8561 160.624 54.7012 160.337C54.5508 160.045 54.4756 159.653 54.4756 159.161V151.806Z" fill="#172B4D"/>
<path d="M27.46 190.484C27.46 190.252 27.4235 190.047 27.3506 189.869C27.2822 189.687 27.1592 189.523 26.9814 189.377C26.8083 189.231 26.5667 189.092 26.2568 188.96C25.9515 188.828 25.5641 188.693 25.0947 188.557C24.6025 188.411 24.1582 188.249 23.7617 188.071C23.3652 187.889 23.0257 187.682 22.7432 187.449C22.4606 187.217 22.2441 186.95 22.0938 186.649C21.9434 186.349 21.8682 186.005 21.8682 185.617C21.8682 185.23 21.9479 184.872 22.1074 184.544C22.2669 184.216 22.4948 183.931 22.791 183.689C23.0918 183.443 23.4495 183.252 23.8643 183.115C24.279 182.979 24.7415 182.91 25.252 182.91C25.9993 182.91 26.6328 183.054 27.1523 183.341C27.6764 183.623 28.0752 183.995 28.3486 184.455C28.6221 184.911 28.7588 185.398 28.7588 185.918H27.4463C27.4463 185.544 27.3665 185.214 27.207 184.927C27.0475 184.635 26.806 184.407 26.4824 184.243C26.1589 184.075 25.7487 183.99 25.252 183.99C24.7826 183.99 24.3952 184.061 24.0898 184.202C23.7845 184.343 23.5566 184.535 23.4062 184.776C23.2604 185.018 23.1875 185.294 23.1875 185.604C23.1875 185.813 23.2308 186.005 23.3174 186.178C23.4085 186.346 23.5475 186.504 23.7344 186.649C23.9258 186.795 24.1673 186.93 24.459 187.053C24.7552 187.176 25.1084 187.294 25.5186 187.408C26.0837 187.568 26.5713 187.745 26.9814 187.941C27.3916 188.137 27.7288 188.358 27.9932 188.604C28.262 188.846 28.4603 189.122 28.5879 189.432C28.7201 189.737 28.7861 190.083 28.7861 190.471C28.7861 190.876 28.7041 191.243 28.54 191.571C28.376 191.899 28.1413 192.18 27.8359 192.412C27.5306 192.645 27.1637 192.825 26.7354 192.952C26.3115 193.075 25.8376 193.137 25.3135 193.137C24.8532 193.137 24.3997 193.073 23.9531 192.945C23.5111 192.818 23.1077 192.626 22.7432 192.371C22.3831 192.116 22.0938 191.801 21.875 191.428C21.6608 191.049 21.5537 190.612 21.5537 190.115H22.8662C22.8662 190.457 22.9323 190.751 23.0645 190.997C23.1966 191.239 23.3766 191.439 23.6045 191.599C23.8369 191.758 24.099 191.877 24.3906 191.954C24.6868 192.027 24.9945 192.063 25.3135 192.063C25.7738 192.063 26.1634 192 26.4824 191.872C26.8014 191.744 27.043 191.562 27.207 191.325C27.3757 191.088 27.46 190.808 27.46 190.484ZM32.1494 191.688L34.0498 185.604H34.8838L34.7197 186.813L32.7852 193H31.9717L32.1494 191.688ZM30.8711 185.604L32.4912 191.756L32.6074 193H31.7529L29.6064 185.604H30.8711ZM36.7021 191.708L38.2471 185.604H39.5049L37.3584 193H36.5107L36.7021 191.708ZM35.0684 185.604L36.9277 191.585L37.1396 193H36.333L34.3438 186.8L34.1797 185.604H35.0684ZM42.1777 185.604V193H40.9062V185.604H42.1777ZM40.8105 183.642C40.8105 183.437 40.8721 183.263 40.9951 183.122C41.1227 182.981 41.3096 182.91 41.5557 182.91C41.7972 182.91 41.9818 182.981 42.1094 183.122C42.2415 183.263 42.3076 183.437 42.3076 183.642C42.3076 183.838 42.2415 184.006 42.1094 184.147C41.9818 184.284 41.7972 184.353 41.5557 184.353C41.3096 184.353 41.1227 184.284 40.9951 184.147C40.8721 184.006 40.8105 183.838 40.8105 183.642ZM45.4658 187.073V193H44.1943V185.604H45.3975L45.4658 187.073ZM45.2061 189.021L44.6182 189.001C44.6227 188.495 44.6888 188.028 44.8164 187.6C44.944 187.167 45.1331 186.791 45.3838 186.472C45.6344 186.153 45.9466 185.907 46.3203 185.733C46.694 185.556 47.127 185.467 47.6191 185.467C47.9655 185.467 48.2845 185.517 48.5762 185.617C48.8678 185.713 49.1208 185.866 49.335 186.075C49.5492 186.285 49.7155 186.554 49.834 186.882C49.9525 187.21 50.0117 187.606 50.0117 188.071V193H48.7471V188.133C48.7471 187.745 48.681 187.436 48.5488 187.203C48.4212 186.971 48.2389 186.802 48.002 186.697C47.765 186.588 47.487 186.533 47.168 186.533C46.7943 186.533 46.4821 186.599 46.2314 186.731C45.9808 186.864 45.7803 187.046 45.6299 187.278C45.4795 187.511 45.3701 187.777 45.3018 188.078C45.238 188.374 45.2061 188.689 45.2061 189.021ZM49.998 188.324L49.1504 188.584C49.1549 188.178 49.221 187.789 49.3486 187.415C49.4808 187.041 49.6699 186.709 49.916 186.417C50.1667 186.125 50.4743 185.895 50.8389 185.727C51.2035 185.553 51.6204 185.467 52.0898 185.467C52.4863 185.467 52.8372 185.519 53.1426 185.624C53.4525 185.729 53.7122 185.891 53.9219 186.109C54.1361 186.324 54.2979 186.599 54.4072 186.937C54.5166 187.274 54.5713 187.675 54.5713 188.14V193H53.2998V188.126C53.2998 187.711 53.2337 187.39 53.1016 187.162C52.974 186.93 52.7917 186.768 52.5547 186.677C52.3223 186.581 52.0443 186.533 51.7207 186.533C51.4427 186.533 51.1966 186.581 50.9824 186.677C50.7682 186.772 50.5882 186.905 50.4424 187.073C50.2965 187.237 50.1849 187.426 50.1074 187.641C50.0345 187.855 49.998 188.083 49.998 188.324ZM57.8594 182.5V193H56.5879V182.5H57.8594ZM64.251 191.735V187.928C64.251 187.636 64.1917 187.383 64.0732 187.169C63.9593 186.95 63.7861 186.782 63.5537 186.663C63.3213 186.545 63.0342 186.485 62.6924 186.485C62.3734 186.485 62.0931 186.54 61.8516 186.649C61.6146 186.759 61.4277 186.902 61.291 187.08C61.1589 187.258 61.0928 187.449 61.0928 187.654H59.8281C59.8281 187.39 59.8965 187.128 60.0332 186.868C60.1699 186.608 60.3659 186.374 60.6211 186.164C60.8809 185.95 61.1908 185.781 61.5508 185.658C61.9154 185.531 62.321 185.467 62.7676 185.467C63.3053 185.467 63.7793 185.558 64.1895 185.74C64.6042 185.923 64.9277 186.198 65.1602 186.567C65.3971 186.932 65.5156 187.39 65.5156 187.941V191.387C65.5156 191.633 65.5361 191.895 65.5771 192.173C65.6227 192.451 65.6888 192.69 65.7754 192.891V193H64.4561C64.3923 192.854 64.3421 192.66 64.3057 192.419C64.2692 192.173 64.251 191.945 64.251 191.735ZM64.4697 188.516L64.4834 189.404H63.2051C62.8451 189.404 62.5238 189.434 62.2412 189.493C61.9587 189.548 61.7217 189.632 61.5303 189.746C61.3389 189.86 61.193 190.004 61.0928 190.177C60.9925 190.345 60.9424 190.544 60.9424 190.771C60.9424 191.004 60.9948 191.216 61.0996 191.407C61.2044 191.599 61.3617 191.751 61.5713 191.865C61.7855 191.975 62.0475 192.029 62.3574 192.029C62.7448 192.029 63.0866 191.947 63.3828 191.783C63.679 191.619 63.9137 191.419 64.0869 191.182C64.2646 190.945 64.3604 190.715 64.374 190.491L64.9141 191.1C64.8822 191.291 64.7956 191.503 64.6543 191.735C64.513 191.968 64.3239 192.191 64.0869 192.405C63.8545 192.615 63.5765 192.79 63.2529 192.932C62.9339 193.068 62.5739 193.137 62.1729 193.137C61.6715 193.137 61.2318 193.039 60.8535 192.843C60.4798 192.647 60.1882 192.385 59.9785 192.057C59.7734 191.724 59.6709 191.353 59.6709 190.942C59.6709 190.546 59.7484 190.197 59.9033 189.896C60.0583 189.591 60.2816 189.338 60.5732 189.138C60.8649 188.933 61.2158 188.778 61.626 188.673C62.0361 188.568 62.4941 188.516 63 188.516H64.4697ZM68.7695 187.183V193H67.5049V185.604H68.7012L68.7695 187.183ZM68.4688 189.021L67.9424 189.001C67.9469 188.495 68.0221 188.028 68.168 187.6C68.3138 187.167 68.5189 186.791 68.7832 186.472C69.0475 186.153 69.362 185.907 69.7266 185.733C70.0957 185.556 70.5036 185.467 70.9502 185.467C71.3148 185.467 71.6429 185.517 71.9346 185.617C72.2262 185.713 72.4746 185.868 72.6797 186.082C72.8893 186.296 73.0488 186.574 73.1582 186.916C73.2676 187.253 73.3223 187.666 73.3223 188.153V193H72.0508V188.14C72.0508 187.752 71.9938 187.442 71.8799 187.21C71.766 186.973 71.5996 186.802 71.3809 186.697C71.1621 186.588 70.8932 186.533 70.5742 186.533C70.2598 186.533 69.9727 186.599 69.7129 186.731C69.4577 186.864 69.2367 187.046 69.0498 187.278C68.8675 187.511 68.724 187.777 68.6191 188.078C68.5189 188.374 68.4688 188.689 68.4688 189.021ZM78.3125 193.137C77.7975 193.137 77.3304 193.05 76.9111 192.877C76.4964 192.699 76.1387 192.451 75.8379 192.132C75.5417 191.813 75.3138 191.435 75.1543 190.997C74.9948 190.56 74.915 190.081 74.915 189.562V189.274C74.915 188.673 75.0039 188.137 75.1816 187.668C75.3594 187.194 75.6009 186.793 75.9062 186.465C76.2116 186.137 76.5579 185.888 76.9453 185.72C77.3327 185.551 77.7337 185.467 78.1484 185.467C78.6771 185.467 79.1328 185.558 79.5156 185.74C79.903 185.923 80.2197 186.178 80.4658 186.506C80.7119 186.829 80.8942 187.212 81.0127 187.654C81.1312 188.092 81.1904 188.57 81.1904 189.09V189.657H75.667V188.625H79.9258V188.529C79.9076 188.201 79.8392 187.882 79.7207 187.572C79.6068 187.262 79.4245 187.007 79.1738 186.807C78.9232 186.606 78.5814 186.506 78.1484 186.506C77.8613 186.506 77.597 186.567 77.3555 186.69C77.1139 186.809 76.9066 186.987 76.7334 187.224C76.5602 187.461 76.4258 187.75 76.3301 188.092C76.2344 188.434 76.1865 188.828 76.1865 189.274V189.562C76.1865 189.912 76.2344 190.243 76.3301 190.553C76.4303 190.858 76.5739 191.127 76.7607 191.359C76.9521 191.592 77.1823 191.774 77.4512 191.906C77.7246 192.038 78.0345 192.104 78.3809 192.104C78.8275 192.104 79.2057 192.013 79.5156 191.831C79.8255 191.649 80.0967 191.405 80.3291 191.1L81.0947 191.708C80.9352 191.95 80.7324 192.18 80.4863 192.398C80.2402 192.617 79.9372 192.795 79.5771 192.932C79.2217 193.068 78.8001 193.137 78.3125 193.137Z" fill="#172B4D"/>
</g>
</g>
<rect x="5" width="50" height="30" rx="3" fill="#0052CC"/>
<path d="M22.3574 11.373L19.3838 20H17.5859L21.332 10.0469H22.4805L22.3574 11.373ZM24.8457 20L21.8652 11.373L21.7354 10.0469H22.8906L26.6504 20H24.8457ZM24.7021 16.3086V17.6689H19.2881V16.3086H24.7021ZM32.1123 18.4688V9.5H33.7666V20H32.2695L32.1123 18.4688ZM27.2998 16.3838V16.2402C27.2998 15.6797 27.3659 15.1693 27.498 14.709C27.6302 14.2441 27.8216 13.8454 28.0723 13.5127C28.3229 13.1755 28.6283 12.918 28.9883 12.7402C29.3483 12.5579 29.7539 12.4668 30.2051 12.4668C30.6517 12.4668 31.0436 12.5534 31.3809 12.7266C31.7181 12.8997 32.0052 13.1481 32.2422 13.4717C32.4792 13.7907 32.6683 14.1735 32.8096 14.6201C32.9508 15.0622 33.0511 15.5544 33.1104 16.0967V16.5547C33.0511 17.0833 32.9508 17.5664 32.8096 18.0039C32.6683 18.4414 32.4792 18.8197 32.2422 19.1387C32.0052 19.4577 31.7158 19.7038 31.374 19.877C31.0368 20.0501 30.6426 20.1367 30.1914 20.1367C29.7448 20.1367 29.3415 20.0433 28.9814 19.8564C28.626 19.6696 28.3229 19.4076 28.0723 19.0703C27.8216 18.7331 27.6302 18.3366 27.498 17.8809C27.3659 17.4206 27.2998 16.9215 27.2998 16.3838ZM28.9473 16.2402V16.3838C28.9473 16.721 28.9769 17.0355 29.0361 17.3271C29.0999 17.6188 29.1979 17.8763 29.3301 18.0996C29.4622 18.3184 29.6331 18.4915 29.8428 18.6191C30.057 18.7422 30.3122 18.8037 30.6084 18.8037C30.9821 18.8037 31.2897 18.7217 31.5312 18.5576C31.7728 18.3936 31.9619 18.1725 32.0986 17.8945C32.2399 17.612 32.3356 17.2975 32.3857 16.9512V15.7139C32.3584 15.445 32.3014 15.1943 32.2148 14.9619C32.1328 14.7295 32.0212 14.5267 31.8799 14.3535C31.7386 14.1758 31.5632 14.0391 31.3535 13.9434C31.1484 13.8431 30.9046 13.793 30.6221 13.793C30.3213 13.793 30.0661 13.8568 29.8564 13.9844C29.6468 14.112 29.4736 14.2874 29.3369 14.5107C29.2048 14.734 29.1068 14.9938 29.043 15.29C28.9792 15.5863 28.9473 15.903 28.9473 16.2402ZM40.001 18.4688V9.5H41.6553V20H40.1582L40.001 18.4688ZM35.1885 16.3838V16.2402C35.1885 15.6797 35.2546 15.1693 35.3867 14.709C35.5189 14.2441 35.7103 13.8454 35.9609 13.5127C36.2116 13.1755 36.5169 12.918 36.877 12.7402C37.237 12.5579 37.6426 12.4668 38.0938 12.4668C38.5404 12.4668 38.9323 12.5534 39.2695 12.7266C39.6068 12.8997 39.8939 13.1481 40.1309 13.4717C40.3678 13.7907 40.557 14.1735 40.6982 14.6201C40.8395 15.0622 40.9398 15.5544 40.999 16.0967V16.5547C40.9398 17.0833 40.8395 17.5664 40.6982 18.0039C40.557 18.4414 40.3678 18.8197 40.1309 19.1387C39.8939 19.4577 39.6045 19.7038 39.2627 19.877C38.9255 20.0501 38.5312 20.1367 38.0801 20.1367C37.6335 20.1367 37.2301 20.0433 36.8701 19.8564C36.5146 19.6696 36.2116 19.4076 35.9609 19.0703C35.7103 18.7331 35.5189 18.3366 35.3867 17.8809C35.2546 17.4206 35.1885 16.9215 35.1885 16.3838ZM36.8359 16.2402V16.3838C36.8359 16.721 36.8656 17.0355 36.9248 17.3271C36.9886 17.6188 37.0866 17.8763 37.2188 18.0996C37.3509 18.3184 37.5218 18.4915 37.7314 18.6191C37.9456 18.7422 38.2008 18.8037 38.4971 18.8037C38.8708 18.8037 39.1784 18.7217 39.4199 18.5576C39.6615 18.3936 39.8506 18.1725 39.9873 17.8945C40.1286 17.612 40.2243 17.2975 40.2744 16.9512V15.7139C40.2471 15.445 40.1901 15.1943 40.1035 14.9619C40.0215 14.7295 39.9098 14.5267 39.7686 14.3535C39.6273 14.1758 39.4518 14.0391 39.2422 13.9434C39.0371 13.8431 38.7933 13.793 38.5107 13.793C38.21 13.793 37.9548 13.8568 37.7451 13.9844C37.5355 14.112 37.3623 14.2874 37.2256 14.5107C37.0934 14.734 36.9954 14.9938 36.9316 15.29C36.8678 15.5863 36.8359 15.903 36.8359 16.2402Z" fill="white"/>
<defs>
<filter id="filter0_dd_2167_1045" x="0" y="34" width="245" height="186" filterUnits="userSpaceOnUse" color-interpolation-filters="sRGB">
<feFlood flood-opacity="0" result="BackgroundImageFix"/>
<feColorMatrix in="SourceAlpha" type="matrix" values="0 0 0 0 0 0 0 0 0 0 0 0 0 0 0 0 0 0 127 0" result="hardAlpha"/>
<feOffset/>
<feGaussianBlur stdDeviation="0.5"/>
<feColorMatrix type="matrix" values="0 0 0 0 0.0352941 0 0 0 0 0.117647 0 0 0 0 0.258824 0 0 0 0.31 0"/>
<feBlend mode="normal" in2="BackgroundImageFix" result="effect1_dropShadow_2167_1045"/>
<feColorMatrix in="SourceAlpha" type="matrix" values="0 0 0 0 0 0 0 0 0 0 0 0 0 0 0 0 0 0 127 0" result="hardAlpha"/>
<feOffset dy="3"/>
<feGaussianBlur stdDeviation="2.5"/>
<feColorMatrix type="matrix" values="0 0 0 0 0.0352941 0 0 0 0 0.117647 0 0 0 0 0.258824 0 0 0 0.2 0"/>
<feBlend mode="normal" in2="effect1_dropShadow_2167_1045" result="effect2_dropShadow_2167_1045"/>
<feBlend mode="normal" in="SourceGraphic" in2="effect2_dropShadow_2167_1045" result="shape"/>
</filter>
<clipPath id="clip0_2167_1045">
<rect x="5" y="36" width="235" height="176" rx="3" fill="white"/>
</clipPath>
</defs>
</svg>
