<svg width="245" height="190" viewBox="0 0 245 190" fill="none" xmlns="http://www.w3.org/2000/svg">
<rect x="5" width="82" height="32" rx="3" fill="#EBECF0"/>
<path d="M30.8008 16.7598H32.5098C32.4551 17.4115 32.2728 17.9925 31.9629 18.5029C31.653 19.0088 31.2178 19.4076 30.6572 19.6992C30.0967 19.9909 29.4154 20.1367 28.6133 20.1367C27.998 20.1367 27.4443 20.0273 26.9521 19.8086C26.46 19.5853 26.0384 19.2708 25.6875 18.8652C25.3366 18.4551 25.0677 17.9606 24.8809 17.3818C24.6986 16.8031 24.6074 16.1559 24.6074 15.4404V14.6133C24.6074 13.8978 24.7008 13.2507 24.8877 12.6719C25.0791 12.0931 25.3525 11.5986 25.708 11.1885C26.0635 10.7738 26.4896 10.457 26.9863 10.2383C27.4876 10.0195 28.0505 9.91016 28.6748 9.91016C29.4678 9.91016 30.1377 10.056 30.6846 10.3477C31.2314 10.6393 31.6553 11.0426 31.9561 11.5576C32.2614 12.0726 32.4482 12.6628 32.5166 13.3281H30.8076C30.762 12.8997 30.6618 12.5329 30.5068 12.2275C30.3564 11.9222 30.1331 11.6898 29.8369 11.5303C29.5407 11.3662 29.1533 11.2842 28.6748 11.2842C28.2829 11.2842 27.9411 11.3571 27.6494 11.5029C27.3577 11.6488 27.1139 11.863 26.918 12.1455C26.722 12.4281 26.5739 12.7767 26.4736 13.1914C26.3779 13.6016 26.3301 14.071 26.3301 14.5996V15.4404C26.3301 15.9417 26.3734 16.3975 26.46 16.8076C26.5511 17.2132 26.6878 17.5618 26.8701 17.8535C27.057 18.1452 27.2939 18.3708 27.5811 18.5303C27.8682 18.6898 28.2122 18.7695 28.6133 18.7695C29.1009 18.7695 29.4951 18.6921 29.7959 18.5371C30.1012 18.3822 30.3314 18.1566 30.4863 17.8604C30.6458 17.5596 30.7507 17.1927 30.8008 16.7598ZM35.5586 14.0117V20H33.9111V12.6035H35.4834L35.5586 14.0117ZM37.8213 12.5557L37.8076 14.0869C37.7074 14.0687 37.598 14.055 37.4795 14.0459C37.3656 14.0368 37.2516 14.0322 37.1377 14.0322C36.8551 14.0322 36.6068 14.0732 36.3926 14.1553C36.1784 14.2327 35.9984 14.3467 35.8525 14.4971C35.7113 14.6429 35.6019 14.8206 35.5244 15.0303C35.4469 15.2399 35.4014 15.4746 35.3877 15.7344L35.0117 15.7617C35.0117 15.2969 35.0573 14.8662 35.1484 14.4697C35.2396 14.0732 35.3763 13.7246 35.5586 13.4238C35.7454 13.123 35.9779 12.8883 36.2559 12.7197C36.5384 12.5511 36.8643 12.4668 37.2334 12.4668C37.3337 12.4668 37.4408 12.4759 37.5547 12.4941C37.6732 12.5124 37.762 12.5329 37.8213 12.5557ZM41.9775 20.1367C41.4307 20.1367 40.9362 20.0479 40.4941 19.8701C40.0566 19.6878 39.6829 19.4349 39.373 19.1113C39.0677 18.7878 38.833 18.4072 38.6689 17.9697C38.5049 17.5322 38.4229 17.0605 38.4229 16.5547V16.2812C38.4229 15.7025 38.5072 15.1784 38.6758 14.709C38.8444 14.2396 39.0791 13.8385 39.3799 13.5059C39.6807 13.1686 40.0361 12.9111 40.4463 12.7334C40.8564 12.5557 41.3008 12.4668 41.7793 12.4668C42.3079 12.4668 42.7705 12.5557 43.167 12.7334C43.5635 12.9111 43.8916 13.1618 44.1514 13.4854C44.4157 13.8044 44.6117 14.1849 44.7393 14.627C44.8714 15.069 44.9375 15.5566 44.9375 16.0898V16.7939H39.2227V15.6113H43.3105V15.4814C43.3014 15.1852 43.2422 14.9072 43.1328 14.6475C43.028 14.3877 42.8662 14.1781 42.6475 14.0186C42.4287 13.859 42.137 13.7793 41.7725 13.7793C41.499 13.7793 41.2552 13.8385 41.041 13.957C40.8314 14.071 40.6559 14.2373 40.5146 14.4561C40.3734 14.6748 40.264 14.9391 40.1865 15.249C40.1136 15.5544 40.0771 15.8984 40.0771 16.2812V16.5547C40.0771 16.8783 40.1204 17.179 40.207 17.457C40.2982 17.7305 40.4303 17.9697 40.6035 18.1748C40.7767 18.3799 40.9863 18.5417 41.2324 18.6602C41.4785 18.7741 41.7588 18.8311 42.0732 18.8311C42.4697 18.8311 42.8229 18.7513 43.1328 18.5918C43.4427 18.4323 43.7116 18.2067 43.9395 17.915L44.8076 18.7559C44.6481 18.9883 44.4408 19.2116 44.1855 19.4258C43.9303 19.6354 43.6182 19.8063 43.249 19.9385C42.8844 20.0706 42.4606 20.1367 41.9775 20.1367ZM50.3926 18.5166V14.9893C50.3926 14.7249 50.3447 14.4971 50.249 14.3057C50.1533 14.1143 50.0075 13.9661 49.8115 13.8613C49.6201 13.7565 49.3786 13.7041 49.0869 13.7041C48.818 13.7041 48.5856 13.7497 48.3896 13.8408C48.1937 13.932 48.041 14.055 47.9316 14.21C47.8223 14.3649 47.7676 14.5404 47.7676 14.7363H46.127C46.127 14.4447 46.1976 14.1621 46.3389 13.8887C46.4801 13.6152 46.6852 13.3714 46.9541 13.1572C47.223 12.943 47.5443 12.7744 47.918 12.6514C48.2917 12.5283 48.7109 12.4668 49.1758 12.4668C49.7318 12.4668 50.224 12.5602 50.6523 12.7471C51.0853 12.9339 51.4248 13.2165 51.6709 13.5947C51.9215 13.9684 52.0469 14.4378 52.0469 15.0029V18.291C52.0469 18.6283 52.0697 18.9313 52.1152 19.2002C52.1654 19.4645 52.236 19.6947 52.3271 19.8906V20H50.6387C50.5612 19.8223 50.4997 19.5967 50.4541 19.3232C50.4131 19.0452 50.3926 18.7764 50.3926 18.5166ZM50.6318 15.502L50.6455 16.5205H49.4629C49.1576 16.5205 48.8887 16.5501 48.6562 16.6094C48.4238 16.6641 48.2301 16.7461 48.0752 16.8555C47.9202 16.9648 47.804 17.097 47.7266 17.252C47.6491 17.4069 47.6104 17.5824 47.6104 17.7783C47.6104 17.9743 47.6559 18.1543 47.7471 18.3184C47.8382 18.4779 47.9704 18.6032 48.1436 18.6943C48.3213 18.7855 48.5355 18.8311 48.7861 18.8311C49.1234 18.8311 49.4173 18.7627 49.668 18.626C49.9232 18.4847 50.1237 18.3138 50.2695 18.1133C50.4154 17.9082 50.4928 17.7145 50.502 17.5322L51.0352 18.2637C50.9805 18.4505 50.887 18.651 50.7549 18.8652C50.6227 19.0794 50.4495 19.2845 50.2354 19.4805C50.0257 19.6719 49.7728 19.8291 49.4766 19.9521C49.1849 20.0752 48.8477 20.1367 48.4648 20.1367C47.9818 20.1367 47.5511 20.041 47.1729 19.8496C46.7946 19.6536 46.4984 19.3916 46.2842 19.0635C46.07 18.7308 45.9629 18.3548 45.9629 17.9355C45.9629 17.5436 46.0358 17.1973 46.1816 16.8965C46.332 16.5911 46.5508 16.3359 46.8379 16.1309C47.1296 15.9258 47.485 15.7708 47.9043 15.666C48.3236 15.5566 48.8021 15.502 49.3398 15.502H50.6318ZM57.1602 12.6035V13.8066H52.9902V12.6035H57.1602ZM54.1934 10.792H55.8408V17.9561C55.8408 18.1839 55.8727 18.3594 55.9365 18.4824C56.0049 18.6009 56.0983 18.6807 56.2168 18.7217C56.3353 18.7627 56.4743 18.7832 56.6338 18.7832C56.7477 18.7832 56.8571 18.7764 56.9619 18.7627C57.0667 18.749 57.151 18.7354 57.2148 18.7217L57.2217 19.9795C57.085 20.0205 56.9255 20.057 56.7432 20.0889C56.5654 20.1208 56.3604 20.1367 56.1279 20.1367C55.7497 20.1367 55.4147 20.0706 55.123 19.9385C54.8314 19.8018 54.6035 19.5807 54.4395 19.2754C54.2754 18.9701 54.1934 18.5645 54.1934 18.0586V10.792ZM61.6924 20.1367C61.1455 20.1367 60.651 20.0479 60.209 19.8701C59.7715 19.6878 59.3978 19.4349 59.0879 19.1113C58.7826 18.7878 58.5479 18.4072 58.3838 17.9697C58.2197 17.5322 58.1377 17.0605 58.1377 16.5547V16.2812C58.1377 15.7025 58.222 15.1784 58.3906 14.709C58.5592 14.2396 58.7939 13.8385 59.0947 13.5059C59.3955 13.1686 59.751 12.9111 60.1611 12.7334C60.5713 12.5557 61.0156 12.4668 61.4941 12.4668C62.0228 12.4668 62.4854 12.5557 62.8818 12.7334C63.2783 12.9111 63.6064 13.1618 63.8662 13.4854C64.1305 13.8044 64.3265 14.1849 64.4541 14.627C64.5863 15.069 64.6523 15.5566 64.6523 16.0898V16.7939H58.9375V15.6113H63.0254V15.4814C63.0163 15.1852 62.957 14.9072 62.8477 14.6475C62.7428 14.3877 62.5811 14.1781 62.3623 14.0186C62.1436 13.859 61.8519 13.7793 61.4873 13.7793C61.2139 13.7793 60.9701 13.8385 60.7559 13.957C60.5462 14.071 60.3708 14.2373 60.2295 14.4561C60.0882 14.6748 59.9788 14.9391 59.9014 15.249C59.8285 15.5544 59.792 15.8984 59.792 16.2812V16.5547C59.792 16.8783 59.8353 17.179 59.9219 17.457C60.013 17.7305 60.1452 17.9697 60.3184 18.1748C60.4915 18.3799 60.7012 18.5417 60.9473 18.6602C61.1934 18.7741 61.4736 18.8311 61.7881 18.8311C62.1846 18.8311 62.5378 18.7513 62.8477 18.5918C63.1576 18.4323 63.4264 18.2067 63.6543 17.915L64.5225 18.7559C64.363 18.9883 64.1556 19.2116 63.9004 19.4258C63.6452 19.6354 63.333 19.8063 62.9639 19.9385C62.5993 20.0706 62.1755 20.1367 61.6924 20.1367Z" fill="#42526E"/>
<g filter="url(#filter0_dd_1974_726)">
<g clip-path="url(#clip0_1974_726)">
<rect x="5" y="38" width="235" height="144" rx="3" fill="white"/>
<rect width="360" height="32" transform="translate(5 46)" fill="#EBECF0"/>
<path d="M25.8398 57.9287L22.5449 67H21.1982L24.9922 57.0469H25.8604L25.8398 57.9287ZM28.6016 67L25.2998 57.9287L25.2793 57.0469H26.1475L29.9551 67H28.6016ZM28.4307 63.3154V64.3955H22.8389V63.3154H28.4307ZM34.0566 66.0977C34.3574 66.0977 34.6354 66.0361 34.8906 65.9131C35.1458 65.79 35.3555 65.6214 35.5195 65.4072C35.6836 65.1885 35.777 64.9401 35.7998 64.6621H37.0029C36.9801 65.0996 36.832 65.5075 36.5586 65.8857C36.2897 66.2594 35.9365 66.5625 35.499 66.7949C35.0615 67.0228 34.5807 67.1367 34.0566 67.1367C33.5007 67.1367 33.0153 67.0387 32.6006 66.8428C32.1904 66.6468 31.8486 66.3779 31.5752 66.0361C31.3063 65.6943 31.1035 65.3024 30.9668 64.8604C30.8346 64.4137 30.7686 63.9421 30.7686 63.4453V63.1582C30.7686 62.6615 30.8346 62.1921 30.9668 61.75C31.1035 61.3034 31.3063 60.9092 31.5752 60.5674C31.8486 60.2256 32.1904 59.9567 32.6006 59.7607C33.0153 59.5648 33.5007 59.4668 34.0566 59.4668C34.6354 59.4668 35.1413 59.5853 35.5742 59.8223C36.0072 60.0547 36.3467 60.3737 36.5928 60.7793C36.8434 61.1803 36.9801 61.6361 37.0029 62.1465H35.7998C35.777 61.8411 35.6904 61.5654 35.54 61.3193C35.3942 61.0732 35.1937 60.8773 34.9385 60.7314C34.6878 60.5811 34.3939 60.5059 34.0566 60.5059C33.6693 60.5059 33.3434 60.5833 33.0791 60.7383C32.8193 60.8887 32.612 61.0938 32.457 61.3535C32.3066 61.6087 32.1973 61.8936 32.1289 62.208C32.0651 62.5179 32.0332 62.8346 32.0332 63.1582V63.4453C32.0332 63.7689 32.0651 64.0879 32.1289 64.4023C32.1927 64.7168 32.2998 65.0016 32.4502 65.2568C32.6051 65.512 32.8125 65.7171 33.0723 65.8721C33.3366 66.0225 33.6647 66.0977 34.0566 66.0977ZM41.5215 59.6035V60.5742H37.5225V59.6035H41.5215ZM38.876 57.8057H40.1406V65.168C40.1406 65.4186 40.1794 65.6077 40.2568 65.7354C40.3343 65.863 40.4346 65.9473 40.5576 65.9883C40.6807 66.0293 40.8128 66.0498 40.9541 66.0498C41.0589 66.0498 41.1683 66.0407 41.2822 66.0225C41.4007 65.9997 41.4896 65.9814 41.5488 65.9678L41.5557 67C41.4554 67.0319 41.3232 67.0615 41.1592 67.0889C40.9997 67.1208 40.806 67.1367 40.5781 67.1367C40.2682 67.1367 39.9834 67.0752 39.7236 66.9521C39.4639 66.8291 39.2565 66.624 39.1016 66.3369C38.9512 66.0452 38.876 65.6533 38.876 65.1611V57.8057ZM44.3789 59.6035V67H43.1074V59.6035H44.3789ZM43.0117 57.6416C43.0117 57.4365 43.0732 57.2633 43.1963 57.1221C43.3239 56.9808 43.5107 56.9102 43.7568 56.9102C43.9984 56.9102 44.1829 56.9808 44.3105 57.1221C44.4427 57.2633 44.5088 57.4365 44.5088 57.6416C44.5088 57.8376 44.4427 58.0062 44.3105 58.1475C44.1829 58.2842 43.9984 58.3525 43.7568 58.3525C43.5107 58.3525 43.3239 58.2842 43.1963 58.1475C43.0732 58.0062 43.0117 57.8376 43.0117 57.6416ZM48.6582 65.8584L50.6816 59.6035H51.9736L49.3145 67H48.4668L48.6582 65.8584ZM46.9697 59.6035L49.0547 65.8926L49.1982 67H48.3506L45.6709 59.6035H46.9697ZM54.5645 59.6035V67H53.293V59.6035H54.5645ZM53.1973 57.6416C53.1973 57.4365 53.2588 57.2633 53.3818 57.1221C53.5094 56.9808 53.6963 56.9102 53.9424 56.9102C54.1839 56.9102 54.3685 56.9808 54.4961 57.1221C54.6283 57.2633 54.6943 57.4365 54.6943 57.6416C54.6943 57.8376 54.6283 58.0062 54.4961 58.1475C54.3685 58.2842 54.1839 58.3525 53.9424 58.3525C53.6963 58.3525 53.5094 58.2842 53.3818 58.1475C53.2588 58.0062 53.1973 57.8376 53.1973 57.6416ZM59.6914 59.6035V60.5742H55.6924V59.6035H59.6914ZM57.0459 57.8057H58.3105V65.168C58.3105 65.4186 58.3493 65.6077 58.4268 65.7354C58.5042 65.863 58.6045 65.9473 58.7275 65.9883C58.8506 66.0293 58.9827 66.0498 59.124 66.0498C59.2288 66.0498 59.3382 66.0407 59.4521 66.0225C59.5706 65.9997 59.6595 65.9814 59.7188 65.9678L59.7256 67C59.6253 67.0319 59.4932 67.0615 59.3291 67.0889C59.1696 67.1208 58.9759 67.1367 58.748 67.1367C58.4382 67.1367 58.1533 67.0752 57.8936 66.9521C57.6338 66.8291 57.4264 66.624 57.2715 66.3369C57.1211 66.0452 57.0459 65.6533 57.0459 65.1611V57.8057ZM63.2529 66.2344L65.3105 59.6035H66.6641L63.6973 68.1416C63.6289 68.3239 63.5378 68.5199 63.4238 68.7295C63.3145 68.9437 63.1732 69.1465 63 69.3379C62.8268 69.5293 62.6172 69.6842 62.3711 69.8027C62.1296 69.9258 61.8402 69.9873 61.5029 69.9873C61.4027 69.9873 61.2751 69.9736 61.1201 69.9463C60.9652 69.9189 60.8558 69.8962 60.792 69.8779L60.7852 68.8525C60.8216 68.8571 60.8786 68.8617 60.9561 68.8662C61.0381 68.8753 61.0951 68.8799 61.127 68.8799C61.4141 68.8799 61.6579 68.8411 61.8584 68.7637C62.0589 68.6908 62.2275 68.5654 62.3643 68.3877C62.5055 68.2145 62.6263 67.9753 62.7266 67.6699L63.2529 66.2344ZM61.7422 59.6035L63.6631 65.3457L63.9912 66.6787L63.082 67.1436L60.3613 59.6035H61.7422Z" fill="#172B4D"/>
<rect width="360" height="32" transform="translate(5 78)" fill="white"/>
<path d="M22.1553 89.0469H25.4502C26.1976 89.0469 26.8288 89.1608 27.3438 89.3887C27.8633 89.6165 28.2575 89.9538 28.5264 90.4004C28.7998 90.8424 28.9365 91.387 28.9365 92.0342C28.9365 92.4899 28.8431 92.9069 28.6562 93.2852C28.474 93.6589 28.2096 93.9779 27.8633 94.2422C27.5215 94.502 27.1113 94.6956 26.6328 94.8232L26.2637 94.9668H23.167L23.1533 93.8936H25.4912C25.9652 93.8936 26.3594 93.8115 26.6738 93.6475C26.9883 93.4788 27.2253 93.2533 27.3848 92.9707C27.5443 92.6882 27.624 92.376 27.624 92.0342C27.624 91.6514 27.5488 91.3164 27.3984 91.0293C27.248 90.7422 27.0111 90.5212 26.6875 90.3662C26.3685 90.2067 25.9561 90.127 25.4502 90.127H23.4746V99H22.1553V89.0469ZM27.9727 99L25.5527 94.4883L26.9268 94.4814L29.3809 98.918V99H27.9727ZM33.6602 99.1367C33.1452 99.1367 32.6781 99.0501 32.2588 98.877C31.8441 98.6992 31.4863 98.4508 31.1855 98.1318C30.8893 97.8128 30.6615 97.4346 30.502 96.9971C30.3424 96.5596 30.2627 96.0811 30.2627 95.5615V95.2744C30.2627 94.6729 30.3516 94.1374 30.5293 93.668C30.707 93.194 30.9486 92.793 31.2539 92.4648C31.5592 92.1367 31.9056 91.8883 32.293 91.7197C32.6803 91.5511 33.0814 91.4668 33.4961 91.4668C34.0247 91.4668 34.4805 91.5579 34.8633 91.7402C35.2507 91.9225 35.5674 92.1777 35.8135 92.5059C36.0596 92.8294 36.2419 93.2122 36.3604 93.6543C36.4788 94.0918 36.5381 94.5703 36.5381 95.0898V95.6572H31.0146V94.625H35.2734V94.5293C35.2552 94.2012 35.1868 93.8822 35.0684 93.5723C34.9544 93.2624 34.7721 93.0072 34.5215 92.8066C34.2708 92.6061 33.929 92.5059 33.4961 92.5059C33.209 92.5059 32.9447 92.5674 32.7031 92.6904C32.4616 92.8089 32.2542 92.9867 32.0811 93.2236C31.9079 93.4606 31.7734 93.75 31.6777 94.0918C31.582 94.4336 31.5342 94.8278 31.5342 95.2744V95.5615C31.5342 95.9124 31.582 96.2428 31.6777 96.5527C31.778 96.8581 31.9215 97.127 32.1084 97.3594C32.2998 97.5918 32.5299 97.7741 32.7988 97.9062C33.0723 98.0384 33.3822 98.1045 33.7285 98.1045C34.1751 98.1045 34.5534 98.0133 34.8633 97.8311C35.1732 97.6488 35.4443 97.4049 35.6768 97.0996L36.4424 97.708C36.2829 97.9495 36.0801 98.1797 35.834 98.3984C35.5879 98.6172 35.2848 98.7949 34.9248 98.9316C34.5693 99.0684 34.1478 99.1367 33.6602 99.1367ZM39.3887 88.5V99H38.1172V88.5H39.3887ZM44.4883 99.1367C43.9733 99.1367 43.5062 99.0501 43.0869 98.877C42.6722 98.6992 42.3145 98.4508 42.0137 98.1318C41.7174 97.8128 41.4896 97.4346 41.3301 96.9971C41.1706 96.5596 41.0908 96.0811 41.0908 95.5615V95.2744C41.0908 94.6729 41.1797 94.1374 41.3574 93.668C41.5352 93.194 41.7767 92.793 42.082 92.4648C42.3874 92.1367 42.7337 91.8883 43.1211 91.7197C43.5085 91.5511 43.9095 91.4668 44.3242 91.4668C44.8529 91.4668 45.3086 91.5579 45.6914 91.7402C46.0788 91.9225 46.3955 92.1777 46.6416 92.5059C46.8877 92.8294 47.07 93.2122 47.1885 93.6543C47.307 94.0918 47.3662 94.5703 47.3662 95.0898V95.6572H41.8428V94.625H46.1016V94.5293C46.0833 94.2012 46.015 93.8822 45.8965 93.5723C45.7826 93.2624 45.6003 93.0072 45.3496 92.8066C45.099 92.6061 44.7572 92.5059 44.3242 92.5059C44.0371 92.5059 43.7728 92.5674 43.5312 92.6904C43.2897 92.8089 43.0824 92.9867 42.9092 93.2236C42.736 93.4606 42.6016 93.75 42.5059 94.0918C42.4102 94.4336 42.3623 94.8278 42.3623 95.2744V95.5615C42.3623 95.9124 42.4102 96.2428 42.5059 96.5527C42.6061 96.8581 42.7497 97.127 42.9365 97.3594C43.1279 97.5918 43.3581 97.7741 43.627 97.9062C43.9004 98.0384 44.2103 98.1045 44.5566 98.1045C45.0033 98.1045 45.3815 98.0133 45.6914 97.8311C46.0013 97.6488 46.2725 97.4049 46.5049 97.0996L47.2705 97.708C47.111 97.9495 46.9082 98.1797 46.6621 98.3984C46.416 98.6172 46.113 98.7949 45.7529 98.9316C45.3975 99.0684 44.9759 99.1367 44.4883 99.1367ZM53.2041 97.7354V93.9277C53.2041 93.6361 53.1449 93.3831 53.0264 93.1689C52.9124 92.9502 52.7393 92.7816 52.5068 92.6631C52.2744 92.5446 51.9873 92.4854 51.6455 92.4854C51.3265 92.4854 51.0462 92.54 50.8047 92.6494C50.5677 92.7588 50.3809 92.9023 50.2441 93.0801C50.112 93.2578 50.0459 93.4492 50.0459 93.6543H48.7812C48.7812 93.39 48.8496 93.1279 48.9863 92.8682C49.123 92.6084 49.319 92.3737 49.5742 92.1641C49.834 91.9499 50.1439 91.7812 50.5039 91.6582C50.8685 91.5306 51.2741 91.4668 51.7207 91.4668C52.2585 91.4668 52.7324 91.5579 53.1426 91.7402C53.5573 91.9225 53.8809 92.1982 54.1133 92.5674C54.3503 92.932 54.4688 93.39 54.4688 93.9414V97.3867C54.4688 97.6328 54.4893 97.8949 54.5303 98.1729C54.5758 98.4508 54.6419 98.6901 54.7285 98.8906V99H53.4092C53.3454 98.8542 53.2952 98.6605 53.2588 98.4189C53.2223 98.1729 53.2041 97.945 53.2041 97.7354ZM53.4229 94.5156L53.4365 95.4043H52.1582C51.7982 95.4043 51.4769 95.4339 51.1943 95.4932C50.9118 95.5479 50.6748 95.6322 50.4834 95.7461C50.292 95.86 50.1462 96.0036 50.0459 96.1768C49.9456 96.3454 49.8955 96.5436 49.8955 96.7715C49.8955 97.0039 49.9479 97.2158 50.0527 97.4072C50.1576 97.5986 50.3148 97.7513 50.5244 97.8652C50.7386 97.9746 51.0007 98.0293 51.3105 98.0293C51.6979 98.0293 52.0397 97.9473 52.3359 97.7832C52.6322 97.6191 52.8669 97.4186 53.04 97.1816C53.2178 96.9447 53.3135 96.7145 53.3271 96.4912L53.8672 97.0996C53.8353 97.291 53.7487 97.5029 53.6074 97.7354C53.4661 97.9678 53.277 98.1911 53.04 98.4053C52.8076 98.6149 52.5296 98.7904 52.2061 98.9316C51.887 99.0684 51.527 99.1367 51.126 99.1367C50.6247 99.1367 50.1849 99.0387 49.8066 98.8428C49.4329 98.6468 49.1413 98.3848 48.9316 98.0566C48.7266 97.724 48.624 97.3525 48.624 96.9424C48.624 96.5459 48.7015 96.1973 48.8564 95.8965C49.0114 95.5911 49.2347 95.3382 49.5264 95.1377C49.818 94.9326 50.1689 94.7777 50.5791 94.6729C50.9893 94.568 51.4473 94.5156 51.9531 94.5156H53.4229ZM60.7646 97.0381C60.7646 96.8558 60.7236 96.6872 60.6416 96.5322C60.5641 96.3727 60.4023 96.2292 60.1562 96.1016C59.9147 95.9694 59.5501 95.8555 59.0625 95.7598C58.6523 95.6732 58.2809 95.5706 57.9482 95.4521C57.6201 95.3337 57.3398 95.1901 57.1074 95.0215C56.8796 94.8529 56.7041 94.6546 56.5811 94.4268C56.458 94.1989 56.3965 93.9323 56.3965 93.627C56.3965 93.3353 56.4603 93.0596 56.5879 92.7998C56.7201 92.54 56.9046 92.3099 57.1416 92.1094C57.3831 91.9089 57.6725 91.7516 58.0098 91.6377C58.347 91.5238 58.723 91.4668 59.1377 91.4668C59.7301 91.4668 60.236 91.5716 60.6553 91.7812C61.0745 91.9909 61.3958 92.2712 61.6191 92.6221C61.8424 92.9684 61.9541 93.3535 61.9541 93.7773H60.6895C60.6895 93.5723 60.6279 93.374 60.5049 93.1826C60.3864 92.9867 60.2109 92.8249 59.9785 92.6973C59.7507 92.5697 59.4704 92.5059 59.1377 92.5059C58.7868 92.5059 58.502 92.5605 58.2832 92.6699C58.069 92.7747 57.9118 92.9092 57.8115 93.0732C57.7158 93.2373 57.668 93.4105 57.668 93.5928C57.668 93.7295 57.6908 93.8525 57.7363 93.9619C57.7865 94.0667 57.873 94.1647 57.9961 94.2559C58.1191 94.3424 58.2923 94.4245 58.5156 94.502C58.7389 94.5794 59.0238 94.6569 59.3701 94.7344C59.9762 94.8711 60.4753 95.0352 60.8672 95.2266C61.2591 95.418 61.5508 95.6527 61.7422 95.9307C61.9336 96.2087 62.0293 96.5459 62.0293 96.9424C62.0293 97.266 61.9609 97.5622 61.8242 97.8311C61.6921 98.0999 61.4984 98.3324 61.2432 98.5283C60.9925 98.7197 60.6917 98.8701 60.3408 98.9795C59.9945 99.0843 59.6048 99.1367 59.1719 99.1367C58.5202 99.1367 57.9688 99.0205 57.5176 98.7881C57.0664 98.5557 56.7246 98.2549 56.4922 97.8857C56.2598 97.5166 56.1436 97.127 56.1436 96.7168H57.415C57.4333 97.0632 57.5335 97.3389 57.7158 97.5439C57.8981 97.7445 58.1214 97.888 58.3857 97.9746C58.6501 98.0566 58.9121 98.0977 59.1719 98.0977C59.5182 98.0977 59.8076 98.0521 60.04 97.9609C60.277 97.8698 60.457 97.7445 60.5801 97.585C60.7031 97.4255 60.7646 97.2432 60.7646 97.0381ZM66.7598 99.1367C66.2448 99.1367 65.7777 99.0501 65.3584 98.877C64.9437 98.6992 64.5859 98.4508 64.2852 98.1318C63.9889 97.8128 63.7611 97.4346 63.6016 96.9971C63.4421 96.5596 63.3623 96.0811 63.3623 95.5615V95.2744C63.3623 94.6729 63.4512 94.1374 63.6289 93.668C63.8066 93.194 64.0482 92.793 64.3535 92.4648C64.6589 92.1367 65.0052 91.8883 65.3926 91.7197C65.7799 91.5511 66.181 91.4668 66.5957 91.4668C67.1243 91.4668 67.5801 91.5579 67.9629 91.7402C68.3503 91.9225 68.667 92.1777 68.9131 92.5059C69.1592 92.8294 69.3415 93.2122 69.46 93.6543C69.5785 94.0918 69.6377 94.5703 69.6377 95.0898V95.6572H64.1143V94.625H68.373V94.5293C68.3548 94.2012 68.2865 93.8822 68.168 93.5723C68.054 93.2624 67.8717 93.0072 67.6211 92.8066C67.3704 92.6061 67.0286 92.5059 66.5957 92.5059C66.3086 92.5059 66.0443 92.5674 65.8027 92.6904C65.5612 92.8089 65.3538 92.9867 65.1807 93.2236C65.0075 93.4606 64.873 93.75 64.7773 94.0918C64.6816 94.4336 64.6338 94.8278 64.6338 95.2744V95.5615C64.6338 95.9124 64.6816 96.2428 64.7773 96.5527C64.8776 96.8581 65.0212 97.127 65.208 97.3594C65.3994 97.5918 65.6296 97.7741 65.8984 97.9062C66.1719 98.0384 66.4818 98.1045 66.8281 98.1045C67.2747 98.1045 67.653 98.0133 67.9629 97.8311C68.2728 97.6488 68.5439 97.4049 68.7764 97.0996L69.542 97.708C69.3825 97.9495 69.1797 98.1797 68.9336 98.3984C68.6875 98.6172 68.3844 98.7949 68.0244 98.9316C67.6689 99.0684 67.2474 99.1367 66.7598 99.1367Z" fill="#172B4D"/>
<rect width="360" height="32" transform="translate(5 110)" fill="white"/>
<path d="M27.46 128.484C27.46 128.252 27.4235 128.047 27.3506 127.869C27.2822 127.687 27.1592 127.523 26.9814 127.377C26.8083 127.231 26.5667 127.092 26.2568 126.96C25.9515 126.828 25.5641 126.693 25.0947 126.557C24.6025 126.411 24.1582 126.249 23.7617 126.071C23.3652 125.889 23.0257 125.682 22.7432 125.449C22.4606 125.217 22.2441 124.95 22.0938 124.649C21.9434 124.349 21.8682 124.005 21.8682 123.617C21.8682 123.23 21.9479 122.872 22.1074 122.544C22.2669 122.216 22.4948 121.931 22.791 121.689C23.0918 121.443 23.4495 121.252 23.8643 121.115C24.279 120.979 24.7415 120.91 25.252 120.91C25.9993 120.91 26.6328 121.054 27.1523 121.341C27.6764 121.623 28.0752 121.995 28.3486 122.455C28.6221 122.911 28.7588 123.398 28.7588 123.918H27.4463C27.4463 123.544 27.3665 123.214 27.207 122.927C27.0475 122.635 26.806 122.407 26.4824 122.243C26.1589 122.075 25.7487 121.99 25.252 121.99C24.7826 121.99 24.3952 122.061 24.0898 122.202C23.7845 122.343 23.5566 122.535 23.4062 122.776C23.2604 123.018 23.1875 123.294 23.1875 123.604C23.1875 123.813 23.2308 124.005 23.3174 124.178C23.4085 124.346 23.5475 124.504 23.7344 124.649C23.9258 124.795 24.1673 124.93 24.459 125.053C24.7552 125.176 25.1084 125.294 25.5186 125.408C26.0837 125.568 26.5713 125.745 26.9814 125.941C27.3916 126.137 27.7288 126.358 27.9932 126.604C28.262 126.846 28.4603 127.122 28.5879 127.432C28.7201 127.737 28.7861 128.083 28.7861 128.471C28.7861 128.876 28.7041 129.243 28.54 129.571C28.376 129.899 28.1413 130.18 27.8359 130.412C27.5306 130.645 27.1637 130.825 26.7354 130.952C26.3115 131.075 25.8376 131.137 25.3135 131.137C24.8532 131.137 24.3997 131.073 23.9531 130.945C23.5111 130.818 23.1077 130.626 22.7432 130.371C22.3831 130.116 22.0938 129.801 21.875 129.428C21.6608 129.049 21.5537 128.612 21.5537 128.115H22.8662C22.8662 128.457 22.9323 128.751 23.0645 128.997C23.1966 129.239 23.3766 129.439 23.6045 129.599C23.8369 129.758 24.099 129.877 24.3906 129.954C24.6868 130.027 24.9945 130.063 25.3135 130.063C25.7738 130.063 26.1634 130 26.4824 129.872C26.8014 129.744 27.043 129.562 27.207 129.325C27.3757 129.088 27.46 128.808 27.46 128.484ZM31.541 125.025V133.844H30.2695V123.604H31.4316L31.541 125.025ZM36.5244 127.24V127.384C36.5244 127.922 36.4606 128.421 36.333 128.881C36.2054 129.337 36.0186 129.733 35.7725 130.07C35.5309 130.408 35.2324 130.67 34.877 130.856C34.5215 131.043 34.1136 131.137 33.6533 131.137C33.1839 131.137 32.7692 131.059 32.4092 130.904C32.0492 130.749 31.7438 130.524 31.4932 130.228C31.2425 129.931 31.042 129.576 30.8916 129.161C30.7458 128.746 30.6455 128.279 30.5908 127.76V126.994C30.6455 126.447 30.748 125.957 30.8984 125.524C31.0488 125.091 31.2471 124.722 31.4932 124.417C31.7438 124.107 32.0469 123.872 32.4023 123.713C32.7578 123.549 33.168 123.467 33.6328 123.467C34.0977 123.467 34.5101 123.558 34.8701 123.74C35.2301 123.918 35.5332 124.173 35.7793 124.506C36.0254 124.839 36.21 125.237 36.333 125.702C36.4606 126.162 36.5244 126.675 36.5244 127.24ZM35.2529 127.384V127.24C35.2529 126.871 35.2142 126.525 35.1367 126.201C35.0592 125.873 34.9385 125.586 34.7744 125.34C34.6149 125.089 34.4098 124.893 34.1592 124.752C33.9085 124.606 33.61 124.533 33.2637 124.533C32.9447 124.533 32.6667 124.588 32.4297 124.697C32.1973 124.807 31.999 124.955 31.835 125.142C31.6709 125.324 31.5365 125.534 31.4316 125.771C31.3314 126.003 31.2562 126.244 31.2061 126.495V128.266C31.2972 128.585 31.4248 128.885 31.5889 129.168C31.7529 129.446 31.9717 129.672 32.2451 129.845C32.5186 130.013 32.8626 130.098 33.2773 130.098C33.6191 130.098 33.9131 130.027 34.1592 129.886C34.4098 129.74 34.6149 129.542 34.7744 129.291C34.9385 129.04 35.0592 128.753 35.1367 128.43C35.2142 128.102 35.2529 127.753 35.2529 127.384ZM39.4023 124.766V131H38.1377V123.604H39.3682L39.4023 124.766ZM41.7129 123.562L41.7061 124.738C41.6012 124.715 41.501 124.702 41.4053 124.697C41.3141 124.688 41.2093 124.684 41.0908 124.684C40.7992 124.684 40.5417 124.729 40.3184 124.82C40.0951 124.911 39.9059 125.039 39.751 125.203C39.596 125.367 39.473 125.563 39.3818 125.791C39.2952 126.014 39.2383 126.26 39.2109 126.529L38.8555 126.734C38.8555 126.288 38.8988 125.868 38.9854 125.477C39.0765 125.085 39.2155 124.738 39.4023 124.438C39.5892 124.132 39.8262 123.895 40.1133 123.727C40.4049 123.553 40.7513 123.467 41.1523 123.467C41.2435 123.467 41.3483 123.478 41.4668 123.501C41.5853 123.519 41.6673 123.54 41.7129 123.562ZM44.2559 123.604V131H42.9844V123.604H44.2559ZM42.8887 121.642C42.8887 121.437 42.9502 121.263 43.0732 121.122C43.2008 120.981 43.3877 120.91 43.6338 120.91C43.8753 120.91 44.0599 120.981 44.1875 121.122C44.3197 121.263 44.3857 121.437 44.3857 121.642C44.3857 121.838 44.3197 122.006 44.1875 122.147C44.0599 122.284 43.8753 122.353 43.6338 122.353C43.3877 122.353 43.2008 122.284 43.0732 122.147C42.9502 122.006 42.8887 121.838 42.8887 121.642ZM47.5508 125.183V131H46.2861V123.604H47.4824L47.5508 125.183ZM47.25 127.021L46.7236 127.001C46.7282 126.495 46.8034 126.028 46.9492 125.6C47.0951 125.167 47.3001 124.791 47.5645 124.472C47.8288 124.153 48.1432 123.907 48.5078 123.733C48.877 123.556 49.2848 123.467 49.7314 123.467C50.096 123.467 50.4242 123.517 50.7158 123.617C51.0075 123.713 51.2559 123.868 51.4609 124.082C51.6706 124.296 51.8301 124.574 51.9395 124.916C52.0488 125.253 52.1035 125.666 52.1035 126.153V131H50.832V126.14C50.832 125.752 50.7751 125.442 50.6611 125.21C50.5472 124.973 50.3809 124.802 50.1621 124.697C49.9434 124.588 49.6745 124.533 49.3555 124.533C49.041 124.533 48.7539 124.599 48.4941 124.731C48.2389 124.864 48.0179 125.046 47.8311 125.278C47.6488 125.511 47.5052 125.777 47.4004 126.078C47.3001 126.374 47.25 126.689 47.25 127.021ZM57.1211 123.604V124.574H53.1221V123.604H57.1211ZM54.4756 121.806H55.7402V129.168C55.7402 129.419 55.779 129.608 55.8564 129.735C55.9339 129.863 56.0342 129.947 56.1572 129.988C56.2803 130.029 56.4124 130.05 56.5537 130.05C56.6585 130.05 56.7679 130.041 56.8818 130.022C57.0003 130 57.0892 129.981 57.1484 129.968L57.1553 131C57.055 131.032 56.9229 131.062 56.7588 131.089C56.5993 131.121 56.4056 131.137 56.1777 131.137C55.8678 131.137 55.583 131.075 55.3232 130.952C55.0635 130.829 54.8561 130.624 54.7012 130.337C54.5508 130.045 54.4756 129.653 54.4756 129.161V121.806Z" fill="#172B4D"/>
<path d="M27.46 160.484C27.46 160.252 27.4235 160.047 27.3506 159.869C27.2822 159.687 27.1592 159.523 26.9814 159.377C26.8083 159.231 26.5667 159.092 26.2568 158.96C25.9515 158.828 25.5641 158.693 25.0947 158.557C24.6025 158.411 24.1582 158.249 23.7617 158.071C23.3652 157.889 23.0257 157.682 22.7432 157.449C22.4606 157.217 22.2441 156.95 22.0938 156.649C21.9434 156.349 21.8682 156.005 21.8682 155.617C21.8682 155.23 21.9479 154.872 22.1074 154.544C22.2669 154.216 22.4948 153.931 22.791 153.689C23.0918 153.443 23.4495 153.252 23.8643 153.115C24.279 152.979 24.7415 152.91 25.252 152.91C25.9993 152.91 26.6328 153.054 27.1523 153.341C27.6764 153.623 28.0752 153.995 28.3486 154.455C28.6221 154.911 28.7588 155.398 28.7588 155.918H27.4463C27.4463 155.544 27.3665 155.214 27.207 154.927C27.0475 154.635 26.806 154.407 26.4824 154.243C26.1589 154.075 25.7487 153.99 25.252 153.99C24.7826 153.99 24.3952 154.061 24.0898 154.202C23.7845 154.343 23.5566 154.535 23.4062 154.776C23.2604 155.018 23.1875 155.294 23.1875 155.604C23.1875 155.813 23.2308 156.005 23.3174 156.178C23.4085 156.346 23.5475 156.504 23.7344 156.649C23.9258 156.795 24.1673 156.93 24.459 157.053C24.7552 157.176 25.1084 157.294 25.5186 157.408C26.0837 157.568 26.5713 157.745 26.9814 157.941C27.3916 158.137 27.7288 158.358 27.9932 158.604C28.262 158.846 28.4603 159.122 28.5879 159.432C28.7201 159.737 28.7861 160.083 28.7861 160.471C28.7861 160.876 28.7041 161.243 28.54 161.571C28.376 161.899 28.1413 162.18 27.8359 162.412C27.5306 162.645 27.1637 162.825 26.7354 162.952C26.3115 163.075 25.8376 163.137 25.3135 163.137C24.8532 163.137 24.3997 163.073 23.9531 162.945C23.5111 162.818 23.1077 162.626 22.7432 162.371C22.3831 162.116 22.0938 161.801 21.875 161.428C21.6608 161.049 21.5537 160.612 21.5537 160.115H22.8662C22.8662 160.457 22.9323 160.751 23.0645 160.997C23.1966 161.239 23.3766 161.439 23.6045 161.599C23.8369 161.758 24.099 161.877 24.3906 161.954C24.6868 162.027 24.9945 162.063 25.3135 162.063C25.7738 162.063 26.1634 162 26.4824 161.872C26.8014 161.744 27.043 161.562 27.207 161.325C27.3757 161.088 27.46 160.808 27.46 160.484ZM32.1494 161.688L34.0498 155.604H34.8838L34.7197 156.813L32.7852 163H31.9717L32.1494 161.688ZM30.8711 155.604L32.4912 161.756L32.6074 163H31.7529L29.6064 155.604H30.8711ZM36.7021 161.708L38.2471 155.604H39.5049L37.3584 163H36.5107L36.7021 161.708ZM35.0684 155.604L36.9277 161.585L37.1396 163H36.333L34.3438 156.8L34.1797 155.604H35.0684ZM42.1777 155.604V163H40.9062V155.604H42.1777ZM40.8105 153.642C40.8105 153.437 40.8721 153.263 40.9951 153.122C41.1227 152.981 41.3096 152.91 41.5557 152.91C41.7972 152.91 41.9818 152.981 42.1094 153.122C42.2415 153.263 42.3076 153.437 42.3076 153.642C42.3076 153.838 42.2415 154.006 42.1094 154.147C41.9818 154.284 41.7972 154.353 41.5557 154.353C41.3096 154.353 41.1227 154.284 40.9951 154.147C40.8721 154.006 40.8105 153.838 40.8105 153.642ZM45.4658 157.073V163H44.1943V155.604H45.3975L45.4658 157.073ZM45.2061 159.021L44.6182 159.001C44.6227 158.495 44.6888 158.028 44.8164 157.6C44.944 157.167 45.1331 156.791 45.3838 156.472C45.6344 156.153 45.9466 155.907 46.3203 155.733C46.694 155.556 47.127 155.467 47.6191 155.467C47.9655 155.467 48.2845 155.517 48.5762 155.617C48.8678 155.713 49.1208 155.866 49.335 156.075C49.5492 156.285 49.7155 156.554 49.834 156.882C49.9525 157.21 50.0117 157.606 50.0117 158.071V163H48.7471V158.133C48.7471 157.745 48.681 157.436 48.5488 157.203C48.4212 156.971 48.2389 156.802 48.002 156.697C47.765 156.588 47.487 156.533 47.168 156.533C46.7943 156.533 46.4821 156.599 46.2314 156.731C45.9808 156.864 45.7803 157.046 45.6299 157.278C45.4795 157.511 45.3701 157.777 45.3018 158.078C45.238 158.374 45.2061 158.689 45.2061 159.021ZM49.998 158.324L49.1504 158.584C49.1549 158.178 49.221 157.789 49.3486 157.415C49.4808 157.041 49.6699 156.709 49.916 156.417C50.1667 156.125 50.4743 155.895 50.8389 155.727C51.2035 155.553 51.6204 155.467 52.0898 155.467C52.4863 155.467 52.8372 155.519 53.1426 155.624C53.4525 155.729 53.7122 155.891 53.9219 156.109C54.1361 156.324 54.2979 156.599 54.4072 156.937C54.5166 157.274 54.5713 157.675 54.5713 158.14V163H53.2998V158.126C53.2998 157.711 53.2337 157.39 53.1016 157.162C52.974 156.93 52.7917 156.768 52.5547 156.677C52.3223 156.581 52.0443 156.533 51.7207 156.533C51.4427 156.533 51.1966 156.581 50.9824 156.677C50.7682 156.772 50.5882 156.905 50.4424 157.073C50.2965 157.237 50.1849 157.426 50.1074 157.641C50.0345 157.855 49.998 158.083 49.998 158.324ZM57.8594 152.5V163H56.5879V152.5H57.8594ZM64.251 161.735V157.928C64.251 157.636 64.1917 157.383 64.0732 157.169C63.9593 156.95 63.7861 156.782 63.5537 156.663C63.3213 156.545 63.0342 156.485 62.6924 156.485C62.3734 156.485 62.0931 156.54 61.8516 156.649C61.6146 156.759 61.4277 156.902 61.291 157.08C61.1589 157.258 61.0928 157.449 61.0928 157.654H59.8281C59.8281 157.39 59.8965 157.128 60.0332 156.868C60.1699 156.608 60.3659 156.374 60.6211 156.164C60.8809 155.95 61.1908 155.781 61.5508 155.658C61.9154 155.531 62.321 155.467 62.7676 155.467C63.3053 155.467 63.7793 155.558 64.1895 155.74C64.6042 155.923 64.9277 156.198 65.1602 156.567C65.3971 156.932 65.5156 157.39 65.5156 157.941V161.387C65.5156 161.633 65.5361 161.895 65.5771 162.173C65.6227 162.451 65.6888 162.69 65.7754 162.891V163H64.4561C64.3923 162.854 64.3421 162.66 64.3057 162.419C64.2692 162.173 64.251 161.945 64.251 161.735ZM64.4697 158.516L64.4834 159.404H63.2051C62.8451 159.404 62.5238 159.434 62.2412 159.493C61.9587 159.548 61.7217 159.632 61.5303 159.746C61.3389 159.86 61.193 160.004 61.0928 160.177C60.9925 160.345 60.9424 160.544 60.9424 160.771C60.9424 161.004 60.9948 161.216 61.0996 161.407C61.2044 161.599 61.3617 161.751 61.5713 161.865C61.7855 161.975 62.0475 162.029 62.3574 162.029C62.7448 162.029 63.0866 161.947 63.3828 161.783C63.679 161.619 63.9137 161.419 64.0869 161.182C64.2646 160.945 64.3604 160.715 64.374 160.491L64.9141 161.1C64.8822 161.291 64.7956 161.503 64.6543 161.735C64.513 161.968 64.3239 162.191 64.0869 162.405C63.8545 162.615 63.5765 162.79 63.2529 162.932C62.9339 163.068 62.5739 163.137 62.1729 163.137C61.6715 163.137 61.2318 163.039 60.8535 162.843C60.4798 162.647 60.1882 162.385 59.9785 162.057C59.7734 161.724 59.6709 161.353 59.6709 160.942C59.6709 160.546 59.7484 160.197 59.9033 159.896C60.0583 159.591 60.2816 159.338 60.5732 159.138C60.8649 158.933 61.2158 158.778 61.626 158.673C62.0361 158.568 62.4941 158.516 63 158.516H64.4697ZM68.7695 157.183V163H67.5049V155.604H68.7012L68.7695 157.183ZM68.4688 159.021L67.9424 159.001C67.9469 158.495 68.0221 158.028 68.168 157.6C68.3138 157.167 68.5189 156.791 68.7832 156.472C69.0475 156.153 69.362 155.907 69.7266 155.733C70.0957 155.556 70.5036 155.467 70.9502 155.467C71.3148 155.467 71.6429 155.517 71.9346 155.617C72.2262 155.713 72.4746 155.868 72.6797 156.082C72.8893 156.296 73.0488 156.574 73.1582 156.916C73.2676 157.253 73.3223 157.666 73.3223 158.153V163H72.0508V158.14C72.0508 157.752 71.9938 157.442 71.8799 157.21C71.766 156.973 71.5996 156.802 71.3809 156.697C71.1621 156.588 70.8932 156.533 70.5742 156.533C70.2598 156.533 69.9727 156.599 69.7129 156.731C69.4577 156.864 69.2367 157.046 69.0498 157.278C68.8675 157.511 68.724 157.777 68.6191 158.078C68.5189 158.374 68.4688 158.689 68.4688 159.021ZM78.3125 163.137C77.7975 163.137 77.3304 163.05 76.9111 162.877C76.4964 162.699 76.1387 162.451 75.8379 162.132C75.5417 161.813 75.3138 161.435 75.1543 160.997C74.9948 160.56 74.915 160.081 74.915 159.562V159.274C74.915 158.673 75.0039 158.137 75.1816 157.668C75.3594 157.194 75.6009 156.793 75.9062 156.465C76.2116 156.137 76.5579 155.888 76.9453 155.72C77.3327 155.551 77.7337 155.467 78.1484 155.467C78.6771 155.467 79.1328 155.558 79.5156 155.74C79.903 155.923 80.2197 156.178 80.4658 156.506C80.7119 156.829 80.8942 157.212 81.0127 157.654C81.1312 158.092 81.1904 158.57 81.1904 159.09V159.657H75.667V158.625H79.9258V158.529C79.9076 158.201 79.8392 157.882 79.7207 157.572C79.6068 157.262 79.4245 157.007 79.1738 156.807C78.9232 156.606 78.5814 156.506 78.1484 156.506C77.8613 156.506 77.597 156.567 77.3555 156.69C77.1139 156.809 76.9066 156.987 76.7334 157.224C76.5602 157.461 76.4258 157.75 76.3301 158.092C76.2344 158.434 76.1865 158.828 76.1865 159.274V159.562C76.1865 159.912 76.2344 160.243 76.3301 160.553C76.4303 160.858 76.5739 161.127 76.7607 161.359C76.9521 161.592 77.1823 161.774 77.4512 161.906C77.7246 162.038 78.0345 162.104 78.3809 162.104C78.8275 162.104 79.2057 162.013 79.5156 161.831C79.8255 161.649 80.0967 161.405 80.3291 161.1L81.0947 161.708C80.9352 161.95 80.7324 162.18 80.4863 162.398C80.2402 162.617 79.9372 162.795 79.5771 162.932C79.2217 163.068 78.8001 163.137 78.3125 163.137Z" fill="#172B4D"/>
</g>
</g>
<defs>
<filter id="filter0_dd_1974_726" x="0" y="36" width="245" height="154" filterUnits="userSpaceOnUse" color-interpolation-filters="sRGB">
<feFlood flood-opacity="0" result="BackgroundImageFix"/>
<feColorMatrix in="SourceAlpha" type="matrix" values="0 0 0 0 0 0 0 0 0 0 0 0 0 0 0 0 0 0 127 0" result="hardAlpha"/>
<feOffset/>
<feGaussianBlur stdDeviation="0.5"/>
<feColorMatrix type="matrix" values="0 0 0 0 0.0352941 0 0 0 0 0.117647 0 0 0 0 0.258824 0 0 0 0.31 0"/>
<feBlend mode="normal" in2="BackgroundImageFix" result="effect1_dropShadow_1974_726"/>
<feColorMatrix in="SourceAlpha" type="matrix" values="0 0 0 0 0 0 0 0 0 0 0 0 0 0 0 0 0 0 127 0" result="hardAlpha"/>
<feOffset dy="3"/>
<feGaussianBlur stdDeviation="2.5"/>
<feColorMatrix type="matrix" values="0 0 0 0 0.0352941 0 0 0 0 0.117647 0 0 0 0 0.258824 0 0 0 0.2 0"/>
<feBlend mode="normal" in2="effect1_dropShadow_1974_726" result="effect2_dropShadow_1974_726"/>
<feBlend mode="normal" in="SourceGraphic" in2="effect2_dropShadow_1974_726" result="shape"/>
</filter>
<clipPath id="clip0_1974_726">
<rect x="5" y="38" width="235" height="144" rx="3" fill="white"/>
</clipPath>
</defs>
</svg>
