<svg width="744" height="406" viewBox="0 0 744 406" fill="none" xmlns="http://www.w3.org/2000/svg">
<rect x="251" y="117" width="241" height="261" fill="#F2F2F2"/>
<rect x="500" y="117" width="244" height="261" fill="#F2F2F2"/>
<path d="M356.606 252.76C356.506 253.822 356.114 254.651 355.431 255.248C354.747 255.84 353.838 256.137 352.703 256.137C351.91 256.137 351.211 255.95 350.604 255.576C350.003 255.198 349.538 254.662 349.21 253.97C348.882 253.277 348.711 252.473 348.697 251.557V250.627C348.697 249.688 348.864 248.861 349.196 248.146C349.529 247.43 350.005 246.879 350.625 246.491C351.249 246.104 351.969 245.91 352.785 245.91C353.883 245.91 354.768 246.209 355.438 246.806C356.107 247.403 356.497 248.246 356.606 249.335H354.884C354.802 248.619 354.592 248.104 354.255 247.79C353.922 247.471 353.432 247.312 352.785 247.312C352.033 247.312 351.454 247.587 351.049 248.139C350.648 248.686 350.443 249.49 350.434 250.552V251.434C350.434 252.509 350.625 253.329 351.008 253.895C351.395 254.46 351.96 254.742 352.703 254.742C353.382 254.742 353.893 254.59 354.234 254.284C354.576 253.979 354.793 253.471 354.884 252.76H356.606ZM361.87 250.121C361.651 250.085 361.426 250.066 361.193 250.066C360.432 250.066 359.92 250.358 359.655 250.941V256H357.994V248.604H359.58L359.621 249.431C360.022 248.788 360.578 248.467 361.289 248.467C361.526 248.467 361.722 248.499 361.877 248.562L361.87 250.121ZM366.04 256.137C364.987 256.137 364.133 255.806 363.477 255.146C362.825 254.48 362.499 253.596 362.499 252.493V252.288C362.499 251.55 362.64 250.891 362.923 250.312C363.21 249.729 363.611 249.276 364.126 248.952C364.641 248.629 365.215 248.467 365.849 248.467C366.856 248.467 367.633 248.788 368.18 249.431C368.731 250.073 369.007 250.982 369.007 252.158V252.828H364.174C364.224 253.439 364.427 253.922 364.782 254.277C365.142 254.633 365.593 254.811 366.136 254.811C366.897 254.811 367.517 254.503 367.995 253.888L368.891 254.742C368.594 255.184 368.198 255.528 367.701 255.774C367.209 256.016 366.655 256.137 366.04 256.137ZM365.842 249.8C365.386 249.8 365.017 249.959 364.734 250.278C364.456 250.597 364.279 251.042 364.201 251.611H367.366V251.488C367.33 250.932 367.182 250.513 366.922 250.23C366.662 249.943 366.302 249.8 365.842 249.8ZM374.722 256C374.649 255.859 374.585 255.629 374.53 255.31C374.002 255.861 373.354 256.137 372.589 256.137C371.846 256.137 371.24 255.925 370.771 255.501C370.301 255.077 370.066 254.553 370.066 253.929C370.066 253.14 370.358 252.536 370.941 252.117C371.529 251.693 372.368 251.481 373.457 251.481H374.476V250.996C374.476 250.613 374.368 250.308 374.154 250.08C373.94 249.848 373.614 249.731 373.177 249.731C372.799 249.731 372.489 249.827 372.247 250.019C372.006 250.205 371.885 250.445 371.885 250.736H370.224C370.224 250.331 370.358 249.952 370.627 249.602C370.896 249.246 371.26 248.968 371.721 248.768C372.186 248.567 372.703 248.467 373.272 248.467C374.138 248.467 374.829 248.686 375.344 249.123C375.859 249.556 376.123 250.167 376.137 250.955V254.291C376.137 254.956 376.23 255.487 376.417 255.884V256H374.722ZM372.896 254.804C373.225 254.804 373.532 254.724 373.819 254.564C374.111 254.405 374.33 254.191 374.476 253.922V252.527H373.58C372.965 252.527 372.502 252.634 372.192 252.849C371.882 253.063 371.728 253.366 371.728 253.758C371.728 254.077 371.832 254.332 372.042 254.523C372.256 254.71 372.541 254.804 372.896 254.804ZM379.958 246.806V248.604H381.264V249.834H379.958V253.963C379.958 254.245 380.013 254.451 380.122 254.578C380.236 254.701 380.437 254.763 380.724 254.763C380.915 254.763 381.109 254.74 381.305 254.694V255.979C380.926 256.084 380.562 256.137 380.211 256.137C378.935 256.137 378.297 255.433 378.297 254.024V249.834H377.08V248.604H378.297V246.806H379.958ZM385.796 256.137C384.743 256.137 383.889 255.806 383.232 255.146C382.581 254.48 382.255 253.596 382.255 252.493V252.288C382.255 251.55 382.396 250.891 382.679 250.312C382.966 249.729 383.367 249.276 383.882 248.952C384.397 248.629 384.971 248.467 385.604 248.467C386.612 248.467 387.389 248.788 387.936 249.431C388.487 250.073 388.763 250.982 388.763 252.158V252.828H383.93C383.98 253.439 384.183 253.922 384.538 254.277C384.898 254.633 385.349 254.811 385.892 254.811C386.653 254.811 387.272 254.503 387.751 253.888L388.646 254.742C388.35 255.184 387.954 255.528 387.457 255.774C386.965 256.016 386.411 256.137 385.796 256.137ZM385.598 249.8C385.142 249.8 384.773 249.959 384.49 250.278C384.212 250.597 384.035 251.042 383.957 251.611H387.122V251.488C387.086 250.932 386.938 250.513 386.678 250.23C386.418 249.943 386.058 249.8 385.598 249.8ZM395.53 256H393.808V246.047H395.53V256ZM401.642 253.99C401.642 253.694 401.519 253.468 401.272 253.313C401.031 253.159 400.628 253.022 400.062 252.903C399.497 252.785 399.026 252.634 398.647 252.452C397.818 252.051 397.403 251.47 397.403 250.709C397.403 250.071 397.672 249.538 398.21 249.109C398.748 248.681 399.431 248.467 400.261 248.467C401.145 248.467 401.858 248.686 402.4 249.123C402.947 249.561 403.221 250.128 403.221 250.825H401.56C401.56 250.506 401.441 250.242 401.204 250.032C400.967 249.818 400.653 249.711 400.261 249.711C399.896 249.711 399.598 249.795 399.365 249.964C399.137 250.132 399.023 250.358 399.023 250.641C399.023 250.896 399.131 251.094 399.345 251.235C399.559 251.377 399.992 251.52 400.644 251.666C401.295 251.807 401.806 251.978 402.175 252.179C402.549 252.375 402.824 252.612 403.002 252.89C403.184 253.168 403.275 253.505 403.275 253.901C403.275 254.567 403 255.107 402.448 255.521C401.897 255.932 401.174 256.137 400.281 256.137C399.675 256.137 399.135 256.027 398.661 255.809C398.187 255.59 397.818 255.289 397.554 254.906C397.289 254.523 397.157 254.111 397.157 253.669H398.771C398.793 254.061 398.941 254.364 399.215 254.578C399.488 254.788 399.851 254.893 400.302 254.893C400.739 254.893 401.072 254.811 401.3 254.646C401.528 254.478 401.642 254.259 401.642 253.99ZM408.874 253.99C408.874 253.694 408.751 253.468 408.505 253.313C408.263 253.159 407.86 253.022 407.295 252.903C406.73 252.785 406.258 252.634 405.88 252.452C405.05 252.051 404.636 251.47 404.636 250.709C404.636 250.071 404.905 249.538 405.442 249.109C405.98 248.681 406.664 248.467 407.493 248.467C408.377 248.467 409.09 248.686 409.633 249.123C410.18 249.561 410.453 250.128 410.453 250.825H408.792C408.792 250.506 408.674 250.242 408.437 250.032C408.2 249.818 407.885 249.711 407.493 249.711C407.129 249.711 406.83 249.795 406.598 249.964C406.37 250.132 406.256 250.358 406.256 250.641C406.256 250.896 406.363 251.094 406.577 251.235C406.791 251.377 407.224 251.52 407.876 251.666C408.528 251.807 409.038 251.978 409.407 252.179C409.781 252.375 410.057 252.612 410.234 252.89C410.417 253.168 410.508 253.505 410.508 253.901C410.508 254.567 410.232 255.107 409.681 255.521C409.129 255.932 408.407 256.137 407.514 256.137C406.908 256.137 406.368 256.027 405.894 255.809C405.42 255.59 405.05 255.289 404.786 254.906C404.522 254.523 404.39 254.111 404.39 253.669H406.003C406.026 254.061 406.174 254.364 406.447 254.578C406.721 254.788 407.083 254.893 407.534 254.893C407.972 254.893 408.304 254.811 408.532 254.646C408.76 254.478 408.874 254.259 408.874 253.99ZM416.441 255.275C415.954 255.85 415.261 256.137 414.363 256.137C413.561 256.137 412.953 255.902 412.538 255.433C412.128 254.963 411.923 254.284 411.923 253.396V248.604H413.584V253.375C413.584 254.314 413.974 254.783 414.753 254.783C415.56 254.783 416.104 254.494 416.387 253.915V248.604H418.048V256H416.482L416.441 255.275ZM422.997 256.137C421.944 256.137 421.09 255.806 420.434 255.146C419.782 254.48 419.456 253.596 419.456 252.493V252.288C419.456 251.55 419.597 250.891 419.88 250.312C420.167 249.729 420.568 249.276 421.083 248.952C421.598 248.629 422.172 248.467 422.806 248.467C423.813 248.467 424.59 248.788 425.137 249.431C425.688 250.073 425.964 250.982 425.964 252.158V252.828H421.131C421.181 253.439 421.384 253.922 421.739 254.277C422.099 254.633 422.55 254.811 423.093 254.811C423.854 254.811 424.474 254.503 424.952 253.888L425.848 254.742C425.551 255.184 425.155 255.528 424.658 255.774C424.166 256.016 423.612 256.137 422.997 256.137ZM422.799 249.8C422.343 249.8 421.974 249.959 421.691 250.278C421.413 250.597 421.236 251.042 421.158 251.611H424.323V251.488C424.287 250.932 424.139 250.513 423.879 250.23C423.619 249.943 423.259 249.8 422.799 249.8Z" fill="#42526E"/>
<path fill-rule="evenodd" clip-rule="evenodd" d="M334 260C338.971 260 343 255.971 343 251C343 246.029 338.971 242 334 242C329.029 242 325 246.029 325 251C325 255.971 329.029 260 334 260ZM333.046 246.958V250.046H329.958C329.43 250.046 329 250.47 329 251C329 251.526 329.43 251.954 329.958 251.954H333.046V255.042C333.046 255.57 333.47 256 334 256C334.526 256 334.954 255.57 334.954 255.042V251.954H338.042C338.571 251.954 339 251.53 339 251C339 250.474 338.57 250.046 338.042 250.046H334.954V246.958C334.954 246.429 334.53 246 334 246C333.474 246 333.046 246.43 333.046 246.958Z" fill="#42526E"/>
<mask id="mask0" mask-type="alpha" maskUnits="userSpaceOnUse" x="325" y="242" width="18" height="18">
<path fill-rule="evenodd" clip-rule="evenodd" d="M334 260C338.971 260 343 255.971 343 251C343 246.029 338.971 242 334 242C329.029 242 325 246.029 325 251C325 255.971 329.029 260 334 260ZM333.046 246.958V250.046H329.958C329.43 250.046 329 250.47 329 251C329 251.526 329.43 251.954 329.958 251.954H333.046V255.042C333.046 255.57 333.47 256 334 256C334.526 256 334.954 255.57 334.954 255.042V251.954H338.042C338.571 251.954 339 251.53 339 251C339 250.474 338.57 250.046 338.042 250.046H334.954V246.958C334.954 246.429 334.53 246 334 246C333.474 246 333.046 246.43 333.046 246.958Z" fill="white"/>
</mask>
<g mask="url(#mask0)">
<path fill-rule="evenodd" clip-rule="evenodd" d="M322 263H346V239H322V263Z" fill="#42526E"/>
</g>
<g filter="url(#filter0_d)">
<g clip-path="url(#clip0)">
<g filter="url(#filter1_dd)">
<path fill-rule="evenodd" clip-rule="evenodd" d="M511 223C509.343 223 508 224.343 508 226V304C508 305.657 509.343 307 511 307H731C732.657 307 734 305.657 734 304V226C734 224.343 732.657 223 731 223H511Z" fill="#FAFAFA"/>
</g>
<path fill-rule="evenodd" clip-rule="evenodd" d="M660 276C658.343 276 657 277.343 657 279V289C657 290.657 658.343 292 660 292H715C716.657 292 718 290.657 718 289V279C718 277.343 716.657 276 715 276H660Z" fill="#DFE1E6"/>
<mask id="mask1" mask-type="alpha" maskUnits="userSpaceOnUse" x="657" y="276" width="61" height="16">
<path fill-rule="evenodd" clip-rule="evenodd" d="M660 276C658.343 276 657 277.343 657 279V289C657 290.657 658.343 292 660 292H715C716.657 292 718 290.657 718 289V279C718 277.343 716.657 276 715 276H660Z" fill="white"/>
</mask>
<g mask="url(#mask1)">
<path fill-rule="evenodd" clip-rule="evenodd" d="M657 292H718V276H657V292Z" fill="#42526E"/>
</g>
<path d="M678.213 281.485H675.818V288H674.207V281.485H671.843V280.18H678.213V281.485ZM685.411 284.267C685.411 285.037 685.275 285.712 685.002 286.292C684.73 286.872 684.34 287.32 683.832 287.635C683.327 287.95 682.747 288.107 682.091 288.107C681.443 288.107 680.865 287.952 680.356 287.64C679.848 287.329 679.454 286.885 679.175 286.308C678.896 285.728 678.754 285.062 678.75 284.31V283.923C678.75 283.153 678.888 282.477 679.164 281.893C679.443 281.306 679.835 280.856 680.34 280.545C680.849 280.23 681.429 280.072 682.081 280.072C682.732 280.072 683.311 280.23 683.815 280.545C684.324 280.856 684.716 281.306 684.992 281.893C685.271 282.477 685.411 283.152 685.411 283.918V284.267ZM683.778 283.913C683.778 283.093 683.631 282.47 683.337 282.043C683.044 281.617 682.625 281.404 682.081 281.404C681.54 281.404 681.123 281.616 680.829 282.038C680.535 282.457 680.387 283.073 680.383 283.886V284.267C680.383 285.066 680.53 285.685 680.824 286.125C681.117 286.566 681.54 286.786 682.091 286.786C682.632 286.786 683.047 286.575 683.337 286.152C683.627 285.726 683.774 285.107 683.778 284.294V283.913ZM689.321 288V280.18H691.727C692.415 280.18 693.029 280.335 693.569 280.647C694.114 280.955 694.538 281.395 694.842 281.968C695.147 282.538 695.299 283.186 695.299 283.913V284.272C695.299 284.999 695.148 285.646 694.848 286.211C694.55 286.777 694.13 287.216 693.585 287.527C693.041 287.839 692.427 287.996 691.743 288H689.321ZM690.932 281.485V286.706H691.711C692.341 286.706 692.823 286.5 693.156 286.088C693.489 285.676 693.659 285.087 693.666 284.321V283.907C693.666 283.112 693.501 282.511 693.172 282.103C692.842 281.691 692.361 281.485 691.727 281.485H690.932ZM702.899 284.267C702.899 285.037 702.763 285.712 702.491 286.292C702.219 286.872 701.828 287.32 701.32 287.635C700.815 287.95 700.235 288.107 699.58 288.107C698.931 288.107 698.353 287.952 697.845 287.64C697.336 287.329 696.942 286.885 696.663 286.308C696.384 285.728 696.242 285.062 696.239 284.31V283.923C696.239 283.153 696.377 282.477 696.652 281.893C696.932 281.306 697.324 280.856 697.829 280.545C698.337 280.23 698.917 280.072 699.569 280.072C700.221 280.072 700.799 280.23 701.304 280.545C701.812 280.856 702.204 281.306 702.48 281.893C702.759 282.477 702.899 283.152 702.899 283.918V284.267ZM701.266 283.913C701.266 283.093 701.119 282.47 700.826 282.043C700.532 281.617 700.113 281.404 699.569 281.404C699.028 281.404 698.611 281.616 698.317 282.038C698.024 282.457 697.875 283.073 697.872 283.886V284.267C697.872 285.066 698.018 285.685 698.312 286.125C698.606 286.566 699.028 286.786 699.58 286.786C700.12 286.786 700.536 286.575 700.826 286.152C701.116 285.726 701.263 285.107 701.266 284.294V283.913Z" fill="white"/>
<rect x="529" y="276" width="16" height="16" rx="2" fill="#36B37E"/>
<path fill-rule="evenodd" clip-rule="evenodd" d="M537 287L534.137 288.822C533.717 289.202 533 288.933 533 288.395V280.206C533 279.539 533.596 279 534.333 279H539.667C540.403 279 541 279.539 541 280.206V288.395C541 288.933 540.281 289.202 539.861 288.822L537 287ZM537 284.629L539 285.903V281H535V285.902L537 284.629Z" fill="white"/>
</g>
<rect x="508.5" y="223.5" width="225" height="83" rx="4.5" stroke="#DADADA"/>
<path d="M579.088 249.563C577.962 249.24 577.142 248.843 576.627 248.374C576.117 247.9 575.861 247.317 575.861 246.624C575.861 245.84 576.174 245.193 576.798 244.683C577.427 244.168 578.243 243.91 579.245 243.91C579.929 243.91 580.537 244.042 581.07 244.307C581.608 244.571 582.023 244.936 582.314 245.4C582.611 245.865 582.759 246.373 582.759 246.925H581.439C581.439 246.323 581.248 245.852 580.865 245.51C580.482 245.163 579.942 244.99 579.245 244.99C578.598 244.99 578.092 245.134 577.728 245.421C577.368 245.703 577.188 246.098 577.188 246.604C577.188 247.009 577.358 247.353 577.7 247.636C578.047 247.914 578.632 248.169 579.457 248.401C580.286 248.634 580.934 248.891 581.398 249.174C581.868 249.452 582.214 249.778 582.438 250.151C582.665 250.525 582.779 250.965 582.779 251.471C582.779 252.277 582.465 252.924 581.836 253.412C581.207 253.895 580.366 254.137 579.313 254.137C578.63 254.137 577.992 254.007 577.399 253.747C576.807 253.483 576.349 253.123 576.025 252.667C575.706 252.211 575.547 251.694 575.547 251.115H576.866C576.866 251.717 577.087 252.193 577.529 252.544C577.976 252.89 578.571 253.063 579.313 253.063C580.006 253.063 580.537 252.922 580.906 252.64C581.275 252.357 581.46 251.972 581.46 251.484C581.46 250.997 581.289 250.621 580.947 250.356C580.605 250.088 579.986 249.823 579.088 249.563ZM585.985 244.812V246.604H587.366V247.581H585.985V252.168C585.985 252.464 586.047 252.688 586.17 252.838C586.293 252.984 586.503 253.057 586.799 253.057C586.945 253.057 587.145 253.029 587.4 252.975V254C587.068 254.091 586.744 254.137 586.43 254.137C585.865 254.137 585.438 253.966 585.151 253.624C584.864 253.282 584.721 252.797 584.721 252.168V247.581H583.374V246.604H584.721V244.812H585.985ZM588.378 250.233C588.378 249.509 588.519 248.857 588.802 248.278C589.089 247.7 589.485 247.253 589.991 246.938C590.502 246.624 591.083 246.467 591.734 246.467C592.742 246.467 593.555 246.815 594.175 247.513C594.799 248.21 595.111 249.137 595.111 250.295V250.384C595.111 251.104 594.972 251.751 594.694 252.325C594.421 252.895 594.027 253.339 593.512 253.658C593.001 253.977 592.413 254.137 591.748 254.137C590.745 254.137 589.932 253.788 589.308 253.091C588.688 252.394 588.378 251.471 588.378 250.322V250.233ZM589.649 250.384C589.649 251.204 589.839 251.863 590.217 252.359C590.6 252.856 591.11 253.104 591.748 253.104C592.391 253.104 592.901 252.854 593.279 252.353C593.658 251.847 593.847 251.14 593.847 250.233C593.847 249.422 593.653 248.766 593.266 248.265C592.883 247.759 592.372 247.506 591.734 247.506C591.11 247.506 590.606 247.754 590.224 248.251C589.841 248.748 589.649 249.459 589.649 250.384ZM600.272 247.738C600.081 247.706 599.874 247.69 599.65 247.69C598.821 247.69 598.258 248.044 597.962 248.75V254H596.697V246.604H597.928L597.948 247.458C598.363 246.797 598.951 246.467 599.712 246.467C599.958 246.467 600.145 246.499 600.272 246.562V247.738ZM603.984 252.147L605.707 246.604H607.061L604.087 255.142C603.627 256.372 602.895 256.987 601.893 256.987L601.653 256.967L601.182 256.878V255.853L601.523 255.88C601.952 255.88 602.285 255.793 602.521 255.62C602.763 255.447 602.961 255.13 603.116 254.67L603.396 253.918L600.758 246.604H602.139L603.984 252.147ZM613.377 248.408H614.327C614.924 248.399 615.394 248.242 615.735 247.937C616.077 247.631 616.248 247.219 616.248 246.699C616.248 245.533 615.667 244.949 614.505 244.949C613.958 244.949 613.521 245.106 613.192 245.421C612.869 245.731 612.707 246.143 612.707 246.658H611.442C611.442 245.87 611.729 245.216 612.304 244.696C612.882 244.172 613.616 243.91 614.505 243.91C615.444 243.91 616.18 244.159 616.713 244.655C617.246 245.152 617.513 245.842 617.513 246.727C617.513 247.16 617.371 247.579 617.089 247.984C616.811 248.39 616.43 248.693 615.947 248.894C616.494 249.067 616.916 249.354 617.212 249.755C617.513 250.156 617.663 250.646 617.663 251.225C617.663 252.118 617.371 252.826 616.788 253.351C616.205 253.875 615.446 254.137 614.512 254.137C613.577 254.137 612.816 253.884 612.229 253.378C611.645 252.872 611.354 252.204 611.354 251.375H612.625C612.625 251.899 612.796 252.318 613.138 252.633C613.479 252.947 613.938 253.104 614.512 253.104C615.122 253.104 615.59 252.945 615.913 252.626C616.237 252.307 616.398 251.849 616.398 251.252C616.398 250.673 616.221 250.229 615.865 249.919C615.51 249.609 614.997 249.45 614.327 249.44H613.377V248.408Z" fill="#172B4D"/>
<path d="M531.468 250.104V254H530.155V244.047H533.826C534.915 244.047 535.768 244.325 536.383 244.881C537.003 245.437 537.312 246.173 537.312 247.089C537.312 248.055 537.009 248.8 536.403 249.324C535.802 249.844 534.938 250.104 533.812 250.104H531.468ZM531.468 249.03H533.826C534.528 249.03 535.066 248.866 535.439 248.538C535.813 248.205 536 247.727 536 247.103C536 246.51 535.813 246.036 535.439 245.681C535.066 245.325 534.553 245.141 533.901 245.127H531.468V249.03ZM542.638 249.974H540.3V254H538.98V244.047H542.275C543.396 244.047 544.258 244.302 544.859 244.812C545.465 245.323 545.769 246.066 545.769 247.041C545.769 247.661 545.6 248.201 545.263 248.661C544.93 249.121 544.465 249.465 543.868 249.693L546.206 253.918V254H544.798L542.638 249.974ZM540.3 248.9H542.316C542.968 248.9 543.485 248.732 543.868 248.395C544.256 248.057 544.449 247.606 544.449 247.041C544.449 246.426 544.265 245.954 543.896 245.626C543.531 245.298 543.002 245.132 542.31 245.127H540.3V248.9ZM555.271 249.345C555.271 250.32 555.106 251.172 554.778 251.901C554.45 252.626 553.985 253.18 553.384 253.562C552.782 253.945 552.08 254.137 551.278 254.137C550.494 254.137 549.799 253.945 549.193 253.562C548.587 253.175 548.116 252.626 547.778 251.915C547.446 251.2 547.275 250.372 547.266 249.434V248.716C547.266 247.759 547.432 246.913 547.765 246.18C548.097 245.446 548.567 244.885 549.173 244.498C549.784 244.106 550.481 243.91 551.265 243.91C552.062 243.91 552.764 244.104 553.37 244.491C553.981 244.874 554.45 245.432 554.778 246.166C555.106 246.895 555.271 247.745 555.271 248.716V249.345ZM553.965 248.702C553.965 247.522 553.728 246.617 553.254 245.988C552.78 245.355 552.117 245.038 551.265 245.038C550.435 245.038 549.781 245.355 549.303 245.988C548.829 246.617 548.585 247.492 548.571 248.613V249.345C548.571 250.489 548.811 251.389 549.289 252.045C549.772 252.697 550.435 253.022 551.278 253.022C552.126 253.022 552.782 252.715 553.247 252.1C553.712 251.48 553.951 250.593 553.965 249.44V248.702ZM559.673 250.288H556.337V249.256H559.673V250.288ZM567.302 254H560.78V253.091L564.226 249.263C564.736 248.684 565.087 248.215 565.278 247.854C565.474 247.49 565.572 247.114 565.572 246.727C565.572 246.207 565.415 245.781 565.101 245.448C564.786 245.116 564.367 244.949 563.843 244.949C563.214 244.949 562.724 245.129 562.373 245.489C562.027 245.845 561.854 246.341 561.854 246.979H560.589C560.589 246.063 560.883 245.323 561.471 244.758C562.063 244.193 562.854 243.91 563.843 243.91C564.768 243.91 565.499 244.154 566.037 244.642C566.575 245.125 566.844 245.77 566.844 246.576C566.844 247.556 566.219 248.723 564.971 250.076L562.305 252.968H567.302V254Z" fill="#2874BB"/>
</g>
<g filter="url(#filter2_d)">
<g clip-path="url(#clip1)">
<g filter="url(#filter3_dd)">
<path fill-rule="evenodd" clip-rule="evenodd" d="M261 128C259.343 128 258 129.343 258 131V209C258 210.657 259.343 212 261 212H481C482.657 212 484 210.657 484 209V131C484 129.343 482.657 128 481 128H261Z" fill="#FAFAFA"/>
</g>
<path fill-rule="evenodd" clip-rule="evenodd" d="M410 181C408.343 181 407 182.343 407 184V194C407 195.657 408.343 197 410 197H465C466.657 197 468 195.657 468 194V184C468 182.343 466.657 181 465 181H410Z" fill="#DFE1E6"/>
<mask id="mask2" mask-type="alpha" maskUnits="userSpaceOnUse" x="407" y="181" width="61" height="16">
<path fill-rule="evenodd" clip-rule="evenodd" d="M410 181C408.343 181 407 182.343 407 184V194C407 195.657 408.343 197 410 197H465C466.657 197 468 195.657 468 194V184C468 182.343 466.657 181 465 181H410Z" fill="white"/>
</mask>
<g mask="url(#mask2)">
<path fill-rule="evenodd" clip-rule="evenodd" d="M407 197H468V181H407V197Z" fill="#42526E"/>
</g>
<path d="M428.213 186.485H425.818V193H424.207V186.485H421.843V185.18H428.213V186.485ZM435.411 189.267C435.411 190.037 435.275 190.712 435.002 191.292C434.73 191.872 434.34 192.32 433.832 192.635C433.327 192.95 432.747 193.107 432.091 193.107C431.443 193.107 430.865 192.952 430.356 192.64C429.848 192.329 429.454 191.885 429.175 191.308C428.896 190.728 428.754 190.062 428.75 189.31V188.923C428.75 188.153 428.888 187.477 429.164 186.893C429.443 186.306 429.835 185.856 430.34 185.545C430.849 185.23 431.429 185.072 432.081 185.072C432.732 185.072 433.311 185.23 433.815 185.545C434.324 185.856 434.716 186.306 434.992 186.893C435.271 187.477 435.411 188.152 435.411 188.918V189.267ZM433.778 188.913C433.778 188.093 433.631 187.47 433.337 187.043C433.044 186.617 432.625 186.404 432.081 186.404C431.54 186.404 431.123 186.616 430.829 187.038C430.535 187.457 430.387 188.073 430.383 188.886V189.267C430.383 190.066 430.53 190.685 430.824 191.125C431.117 191.566 431.54 191.786 432.091 191.786C432.632 191.786 433.047 191.575 433.337 191.152C433.627 190.726 433.774 190.107 433.778 189.294V188.913ZM439.321 193V185.18H441.727C442.415 185.18 443.029 185.335 443.569 185.647C444.114 185.955 444.538 186.395 444.842 186.968C445.147 187.538 445.299 188.186 445.299 188.913V189.272C445.299 189.999 445.148 190.646 444.848 191.211C444.55 191.777 444.13 192.216 443.585 192.527C443.041 192.839 442.427 192.996 441.743 193H439.321ZM440.932 186.485V191.706H441.711C442.341 191.706 442.823 191.5 443.156 191.088C443.489 190.676 443.659 190.087 443.666 189.321V188.907C443.666 188.112 443.501 187.511 443.172 187.103C442.842 186.691 442.361 186.485 441.727 186.485H440.932ZM452.899 189.267C452.899 190.037 452.763 190.712 452.491 191.292C452.219 191.872 451.828 192.32 451.32 192.635C450.815 192.95 450.235 193.107 449.58 193.107C448.931 193.107 448.353 192.952 447.845 192.64C447.336 192.329 446.942 191.885 446.663 191.308C446.384 190.728 446.242 190.062 446.239 189.31V188.923C446.239 188.153 446.377 187.477 446.652 186.893C446.932 186.306 447.324 185.856 447.829 185.545C448.337 185.23 448.917 185.072 449.569 185.072C450.221 185.072 450.799 185.23 451.304 185.545C451.812 185.856 452.204 186.306 452.48 186.893C452.759 187.477 452.899 188.152 452.899 188.918V189.267ZM451.266 188.913C451.266 188.093 451.119 187.47 450.826 187.043C450.532 186.617 450.113 186.404 449.569 186.404C449.028 186.404 448.611 186.616 448.317 187.038C448.024 187.457 447.875 188.073 447.872 188.886V189.267C447.872 190.066 448.018 190.685 448.312 191.125C448.606 191.566 449.028 191.786 449.58 191.786C450.12 191.786 450.536 191.575 450.826 191.152C451.116 190.726 451.263 190.107 451.266 189.294V188.913Z" fill="white"/>
<rect x="279" y="181" width="16" height="16" rx="2" fill="#36B37E"/>
<path fill-rule="evenodd" clip-rule="evenodd" d="M287 192L284.137 193.822C283.717 194.202 283 193.933 283 193.395V185.206C283 184.539 283.596 184 284.333 184H289.667C290.403 184 291 184.539 291 185.206V193.395C291 193.933 290.281 194.202 289.861 193.822L287 192ZM287 189.629L289 190.903V186H285V190.902L287 189.629Z" fill="white"/>
</g>
<rect x="258.5" y="128.5" width="225" height="83" rx="4.5" stroke="#DADADA"/>
<path d="M329.088 154.563C327.962 154.24 327.142 153.843 326.627 153.374C326.117 152.9 325.861 152.317 325.861 151.624C325.861 150.84 326.174 150.193 326.798 149.683C327.427 149.168 328.243 148.91 329.245 148.91C329.929 148.91 330.537 149.042 331.07 149.307C331.608 149.571 332.023 149.936 332.314 150.4C332.611 150.865 332.759 151.373 332.759 151.925H331.439C331.439 151.323 331.248 150.852 330.865 150.51C330.482 150.163 329.942 149.99 329.245 149.99C328.598 149.99 328.092 150.134 327.728 150.421C327.368 150.703 327.188 151.098 327.188 151.604C327.188 152.009 327.358 152.353 327.7 152.636C328.047 152.914 328.632 153.169 329.457 153.401C330.286 153.634 330.934 153.891 331.398 154.174C331.868 154.452 332.214 154.778 332.438 155.151C332.665 155.525 332.779 155.965 332.779 156.471C332.779 157.277 332.465 157.924 331.836 158.412C331.207 158.895 330.366 159.137 329.313 159.137C328.63 159.137 327.992 159.007 327.399 158.747C326.807 158.483 326.349 158.123 326.025 157.667C325.706 157.211 325.547 156.694 325.547 156.115H326.866C326.866 156.717 327.087 157.193 327.529 157.544C327.976 157.89 328.571 158.063 329.313 158.063C330.006 158.063 330.537 157.922 330.906 157.64C331.275 157.357 331.46 156.972 331.46 156.484C331.46 155.997 331.289 155.621 330.947 155.356C330.605 155.088 329.986 154.823 329.088 154.563ZM335.985 149.812V151.604H337.366V152.581H335.985V157.168C335.985 157.464 336.047 157.688 336.17 157.838C336.293 157.984 336.503 158.057 336.799 158.057C336.945 158.057 337.145 158.029 337.4 157.975V159C337.068 159.091 336.744 159.137 336.43 159.137C335.865 159.137 335.438 158.966 335.151 158.624C334.864 158.282 334.721 157.797 334.721 157.168V152.581H333.374V151.604H334.721V149.812H335.985ZM338.378 155.233C338.378 154.509 338.519 153.857 338.802 153.278C339.089 152.7 339.485 152.253 339.991 151.938C340.502 151.624 341.083 151.467 341.734 151.467C342.742 151.467 343.555 151.815 344.175 152.513C344.799 153.21 345.111 154.137 345.111 155.295V155.384C345.111 156.104 344.972 156.751 344.694 157.325C344.421 157.895 344.027 158.339 343.512 158.658C343.001 158.977 342.413 159.137 341.748 159.137C340.745 159.137 339.932 158.788 339.308 158.091C338.688 157.394 338.378 156.471 338.378 155.322V155.233ZM339.649 155.384C339.649 156.204 339.839 156.863 340.217 157.359C340.6 157.856 341.11 158.104 341.748 158.104C342.391 158.104 342.901 157.854 343.279 157.353C343.658 156.847 343.847 156.14 343.847 155.233C343.847 154.422 343.653 153.766 343.266 153.265C342.883 152.759 342.372 152.506 341.734 152.506C341.11 152.506 340.606 152.754 340.224 153.251C339.841 153.748 339.649 154.459 339.649 155.384ZM350.272 152.738C350.081 152.706 349.874 152.69 349.65 152.69C348.821 152.69 348.258 153.044 347.962 153.75V159H346.697V151.604H347.928L347.948 152.458C348.363 151.797 348.951 151.467 349.712 151.467C349.958 151.467 350.145 151.499 350.272 151.562V152.738ZM353.984 157.147L355.707 151.604H357.061L354.087 160.142C353.627 161.372 352.895 161.987 351.893 161.987L351.653 161.967L351.182 161.878V160.853L351.523 160.88C351.952 160.88 352.285 160.793 352.521 160.62C352.763 160.447 352.961 160.13 353.116 159.67L353.396 158.918L350.758 151.604H352.139L353.984 157.147ZM365.694 159H364.423V150.571L361.873 151.508V150.359L365.496 148.999H365.694V159Z" fill="#172B4D"/>
<path d="M281.468 155.104V159H280.155V149.047H283.826C284.915 149.047 285.768 149.325 286.383 149.881C287.003 150.437 287.312 151.173 287.312 152.089C287.312 153.055 287.009 153.8 286.403 154.324C285.802 154.844 284.938 155.104 283.812 155.104H281.468ZM281.468 154.03H283.826C284.528 154.03 285.066 153.866 285.439 153.538C285.813 153.205 286 152.727 286 152.103C286 151.51 285.813 151.036 285.439 150.681C285.066 150.325 284.553 150.141 283.901 150.127H281.468V154.03ZM292.638 154.974H290.3V159H288.98V149.047H292.275C293.396 149.047 294.258 149.302 294.859 149.812C295.465 150.323 295.769 151.066 295.769 152.041C295.769 152.661 295.6 153.201 295.263 153.661C294.93 154.121 294.465 154.465 293.868 154.693L296.206 158.918V159H294.798L292.638 154.974ZM290.3 153.9H292.316C292.968 153.9 293.485 153.732 293.868 153.395C294.256 153.057 294.449 152.606 294.449 152.041C294.449 151.426 294.265 150.954 293.896 150.626C293.531 150.298 293.002 150.132 292.31 150.127H290.3V153.9ZM305.271 154.345C305.271 155.32 305.106 156.172 304.778 156.901C304.45 157.626 303.985 158.18 303.384 158.562C302.782 158.945 302.08 159.137 301.278 159.137C300.494 159.137 299.799 158.945 299.193 158.562C298.587 158.175 298.116 157.626 297.778 156.915C297.446 156.2 297.275 155.372 297.266 154.434V153.716C297.266 152.759 297.432 151.913 297.765 151.18C298.097 150.446 298.567 149.885 299.173 149.498C299.784 149.106 300.481 148.91 301.265 148.91C302.062 148.91 302.764 149.104 303.37 149.491C303.981 149.874 304.45 150.432 304.778 151.166C305.106 151.895 305.271 152.745 305.271 153.716V154.345ZM303.965 153.702C303.965 152.522 303.728 151.617 303.254 150.988C302.78 150.355 302.117 150.038 301.265 150.038C300.435 150.038 299.781 150.355 299.303 150.988C298.829 151.617 298.585 152.492 298.571 153.613V154.345C298.571 155.489 298.811 156.389 299.289 157.045C299.772 157.697 300.435 158.022 301.278 158.022C302.126 158.022 302.782 157.715 303.247 157.1C303.712 156.48 303.951 155.593 303.965 154.44V153.702ZM309.673 155.288H306.337V154.256H309.673V155.288ZM317.302 159H310.78V158.091L314.226 154.263C314.736 153.684 315.087 153.215 315.278 152.854C315.474 152.49 315.572 152.114 315.572 151.727C315.572 151.207 315.415 150.781 315.101 150.448C314.786 150.116 314.367 149.949 313.843 149.949C313.214 149.949 312.724 150.129 312.373 150.489C312.027 150.845 311.854 151.341 311.854 151.979H310.589C310.589 151.063 310.883 150.323 311.471 149.758C312.063 149.193 312.854 148.91 313.843 148.91C314.768 148.91 315.499 149.154 316.037 149.642C316.575 150.125 316.844 150.77 316.844 151.576C316.844 152.556 316.219 153.723 314.971 155.076L312.305 157.968H317.302V159Z" fill="#2874BB"/>
</g>
<g filter="url(#filter4_d)">
<g clip-path="url(#clip2)">
<g filter="url(#filter5_dd)">
<path fill-rule="evenodd" clip-rule="evenodd" d="M261 1C259.343 1 258 2.34315 258 4V82C258 83.6569 259.343 85 261 85H481C482.657 85 484 83.6569 484 82V4C484 2.34314 482.657 1 481 1H261Z" fill="#FAFAFA"/>
</g>
<rect width="16" height="16" transform="translate(278 54)" fill="white" fill-opacity="0.01"/>
<path fill-rule="evenodd" clip-rule="evenodd" d="M292 54C293.105 54 294 54.8954 294 56V68C294 69.1046 293.105 70 292 70H280C278.895 70 278 69.1046 278 68V56C278 54.8954 278.895 54 280 54H292ZM286.5 57C286.35 57 286.22 57.069 286.128 57.173L282.149 62.145C282.146 62.148 282.113 62.19 282.113 62.19C282.047 62.279 282 62.382 282 62.5C282 62.776 282.224 63 282.5 63C282.528 63 282.551 63.005 282.577 63H285V66.5C285 66.776 285.224 67 285.5 67C285.624 67 285.734 66.95 285.821 66.876C285.821 66.876 285.883 66.809 285.906 66.776L289.84 61.863C289.859 61.845 289.871 61.824 289.887 61.803L289.914 61.77C289.963 61.689 290 61.6 290 61.5C290 61.224 289.776 61 289.5 61H287V57.5C287 57.224 286.776 57 286.5 57Z" fill="#6554C0"/>
</g>
<rect x="258.5" y="1.5" width="225" height="83" rx="4.5" stroke="#DADADA"/>
<path d="M331.781 27.3994H327.468V30.9268H332.479V32H326.155V22.0469H332.41V23.127H327.468V26.3262H331.781V27.3994ZM340.162 28.3838C340.162 29.5094 339.905 30.4163 339.39 31.1045C338.875 31.7926 338.177 32.1367 337.298 32.1367C336.4 32.1367 335.694 31.8519 335.179 31.2822V34.8438H333.914V24.6035H335.069L335.131 25.4238C335.646 24.7858 336.361 24.4668 337.277 24.4668C338.166 24.4668 338.868 24.8018 339.383 25.4717C339.902 26.1416 340.162 27.0736 340.162 28.2676V28.3838ZM338.897 28.2402C338.897 27.4062 338.72 26.7477 338.364 26.2646C338.009 25.7816 337.521 25.54 336.901 25.54C336.136 25.54 335.562 25.8796 335.179 26.5586V30.0928C335.557 30.7673 336.136 31.1045 336.915 31.1045C337.521 31.1045 338.002 30.8652 338.357 30.3867C338.717 29.9036 338.897 29.1882 338.897 28.2402ZM343.149 32H341.885V24.6035H343.149V32ZM341.782 22.6416C341.782 22.4365 341.844 22.2633 341.967 22.1221C342.094 21.9808 342.281 21.9102 342.527 21.9102C342.773 21.9102 342.96 21.9808 343.088 22.1221C343.215 22.2633 343.279 22.4365 343.279 22.6416C343.279 22.8467 343.215 23.0176 343.088 23.1543C342.96 23.291 342.773 23.3594 342.527 23.3594C342.281 23.3594 342.094 23.291 341.967 23.1543C341.844 23.0176 341.782 22.8467 341.782 22.6416ZM348.146 31.1045C348.598 31.1045 348.992 30.9678 349.329 30.6943C349.666 30.4209 349.853 30.0791 349.89 29.6689H351.086C351.063 30.0928 350.917 30.4961 350.648 30.8789C350.38 31.2617 350.02 31.5671 349.568 31.7949C349.122 32.0228 348.648 32.1367 348.146 32.1367C347.139 32.1367 346.337 31.8018 345.74 31.1318C345.148 30.4574 344.852 29.5368 344.852 28.3701V28.1582C344.852 27.4382 344.984 26.7979 345.248 26.2373C345.512 25.6768 345.891 25.2415 346.383 24.9316C346.88 24.6217 347.465 24.4668 348.14 24.4668C348.969 24.4668 349.657 24.7152 350.204 25.2119C350.756 25.7087 351.049 26.3535 351.086 27.1465H349.89C349.853 26.668 349.671 26.276 349.343 25.9707C349.019 25.6608 348.618 25.5059 348.14 25.5059C347.497 25.5059 346.998 25.7383 346.643 26.2031C346.292 26.6634 346.116 27.3311 346.116 28.2061V28.4453C346.116 29.2975 346.292 29.9538 346.643 30.4141C346.993 30.8743 347.495 31.1045 348.146 31.1045ZM360.007 32H358.735V23.5713L356.186 24.5078V23.3594L359.809 21.999H360.007V32Z" fill="#172B4D"/>
<path d="M281.468 28.1035V32H280.155V22.0469H283.826C284.915 22.0469 285.768 22.3249 286.383 22.8809C287.003 23.4368 287.312 24.1729 287.312 25.0889C287.312 26.055 287.009 26.8001 286.403 27.3242C285.802 27.8438 284.938 28.1035 283.812 28.1035H281.468ZM281.468 27.0303H283.826C284.528 27.0303 285.066 26.8662 285.439 26.5381C285.813 26.2054 286 25.7269 286 25.1025C286 24.5101 285.813 24.0361 285.439 23.6807C285.066 23.3252 284.553 23.1406 283.901 23.127H281.468V27.0303ZM292.638 27.9736H290.3V32H288.98V22.0469H292.275C293.396 22.0469 294.258 22.3021 294.859 22.8125C295.465 23.3229 295.769 24.0658 295.769 25.041C295.769 25.6608 295.6 26.2008 295.263 26.6611C294.93 27.1214 294.465 27.4655 293.868 27.6934L296.206 31.918V32H294.798L292.638 27.9736ZM290.3 26.9004H292.316C292.968 26.9004 293.485 26.7318 293.868 26.3945C294.256 26.0573 294.449 25.6061 294.449 25.041C294.449 24.4258 294.265 23.9541 293.896 23.626C293.531 23.2979 293.002 23.1315 292.31 23.127H290.3V26.9004ZM305.271 27.3447C305.271 28.32 305.106 29.1722 304.778 29.9014C304.45 30.626 303.985 31.1797 303.384 31.5625C302.782 31.9453 302.08 32.1367 301.278 32.1367C300.494 32.1367 299.799 31.9453 299.193 31.5625C298.587 31.1751 298.116 30.626 297.778 29.915C297.446 29.1995 297.275 28.3724 297.266 27.4336V26.7158C297.266 25.7588 297.432 24.9134 297.765 24.1797C298.097 23.446 298.567 22.8854 299.173 22.498C299.784 22.1061 300.481 21.9102 301.265 21.9102C302.062 21.9102 302.764 22.1038 303.37 22.4912C303.981 22.874 304.45 23.4323 304.778 24.166C305.106 24.8952 305.271 25.7451 305.271 26.7158V27.3447ZM303.965 26.7021C303.965 25.5218 303.728 24.6172 303.254 23.9883C302.78 23.3548 302.117 23.0381 301.265 23.0381C300.435 23.0381 299.781 23.3548 299.303 23.9883C298.829 24.6172 298.585 25.4922 298.571 26.6133V27.3447C298.571 28.4886 298.811 29.3887 299.289 30.0449C299.772 30.6966 300.435 31.0225 301.278 31.0225C302.126 31.0225 302.782 30.7148 303.247 30.0996C303.712 29.4798 303.951 28.5934 303.965 27.4404V26.7021ZM309.673 28.2881H306.337V27.2559H309.673V28.2881ZM314.937 32H313.665V23.5713L311.115 24.5078V23.3594L314.738 21.999H314.937V32Z" fill="#2874BB"/>
</g>
<g filter="url(#filter6_d)">
<g clip-path="url(#clip3)">
<g filter="url(#filter7_dd)">
<path fill-rule="evenodd" clip-rule="evenodd" d="M511 1C509.343 1 508 2.34315 508 4V82C508 83.6569 509.343 85 511 85H731C732.657 85 734 83.6569 734 82V4C734 2.34314 732.657 1 731 1H511Z" fill="#FAFAFA"/>
</g>
<rect width="16" height="16" transform="translate(528 54)" fill="white" fill-opacity="0.01"/>
<path fill-rule="evenodd" clip-rule="evenodd" d="M542 54C543.105 54 544 54.8954 544 56V68C544 69.1046 543.105 70 542 70H530C528.895 70 528 69.1046 528 68V56C528 54.8954 528.895 54 530 54H542ZM536.5 57C536.35 57 536.22 57.069 536.128 57.173L532.149 62.145C532.146 62.148 532.113 62.19 532.113 62.19C532.047 62.279 532 62.382 532 62.5C532 62.776 532.224 63 532.5 63C532.528 63 532.551 63.005 532.577 63H535V66.5C535 66.776 535.224 67 535.5 67C535.624 67 535.734 66.95 535.821 66.876C535.821 66.876 535.883 66.809 535.906 66.776L539.84 61.863C539.859 61.845 539.871 61.824 539.887 61.803L539.914 61.77C539.963 61.689 540 61.6 540 61.5C540 61.224 539.776 61 539.5 61H537V57.5C537 57.224 536.776 57 536.5 57Z" fill="#6554C0"/>
</g>
<rect x="508.5" y="1.5" width="225" height="83" rx="4.5" stroke="#DADADA"/>
<path d="M581.781 27.3994H577.468V30.9268H582.479V32H576.155V22.0469H582.41V23.127H577.468V26.3262H581.781V27.3994ZM590.162 28.3838C590.162 29.5094 589.905 30.4163 589.39 31.1045C588.875 31.7926 588.177 32.1367 587.298 32.1367C586.4 32.1367 585.694 31.8519 585.179 31.2822V34.8438H583.914V24.6035H585.069L585.131 25.4238C585.646 24.7858 586.361 24.4668 587.277 24.4668C588.166 24.4668 588.868 24.8018 589.383 25.4717C589.902 26.1416 590.162 27.0736 590.162 28.2676V28.3838ZM588.897 28.2402C588.897 27.4062 588.72 26.7477 588.364 26.2646C588.009 25.7816 587.521 25.54 586.901 25.54C586.136 25.54 585.562 25.8796 585.179 26.5586V30.0928C585.557 30.7673 586.136 31.1045 586.915 31.1045C587.521 31.1045 588.002 30.8652 588.357 30.3867C588.717 29.9036 588.897 29.1882 588.897 28.2402ZM593.149 32H591.885V24.6035H593.149V32ZM591.782 22.6416C591.782 22.4365 591.844 22.2633 591.967 22.1221C592.094 21.9808 592.281 21.9102 592.527 21.9102C592.773 21.9102 592.96 21.9808 593.088 22.1221C593.215 22.2633 593.279 22.4365 593.279 22.6416C593.279 22.8467 593.215 23.0176 593.088 23.1543C592.96 23.291 592.773 23.3594 592.527 23.3594C592.281 23.3594 592.094 23.291 591.967 23.1543C591.844 23.0176 591.782 22.8467 591.782 22.6416ZM598.146 31.1045C598.598 31.1045 598.992 30.9678 599.329 30.6943C599.666 30.4209 599.853 30.0791 599.89 29.6689H601.086C601.063 30.0928 600.917 30.4961 600.648 30.8789C600.38 31.2617 600.02 31.5671 599.568 31.7949C599.122 32.0228 598.648 32.1367 598.146 32.1367C597.139 32.1367 596.337 31.8018 595.74 31.1318C595.148 30.4574 594.852 29.5368 594.852 28.3701V28.1582C594.852 27.4382 594.984 26.7979 595.248 26.2373C595.512 25.6768 595.891 25.2415 596.383 24.9316C596.88 24.6217 597.465 24.4668 598.14 24.4668C598.969 24.4668 599.657 24.7152 600.204 25.2119C600.756 25.7087 601.049 26.3535 601.086 27.1465H599.89C599.853 26.668 599.671 26.276 599.343 25.9707C599.019 25.6608 598.618 25.5059 598.14 25.5059C597.497 25.5059 596.998 25.7383 596.643 26.2031C596.292 26.6634 596.116 27.3311 596.116 28.2061V28.4453C596.116 29.2975 596.292 29.9538 596.643 30.4141C596.993 30.8743 597.495 31.1045 598.146 31.1045ZM612.372 32H605.851V31.0908L609.296 27.2627C609.806 26.6839 610.157 26.2145 610.349 25.8545C610.545 25.4899 610.643 25.1139 610.643 24.7266C610.643 24.207 610.485 23.7809 610.171 23.4482C609.856 23.1156 609.437 22.9492 608.913 22.9492C608.284 22.9492 607.794 23.1292 607.443 23.4893C607.097 23.8447 606.924 24.3415 606.924 24.9795H605.659C605.659 24.0635 605.953 23.3229 606.541 22.7578C607.133 22.1927 607.924 21.9102 608.913 21.9102C609.838 21.9102 610.57 22.154 611.107 22.6416C611.645 23.1247 611.914 23.7695 611.914 24.5762C611.914 25.556 611.29 26.7227 610.041 28.0762L607.375 30.9678H612.372V32Z" fill="#172B4D"/>
<path d="M531.468 28.1035V32H530.155V22.0469H533.826C534.915 22.0469 535.768 22.3249 536.383 22.8809C537.003 23.4368 537.312 24.1729 537.312 25.0889C537.312 26.055 537.009 26.8001 536.403 27.3242C535.802 27.8438 534.938 28.1035 533.812 28.1035H531.468ZM531.468 27.0303H533.826C534.528 27.0303 535.066 26.8662 535.439 26.5381C535.813 26.2054 536 25.7269 536 25.1025C536 24.5101 535.813 24.0361 535.439 23.6807C535.066 23.3252 534.553 23.1406 533.901 23.127H531.468V27.0303ZM542.638 27.9736H540.3V32H538.98V22.0469H542.275C543.396 22.0469 544.258 22.3021 544.859 22.8125C545.465 23.3229 545.769 24.0658 545.769 25.041C545.769 25.6608 545.6 26.2008 545.263 26.6611C544.93 27.1214 544.465 27.4655 543.868 27.6934L546.206 31.918V32H544.798L542.638 27.9736ZM540.3 26.9004H542.316C542.968 26.9004 543.485 26.7318 543.868 26.3945C544.256 26.0573 544.449 25.6061 544.449 25.041C544.449 24.4258 544.265 23.9541 543.896 23.626C543.531 23.2979 543.002 23.1315 542.31 23.127H540.3V26.9004ZM555.271 27.3447C555.271 28.32 555.106 29.1722 554.778 29.9014C554.45 30.626 553.985 31.1797 553.384 31.5625C552.782 31.9453 552.08 32.1367 551.278 32.1367C550.494 32.1367 549.799 31.9453 549.193 31.5625C548.587 31.1751 548.116 30.626 547.778 29.915C547.446 29.1995 547.275 28.3724 547.266 27.4336V26.7158C547.266 25.7588 547.432 24.9134 547.765 24.1797C548.097 23.446 548.567 22.8854 549.173 22.498C549.784 22.1061 550.481 21.9102 551.265 21.9102C552.062 21.9102 552.764 22.1038 553.37 22.4912C553.981 22.874 554.45 23.4323 554.778 24.166C555.106 24.8952 555.271 25.7451 555.271 26.7158V27.3447ZM553.965 26.7021C553.965 25.5218 553.728 24.6172 553.254 23.9883C552.78 23.3548 552.117 23.0381 551.265 23.0381C550.435 23.0381 549.781 23.3548 549.303 23.9883C548.829 24.6172 548.585 25.4922 548.571 26.6133V27.3447C548.571 28.4886 548.811 29.3887 549.289 30.0449C549.772 30.6966 550.435 31.0225 551.278 31.0225C552.126 31.0225 552.782 30.7148 553.247 30.0996C553.712 29.4798 553.951 28.5934 553.965 27.4404V26.7021ZM559.673 28.2881H556.337V27.2559H559.673V28.2881ZM564.937 32H563.665V23.5713L561.115 24.5078V23.3594L564.738 21.999H564.937V32Z" fill="#2874BB"/>
</g>
<g filter="url(#filter8_d)">
<g clip-path="url(#clip4)">
<g filter="url(#filter9_dd)">
<path fill-rule="evenodd" clip-rule="evenodd" d="M511 128C509.343 128 508 129.343 508 131V209C508 210.657 509.343 212 511 212H731C732.657 212 734 210.657 734 209V131C734 129.343 732.657 128 731 128H511Z" fill="#FAFAFA"/>
</g>
</g>
<rect x="508.5" y="128.5" width="225" height="83" rx="4.5" stroke="#DADADA"/>
<rect x="529" y="181" width="16" height="16" rx="2" fill="#36B37E"/>
<path fill-rule="evenodd" clip-rule="evenodd" d="M537 192L534.137 193.822C533.717 194.202 533 193.933 533 193.395V185.206C533 184.539 533.596 184 534.333 184H539.667C540.403 184 541 184.539 541 185.206V193.395C541 193.933 540.281 194.202 539.861 193.822L537 192ZM537 189.629L539 190.903V186H535V190.902L537 189.629Z" fill="white"/>
<path fill-rule="evenodd" clip-rule="evenodd" d="M633 181C631.343 181 630 182.343 630 184V194C630 195.657 631.343 197 633 197H716C717.657 197 719 195.657 719 194V184C719 182.343 717.657 181 716 181H633Z" fill="#DFE1E6"/>
<mask id="mask3" mask-type="alpha" maskUnits="userSpaceOnUse" x="630" y="181" width="89" height="16">
<path fill-rule="evenodd" clip-rule="evenodd" d="M633 181C631.343 181 630 182.343 630 184V194C630 195.657 631.343 197 633 197H716C717.657 197 719 195.657 719 194V184C719 182.343 717.657 181 716 181H633Z" fill="white"/>
</mask>
<g mask="url(#mask3)">
<rect x="630" y="181" width="89" height="16" fill="#FFC400"/>
</g>
<path d="M646.184 190.395C646.123 191.236 645.811 191.899 645.249 192.382C644.69 192.866 643.953 193.107 643.036 193.107C642.034 193.107 641.244 192.771 640.667 192.098C640.095 191.421 639.808 190.493 639.808 189.315V188.837C639.808 188.085 639.941 187.423 640.206 186.85C640.471 186.277 640.848 185.839 641.339 185.534C641.833 185.226 642.406 185.072 643.058 185.072C643.96 185.072 644.687 185.314 645.238 185.797C645.79 186.281 646.108 186.959 646.194 187.833H644.583C644.544 187.328 644.402 186.963 644.159 186.737C643.919 186.508 643.552 186.394 643.058 186.394C642.521 186.394 642.118 186.587 641.849 186.974C641.584 187.357 641.448 187.953 641.441 188.762V189.353C641.441 190.198 641.568 190.816 641.822 191.206C642.08 191.596 642.485 191.792 643.036 191.792C643.534 191.792 643.904 191.679 644.148 191.453C644.395 191.224 644.536 190.871 644.572 190.395H646.184ZM653.666 189.267C653.666 190.037 653.529 190.712 653.257 191.292C652.985 191.872 652.595 192.32 652.086 192.635C651.582 192.95 651.001 193.107 650.346 193.107C649.698 193.107 649.12 192.952 648.611 192.64C648.103 192.329 647.709 191.885 647.43 191.308C647.15 190.728 647.009 190.062 647.005 189.31V188.923C647.005 188.153 647.143 187.477 647.419 186.893C647.698 186.306 648.09 185.856 648.595 185.545C649.104 185.23 649.684 185.072 650.335 185.072C650.987 185.072 651.565 185.23 652.07 185.545C652.579 185.856 652.971 186.306 653.247 186.893C653.526 187.477 653.666 188.152 653.666 188.918V189.267ZM652.033 188.913C652.033 188.093 651.886 187.47 651.592 187.043C651.299 186.617 650.88 186.404 650.335 186.404C649.795 186.404 649.378 186.616 649.084 187.038C648.79 187.457 648.642 188.073 648.638 188.886V189.267C648.638 190.066 648.785 190.685 649.079 191.125C649.372 191.566 649.795 191.786 650.346 191.786C650.887 191.786 651.302 191.575 651.592 191.152C651.882 190.726 652.029 190.107 652.033 189.294V188.913ZM654.836 193V185.18H657.243C657.93 185.18 658.544 185.335 659.085 185.647C659.629 185.955 660.054 186.395 660.358 186.968C660.662 187.538 660.814 188.186 660.814 188.913V189.272C660.814 189.999 660.664 190.646 660.363 191.211C660.066 191.777 659.645 192.216 659.101 192.527C658.557 192.839 657.943 192.996 657.259 193H654.836ZM656.448 186.485V191.706H657.227C657.857 191.706 658.338 191.5 658.671 191.088C659.004 190.676 659.174 190.087 659.182 189.321V188.907C659.182 188.112 659.017 187.511 658.688 187.103C658.358 186.691 657.876 186.485 657.243 186.485H656.448ZM666.696 189.611H663.602V191.706H667.233V193H661.991V185.18H667.222V186.485H663.602V188.349H666.696V189.611ZM673.812 190.137H672.529V193H670.917V185.18H673.823C674.747 185.18 675.46 185.386 675.961 185.797C676.462 186.209 676.713 186.791 676.713 187.543C676.713 188.076 676.597 188.522 676.364 188.88C676.135 189.235 675.785 189.518 675.316 189.729L677.008 192.925V193H675.279L673.812 190.137ZM672.529 188.832H673.829C674.233 188.832 674.547 188.73 674.769 188.526C674.991 188.318 675.102 188.034 675.102 187.672C675.102 187.303 674.996 187.013 674.785 186.802C674.577 186.59 674.257 186.485 673.823 186.485H672.529V188.832ZM682.648 189.611H679.554V191.706H683.185V193H677.943V185.18H683.174V186.485H679.554V188.349H682.648V189.611ZM687.02 191.061L688.792 185.18H690.586L687.863 193H686.182L683.47 185.18H685.258L687.02 191.061ZM693.041 193H691.43V185.18H693.041V193ZM699.245 189.611H696.151V191.706H699.782V193H694.54V185.18H699.771V186.485H696.151V188.349H699.245V189.611ZM706.818 190.744L707.871 185.18H709.477L707.742 193H706.12L704.847 187.769L703.574 193H701.952L700.217 185.18H701.823L702.881 190.733L704.17 185.18H705.534L706.818 190.744Z" fill="#172B4D"/>
<path d="M579.088 154.563C577.962 154.24 577.142 153.843 576.627 153.374C576.117 152.9 575.861 152.317 575.861 151.624C575.861 150.84 576.174 150.193 576.798 149.683C577.427 149.168 578.243 148.91 579.245 148.91C579.929 148.91 580.537 149.042 581.07 149.307C581.608 149.571 582.023 149.936 582.314 150.4C582.611 150.865 582.759 151.373 582.759 151.925H581.439C581.439 151.323 581.248 150.852 580.865 150.51C580.482 150.163 579.942 149.99 579.245 149.99C578.598 149.99 578.092 150.134 577.728 150.421C577.368 150.703 577.188 151.098 577.188 151.604C577.188 152.009 577.358 152.353 577.7 152.636C578.047 152.914 578.632 153.169 579.457 153.401C580.286 153.634 580.934 153.891 581.398 154.174C581.868 154.452 582.214 154.778 582.438 155.151C582.665 155.525 582.779 155.965 582.779 156.471C582.779 157.277 582.465 157.924 581.836 158.412C581.207 158.895 580.366 159.137 579.313 159.137C578.63 159.137 577.992 159.007 577.399 158.747C576.807 158.483 576.349 158.123 576.025 157.667C575.706 157.211 575.547 156.694 575.547 156.115H576.866C576.866 156.717 577.087 157.193 577.529 157.544C577.976 157.89 578.571 158.063 579.313 158.063C580.006 158.063 580.537 157.922 580.906 157.64C581.275 157.357 581.46 156.972 581.46 156.484C581.46 155.997 581.289 155.621 580.947 155.356C580.605 155.088 579.986 154.823 579.088 154.563ZM585.985 149.812V151.604H587.366V152.581H585.985V157.168C585.985 157.464 586.047 157.688 586.17 157.838C586.293 157.984 586.503 158.057 586.799 158.057C586.945 158.057 587.145 158.029 587.4 157.975V159C587.068 159.091 586.744 159.137 586.43 159.137C585.865 159.137 585.438 158.966 585.151 158.624C584.864 158.282 584.721 157.797 584.721 157.168V152.581H583.374V151.604H584.721V149.812H585.985ZM588.378 155.233C588.378 154.509 588.519 153.857 588.802 153.278C589.089 152.7 589.485 152.253 589.991 151.938C590.502 151.624 591.083 151.467 591.734 151.467C592.742 151.467 593.555 151.815 594.175 152.513C594.799 153.21 595.111 154.137 595.111 155.295V155.384C595.111 156.104 594.972 156.751 594.694 157.325C594.421 157.895 594.027 158.339 593.512 158.658C593.001 158.977 592.413 159.137 591.748 159.137C590.745 159.137 589.932 158.788 589.308 158.091C588.688 157.394 588.378 156.471 588.378 155.322V155.233ZM589.649 155.384C589.649 156.204 589.839 156.863 590.217 157.359C590.6 157.856 591.11 158.104 591.748 158.104C592.391 158.104 592.901 157.854 593.279 157.353C593.658 156.847 593.847 156.14 593.847 155.233C593.847 154.422 593.653 153.766 593.266 153.265C592.883 152.759 592.372 152.506 591.734 152.506C591.11 152.506 590.606 152.754 590.224 153.251C589.841 153.748 589.649 154.459 589.649 155.384ZM600.272 152.738C600.081 152.706 599.874 152.69 599.65 152.69C598.821 152.69 598.258 153.044 597.962 153.75V159H596.697V151.604H597.928L597.948 152.458C598.363 151.797 598.951 151.467 599.712 151.467C599.958 151.467 600.145 151.499 600.272 151.562V152.738ZM603.984 157.147L605.707 151.604H607.061L604.087 160.142C603.627 161.372 602.895 161.987 601.893 161.987L601.653 161.967L601.182 161.878V160.853L601.523 160.88C601.952 160.88 602.285 160.793 602.521 160.62C602.763 160.447 602.961 160.13 603.116 159.67L603.396 158.918L600.758 151.604H602.139L603.984 157.147ZM618.06 159H611.538V158.091L614.983 154.263C615.494 153.684 615.845 153.215 616.036 152.854C616.232 152.49 616.33 152.114 616.33 151.727C616.33 151.207 616.173 150.781 615.858 150.448C615.544 150.116 615.125 149.949 614.601 149.949C613.972 149.949 613.482 150.129 613.131 150.489C612.785 150.845 612.611 151.341 612.611 151.979H611.347C611.347 151.063 611.641 150.323 612.229 149.758C612.821 149.193 613.612 148.91 614.601 148.91C615.526 148.91 616.257 149.154 616.795 149.642C617.333 150.125 617.602 150.77 617.602 151.576C617.602 152.556 616.977 153.723 615.729 155.076L613.062 157.968H618.06V159Z" fill="#172B4D"/>
<path d="M531.468 155.104V159H530.155V149.047H533.826C534.915 149.047 535.768 149.325 536.383 149.881C537.003 150.437 537.312 151.173 537.312 152.089C537.312 153.055 537.009 153.8 536.403 154.324C535.802 154.844 534.938 155.104 533.812 155.104H531.468ZM531.468 154.03H533.826C534.528 154.03 535.066 153.866 535.439 153.538C535.813 153.205 536 152.727 536 152.103C536 151.51 535.813 151.036 535.439 150.681C535.066 150.325 534.553 150.141 533.901 150.127H531.468V154.03ZM542.638 154.974H540.3V159H538.98V149.047H542.275C543.396 149.047 544.258 149.302 544.859 149.812C545.465 150.323 545.769 151.066 545.769 152.041C545.769 152.661 545.6 153.201 545.263 153.661C544.93 154.121 544.465 154.465 543.868 154.693L546.206 158.918V159H544.798L542.638 154.974ZM540.3 153.9H542.316C542.968 153.9 543.485 153.732 543.868 153.395C544.256 153.057 544.449 152.606 544.449 152.041C544.449 151.426 544.265 150.954 543.896 150.626C543.531 150.298 543.002 150.132 542.31 150.127H540.3V153.9ZM555.271 154.345C555.271 155.32 555.106 156.172 554.778 156.901C554.45 157.626 553.985 158.18 553.384 158.562C552.782 158.945 552.08 159.137 551.278 159.137C550.494 159.137 549.799 158.945 549.193 158.562C548.587 158.175 548.116 157.626 547.778 156.915C547.446 156.2 547.275 155.372 547.266 154.434V153.716C547.266 152.759 547.432 151.913 547.765 151.18C548.097 150.446 548.567 149.885 549.173 149.498C549.784 149.106 550.481 148.91 551.265 148.91C552.062 148.91 552.764 149.104 553.37 149.491C553.981 149.874 554.45 150.432 554.778 151.166C555.106 151.895 555.271 152.745 555.271 153.716V154.345ZM553.965 153.702C553.965 152.522 553.728 151.617 553.254 150.988C552.78 150.355 552.117 150.038 551.265 150.038C550.435 150.038 549.781 150.355 549.303 150.988C548.829 151.617 548.585 152.492 548.571 153.613V154.345C548.571 155.489 548.811 156.389 549.289 157.045C549.772 157.697 550.435 158.022 551.278 158.022C552.126 158.022 552.782 157.715 553.247 157.1C553.712 156.48 553.951 155.593 553.965 154.44V153.702ZM559.673 155.288H556.337V154.256H559.673V155.288ZM562.619 153.408H563.569C564.166 153.399 564.636 153.242 564.978 152.937C565.319 152.631 565.49 152.219 565.49 151.699C565.49 150.533 564.909 149.949 563.747 149.949C563.2 149.949 562.763 150.106 562.435 150.421C562.111 150.731 561.949 151.143 561.949 151.658H560.685C560.685 150.87 560.972 150.216 561.546 149.696C562.125 149.172 562.858 148.91 563.747 148.91C564.686 148.91 565.422 149.159 565.955 149.655C566.488 150.152 566.755 150.842 566.755 151.727C566.755 152.16 566.614 152.579 566.331 152.984C566.053 153.39 565.673 153.693 565.189 153.894C565.736 154.067 566.158 154.354 566.454 154.755C566.755 155.156 566.905 155.646 566.905 156.225C566.905 157.118 566.614 157.826 566.03 158.351C565.447 158.875 564.688 159.137 563.754 159.137C562.82 159.137 562.059 158.884 561.471 158.378C560.887 157.872 560.596 157.204 560.596 156.375H561.867C561.867 156.899 562.038 157.318 562.38 157.633C562.722 157.947 563.18 158.104 563.754 158.104C564.365 158.104 564.832 157.945 565.155 157.626C565.479 157.307 565.641 156.849 565.641 156.252C565.641 155.673 565.463 155.229 565.107 154.919C564.752 154.609 564.239 154.45 563.569 154.44H562.619V153.408Z" fill="#2874BB"/>
</g>
<circle cx="334" cy="251" r="32.5" stroke="#36B27E" stroke-width="3"/>
<line x1="306.658" y1="266.348" x2="181.658" y2="327.348" stroke="#36B27E" stroke-width="3"/>
<path d="M8.60645 329.76C8.50618 330.822 8.11426 331.651 7.43066 332.248C6.74707 332.84 5.83789 333.137 4.70312 333.137C3.91016 333.137 3.21061 332.95 2.60449 332.576C2.00293 332.198 1.53809 331.662 1.20996 330.97C0.881836 330.277 0.710938 329.473 0.697266 328.557V327.627C0.697266 326.688 0.863607 325.861 1.19629 325.146C1.52897 324.43 2.00521 323.879 2.625 323.491C3.24935 323.104 3.9694 322.91 4.78516 322.91C5.88346 322.91 6.76758 323.209 7.4375 323.806C8.10742 324.403 8.49707 325.246 8.60645 326.335H6.88379C6.80176 325.619 6.59212 325.104 6.25488 324.79C5.9222 324.471 5.43229 324.312 4.78516 324.312C4.0332 324.312 3.45443 324.587 3.04883 325.139C2.64779 325.686 2.44271 326.49 2.43359 327.552V328.434C2.43359 329.509 2.625 330.329 3.00781 330.895C3.39518 331.46 3.96029 331.742 4.70312 331.742C5.38216 331.742 5.89258 331.59 6.23438 331.284C6.57617 330.979 6.79264 330.471 6.88379 329.76H8.60645ZM13.8701 327.121C13.6514 327.085 13.4258 327.066 13.1934 327.066C12.4323 327.066 11.9196 327.358 11.6553 327.941V333H9.99414V325.604H11.5801L11.6211 326.431C12.0221 325.788 12.5781 325.467 13.2891 325.467C13.526 325.467 13.722 325.499 13.877 325.562L13.8701 327.121ZM18.04 333.137C16.9873 333.137 16.1328 332.806 15.4766 332.146C14.8249 331.48 14.499 330.596 14.499 329.493V329.288C14.499 328.55 14.6403 327.891 14.9229 327.312C15.21 326.729 15.611 326.276 16.126 325.952C16.641 325.629 17.2152 325.467 17.8486 325.467C18.8558 325.467 19.6328 325.788 20.1797 326.431C20.7311 327.073 21.0068 327.982 21.0068 329.158V329.828H16.1738C16.224 330.439 16.4268 330.922 16.7822 331.277C17.1423 331.633 17.5934 331.811 18.1357 331.811C18.8968 331.811 19.5166 331.503 19.9951 330.888L20.8906 331.742C20.5944 332.184 20.1979 332.528 19.7012 332.774C19.209 333.016 18.6553 333.137 18.04 333.137ZM17.8418 326.8C17.3861 326.8 17.0169 326.959 16.7344 327.278C16.4564 327.597 16.2786 328.042 16.2012 328.611H19.3662V328.488C19.3298 327.932 19.1816 327.513 18.9219 327.23C18.6621 326.943 18.3021 326.8 17.8418 326.8ZM26.7217 333C26.6488 332.859 26.585 332.629 26.5303 332.31C26.0016 332.861 25.3545 333.137 24.5889 333.137C23.846 333.137 23.2399 332.925 22.7705 332.501C22.3011 332.077 22.0664 331.553 22.0664 330.929C22.0664 330.14 22.3581 329.536 22.9414 329.117C23.5293 328.693 24.3678 328.481 25.457 328.481H26.4756V327.996C26.4756 327.613 26.3685 327.308 26.1543 327.08C25.9401 326.848 25.6143 326.731 25.1768 326.731C24.7985 326.731 24.4886 326.827 24.2471 327.019C24.0055 327.205 23.8848 327.445 23.8848 327.736H22.2236C22.2236 327.331 22.3581 326.952 22.627 326.602C22.8958 326.246 23.2604 325.968 23.7207 325.768C24.1855 325.567 24.7028 325.467 25.2725 325.467C26.1383 325.467 26.8288 325.686 27.3438 326.123C27.8587 326.556 28.123 327.167 28.1367 327.955V331.291C28.1367 331.956 28.2301 332.487 28.417 332.884V333H26.7217ZM24.8965 331.804C25.2246 331.804 25.5322 331.724 25.8193 331.564C26.111 331.405 26.3298 331.191 26.4756 330.922V329.527H25.5801C24.9648 329.527 24.5023 329.634 24.1924 329.849C23.8825 330.063 23.7275 330.366 23.7275 330.758C23.7275 331.077 23.8324 331.332 24.042 331.523C24.2562 331.71 24.541 331.804 24.8965 331.804ZM31.958 323.806V325.604H33.2637V326.834H31.958V330.963C31.958 331.245 32.0127 331.451 32.1221 331.578C32.236 331.701 32.4365 331.763 32.7236 331.763C32.915 331.763 33.1087 331.74 33.3047 331.694V332.979C32.9264 333.084 32.5618 333.137 32.2109 333.137C30.9349 333.137 30.2969 332.433 30.2969 331.024V326.834H29.0801V325.604H30.2969V323.806H31.958ZM37.7959 333.137C36.7432 333.137 35.8887 332.806 35.2324 332.146C34.5807 331.48 34.2549 330.596 34.2549 329.493V329.288C34.2549 328.55 34.3962 327.891 34.6787 327.312C34.9658 326.729 35.3669 326.276 35.8818 325.952C36.3968 325.629 36.971 325.467 37.6045 325.467C38.6117 325.467 39.3887 325.788 39.9355 326.431C40.487 327.073 40.7627 327.982 40.7627 329.158V329.828H35.9297C35.9798 330.439 36.1826 330.922 36.5381 331.277C36.8981 331.633 37.3493 331.811 37.8916 331.811C38.6527 331.811 39.2725 331.503 39.751 330.888L40.6465 331.742C40.3503 332.184 39.9538 332.528 39.457 332.774C38.9648 333.016 38.4111 333.137 37.7959 333.137ZM37.5977 326.8C37.1419 326.8 36.7728 326.959 36.4902 327.278C36.2122 327.597 36.0345 328.042 35.957 328.611H39.1221V328.488C39.0856 327.932 38.9375 327.513 38.6777 327.23C38.418 326.943 38.0579 326.8 37.5977 326.8ZM47.3115 333H45.6504V325.604H47.3115V333ZM45.5479 323.683C45.5479 323.427 45.6276 323.215 45.7871 323.047C45.9512 322.878 46.1836 322.794 46.4844 322.794C46.7852 322.794 47.0176 322.878 47.1816 323.047C47.3457 323.215 47.4277 323.427 47.4277 323.683C47.4277 323.933 47.3457 324.143 47.1816 324.312C47.0176 324.476 46.7852 324.558 46.4844 324.558C46.1836 324.558 45.9512 324.476 45.7871 324.312C45.6276 324.143 45.5479 323.933 45.5479 323.683ZM53.2725 330.99C53.2725 330.694 53.1494 330.468 52.9033 330.313C52.6618 330.159 52.2585 330.022 51.6934 329.903C51.1283 329.785 50.6566 329.634 50.2783 329.452C49.4489 329.051 49.0342 328.47 49.0342 327.709C49.0342 327.071 49.3031 326.538 49.8408 326.109C50.3786 325.681 51.0622 325.467 51.8916 325.467C52.7757 325.467 53.4889 325.686 54.0312 326.123C54.5781 326.561 54.8516 327.128 54.8516 327.825H53.1904C53.1904 327.506 53.0719 327.242 52.835 327.032C52.598 326.818 52.2835 326.711 51.8916 326.711C51.527 326.711 51.2285 326.795 50.9961 326.964C50.7682 327.132 50.6543 327.358 50.6543 327.641C50.6543 327.896 50.7614 328.094 50.9756 328.235C51.1898 328.377 51.6227 328.52 52.2744 328.666C52.9261 328.807 53.4365 328.978 53.8057 329.179C54.1794 329.375 54.4551 329.612 54.6328 329.89C54.8151 330.168 54.9062 330.505 54.9062 330.901C54.9062 331.567 54.6305 332.107 54.0791 332.521C53.5277 332.932 52.8053 333.137 51.9121 333.137C51.306 333.137 50.766 333.027 50.292 332.809C49.818 332.59 49.4489 332.289 49.1846 331.906C48.9202 331.523 48.7881 331.111 48.7881 330.669H50.4014C50.4242 331.061 50.5723 331.364 50.8457 331.578C51.1191 331.788 51.4814 331.893 51.9326 331.893C52.3701 331.893 52.7028 331.811 52.9307 331.646C53.1585 331.478 53.2725 331.259 53.2725 330.99ZM60.5049 330.99C60.5049 330.694 60.3818 330.468 60.1357 330.313C59.8942 330.159 59.4909 330.022 58.9258 329.903C58.3607 329.785 57.889 329.634 57.5107 329.452C56.6813 329.051 56.2666 328.47 56.2666 327.709C56.2666 327.071 56.5355 326.538 57.0732 326.109C57.611 325.681 58.2946 325.467 59.124 325.467C60.0081 325.467 60.7214 325.686 61.2637 326.123C61.8105 326.561 62.084 327.128 62.084 327.825H60.4229C60.4229 327.506 60.3044 327.242 60.0674 327.032C59.8304 326.818 59.516 326.711 59.124 326.711C58.7594 326.711 58.4609 326.795 58.2285 326.964C58.0007 327.132 57.8867 327.358 57.8867 327.641C57.8867 327.896 57.9938 328.094 58.208 328.235C58.4222 328.377 58.8551 328.52 59.5068 328.666C60.1585 328.807 60.6689 328.978 61.0381 329.179C61.4118 329.375 61.6875 329.612 61.8652 329.89C62.0475 330.168 62.1387 330.505 62.1387 330.901C62.1387 331.567 61.863 332.107 61.3115 332.521C60.7601 332.932 60.0378 333.137 59.1445 333.137C58.5384 333.137 57.9984 333.027 57.5244 332.809C57.0505 332.59 56.6813 332.289 56.417 331.906C56.1527 331.523 56.0205 331.111 56.0205 330.669H57.6338C57.6566 331.061 57.8047 331.364 58.0781 331.578C58.3516 331.788 58.7139 331.893 59.165 331.893C59.6025 331.893 59.9352 331.811 60.1631 331.646C60.391 331.478 60.5049 331.259 60.5049 330.99ZM68.0723 332.275C67.5846 332.85 66.8919 333.137 65.9941 333.137C65.1921 333.137 64.5837 332.902 64.1689 332.433C63.7588 331.963 63.5537 331.284 63.5537 330.396V325.604H65.2148V330.375C65.2148 331.314 65.6045 331.783 66.3838 331.783C67.1904 331.783 67.735 331.494 68.0176 330.915V325.604H69.6787V333H68.1133L68.0723 332.275ZM74.6279 333.137C73.5752 333.137 72.7207 332.806 72.0645 332.146C71.4128 331.48 71.0869 330.596 71.0869 329.493V329.288C71.0869 328.55 71.2282 327.891 71.5107 327.312C71.7979 326.729 72.1989 326.276 72.7139 325.952C73.2288 325.629 73.8031 325.467 74.4365 325.467C75.4437 325.467 76.2207 325.788 76.7676 326.431C77.319 327.073 77.5947 327.982 77.5947 329.158V329.828H72.7617C72.8118 330.439 73.0146 330.922 73.3701 331.277C73.7301 331.633 74.1813 331.811 74.7236 331.811C75.4847 331.811 76.1045 331.503 76.583 330.888L77.4785 331.742C77.1823 332.184 76.7858 332.528 76.2891 332.774C75.7969 333.016 75.2432 333.137 74.6279 333.137ZM74.4297 326.8C73.974 326.8 73.6048 326.959 73.3223 327.278C73.0443 327.597 72.8665 328.042 72.7891 328.611H75.9541V328.488C75.9176 327.932 75.7695 327.513 75.5098 327.23C75.25 326.943 74.89 326.8 74.4297 326.8ZM83.0361 330.99C83.0361 330.694 82.9131 330.468 82.667 330.313C82.4255 330.159 82.0221 330.022 81.457 329.903C80.8919 329.785 80.4202 329.634 80.042 329.452C79.2126 329.051 78.7979 328.47 78.7979 327.709C78.7979 327.071 79.0667 326.538 79.6045 326.109C80.1423 325.681 80.8258 325.467 81.6553 325.467C82.5394 325.467 83.2526 325.686 83.7949 326.123C84.3418 326.561 84.6152 327.128 84.6152 327.825H82.9541C82.9541 327.506 82.8356 327.242 82.5986 327.032C82.3617 326.818 82.0472 326.711 81.6553 326.711C81.2907 326.711 80.9922 326.795 80.7598 326.964C80.5319 327.132 80.418 327.358 80.418 327.641C80.418 327.896 80.5251 328.094 80.7393 328.235C80.9535 328.377 81.3864 328.52 82.0381 328.666C82.6898 328.807 83.2002 328.978 83.5693 329.179C83.943 329.375 84.2188 329.612 84.3965 329.89C84.5788 330.168 84.6699 330.505 84.6699 330.901C84.6699 331.567 84.3942 332.107 83.8428 332.521C83.2913 332.932 82.569 333.137 81.6758 333.137C81.0697 333.137 80.5296 333.027 80.0557 332.809C79.5817 332.59 79.2126 332.289 78.9482 331.906C78.6839 331.523 78.5518 331.111 78.5518 330.669H80.165C80.1878 331.061 80.3359 331.364 80.6094 331.578C80.8828 331.788 81.2451 331.893 81.6963 331.893C82.1338 331.893 82.4665 331.811 82.6943 331.646C82.9222 331.478 83.0361 331.259 83.0361 330.99ZM89.2979 329.247C89.2979 328.108 89.5622 327.194 90.0908 326.506C90.6195 325.813 91.3281 325.467 92.2168 325.467C93.0007 325.467 93.6341 325.74 94.1172 326.287V322.5H95.7783V333H94.2744L94.1924 332.234C93.6956 332.836 93.0326 333.137 92.2031 333.137C91.3372 333.137 90.6354 332.788 90.0977 332.091C89.5645 331.394 89.2979 330.446 89.2979 329.247ZM90.959 329.391C90.959 330.143 91.1025 330.73 91.3896 331.154C91.6813 331.574 92.0938 331.783 92.627 331.783C93.306 331.783 93.8027 331.48 94.1172 330.874V327.716C93.8118 327.123 93.3197 326.827 92.6406 326.827C92.1029 326.827 91.6882 327.041 91.3965 327.47C91.1048 327.894 90.959 328.534 90.959 329.391ZM99.2783 333H97.6172V325.604H99.2783V333ZM97.5146 323.683C97.5146 323.427 97.5944 323.215 97.7539 323.047C97.918 322.878 98.1504 322.794 98.4512 322.794C98.752 322.794 98.9844 322.878 99.1484 323.047C99.3125 323.215 99.3945 323.427 99.3945 323.683C99.3945 323.933 99.3125 324.143 99.1484 324.312C98.9844 324.476 98.752 324.558 98.4512 324.558C98.1504 324.558 97.918 324.476 97.7539 324.312C97.5944 324.143 97.5146 323.933 97.5146 323.683ZM104.966 327.121C104.747 327.085 104.521 327.066 104.289 327.066C103.528 327.066 103.015 327.358 102.751 327.941V333H101.09V325.604H102.676L102.717 326.431C103.118 325.788 103.674 325.467 104.385 325.467C104.622 325.467 104.818 325.499 104.973 325.562L104.966 327.121ZM109.136 333.137C108.083 333.137 107.229 332.806 106.572 332.146C105.921 331.48 105.595 330.596 105.595 329.493V329.288C105.595 328.55 105.736 327.891 106.019 327.312C106.306 326.729 106.707 326.276 107.222 325.952C107.737 325.629 108.311 325.467 108.944 325.467C109.951 325.467 110.729 325.788 111.275 326.431C111.827 327.073 112.103 327.982 112.103 329.158V329.828H107.27C107.32 330.439 107.522 330.922 107.878 331.277C108.238 331.633 108.689 331.811 109.231 331.811C109.993 331.811 110.612 331.503 111.091 330.888L111.986 331.742C111.69 332.184 111.294 332.528 110.797 332.774C110.305 333.016 109.751 333.137 109.136 333.137ZM108.938 326.8C108.482 326.8 108.113 326.959 107.83 327.278C107.552 327.597 107.374 328.042 107.297 328.611H110.462V328.488C110.425 327.932 110.277 327.513 110.018 327.23C109.758 326.943 109.398 326.8 108.938 326.8ZM116.437 331.811C116.851 331.811 117.195 331.69 117.469 331.448C117.742 331.207 117.888 330.908 117.906 330.553H119.472C119.453 331.013 119.31 331.444 119.041 331.845C118.772 332.241 118.408 332.556 117.947 332.788C117.487 333.021 116.99 333.137 116.457 333.137C115.423 333.137 114.602 332.802 113.996 332.132C113.39 331.462 113.087 330.537 113.087 329.356V329.186C113.087 328.06 113.388 327.16 113.989 326.485C114.591 325.806 115.411 325.467 116.45 325.467C117.33 325.467 118.045 325.724 118.597 326.239C119.153 326.75 119.444 327.422 119.472 328.256H117.906C117.888 327.832 117.742 327.483 117.469 327.21C117.2 326.937 116.856 326.8 116.437 326.8C115.899 326.8 115.484 326.996 115.192 327.388C114.901 327.775 114.753 328.365 114.748 329.158V329.425C114.748 330.227 114.892 330.826 115.179 331.223C115.47 331.615 115.89 331.811 116.437 331.811ZM122.808 323.806V325.604H124.113V326.834H122.808V330.963C122.808 331.245 122.862 331.451 122.972 331.578C123.086 331.701 123.286 331.763 123.573 331.763C123.765 331.763 123.958 331.74 124.154 331.694V332.979C123.776 333.084 123.411 333.137 123.061 333.137C121.785 333.137 121.146 332.433 121.146 331.024V326.834H119.93V325.604H121.146V323.806H122.808ZM127.155 333H125.494V322.5H127.155V333ZM131.558 330.621L133.062 325.604H134.832L131.893 334.121C131.441 335.365 130.676 335.987 129.596 335.987C129.354 335.987 129.088 335.946 128.796 335.864V334.579L129.11 334.6C129.53 334.6 129.844 334.522 130.054 334.367C130.268 334.217 130.437 333.962 130.56 333.602L130.799 332.966L128.201 325.604H129.992L131.558 330.621ZM139.863 333V326.834H138.735V325.604H139.863V324.927C139.863 324.106 140.091 323.473 140.547 323.026C141.003 322.58 141.641 322.356 142.461 322.356C142.753 322.356 143.062 322.397 143.391 322.479L143.35 323.778C143.167 323.742 142.955 323.724 142.714 323.724C141.921 323.724 141.524 324.132 141.524 324.947V325.604H143.028V326.834H141.524V333H139.863ZM148.114 327.121C147.896 327.085 147.67 327.066 147.438 327.066C146.676 327.066 146.164 327.358 145.899 327.941V333H144.238V325.604H145.824L145.865 326.431C146.266 325.788 146.822 325.467 147.533 325.467C147.77 325.467 147.966 325.499 148.121 325.562L148.114 327.121ZM148.606 329.233C148.606 328.509 148.75 327.857 149.037 327.278C149.324 326.695 149.728 326.248 150.247 325.938C150.767 325.624 151.364 325.467 152.038 325.467C153.036 325.467 153.845 325.788 154.465 326.431C155.089 327.073 155.426 327.925 155.477 328.987L155.483 329.377C155.483 330.106 155.342 330.758 155.06 331.332C154.782 331.906 154.381 332.351 153.856 332.665C153.337 332.979 152.735 333.137 152.052 333.137C151.008 333.137 150.172 332.79 149.543 332.098C148.919 331.4 148.606 330.473 148.606 329.315V329.233ZM150.268 329.377C150.268 330.138 150.425 330.735 150.739 331.168C151.054 331.596 151.491 331.811 152.052 331.811C152.612 331.811 153.048 331.592 153.357 331.154C153.672 330.717 153.829 330.076 153.829 329.233C153.829 328.486 153.667 327.894 153.344 327.456C153.025 327.019 152.59 326.8 152.038 326.8C151.496 326.8 151.065 327.016 150.746 327.449C150.427 327.878 150.268 328.52 150.268 329.377ZM158.45 325.604L158.498 326.376C159.018 325.77 159.729 325.467 160.631 325.467C161.62 325.467 162.297 325.845 162.661 326.602C163.199 325.845 163.955 325.467 164.931 325.467C165.746 325.467 166.353 325.692 166.749 326.144C167.15 326.595 167.355 327.26 167.364 328.14V333H165.703V328.188C165.703 327.718 165.601 327.374 165.396 327.155C165.19 326.937 164.851 326.827 164.377 326.827C163.999 326.827 163.689 326.93 163.447 327.135C163.21 327.335 163.044 327.6 162.948 327.928L162.955 333H161.294V328.133C161.271 327.262 160.827 326.827 159.961 326.827C159.296 326.827 158.824 327.098 158.546 327.641V333H156.885V325.604H158.45ZM2.93262 343.806V345.604H4.23828V346.834H2.93262V350.963C2.93262 351.245 2.9873 351.451 3.09668 351.578C3.21061 351.701 3.41113 351.763 3.69824 351.763C3.88965 351.763 4.08333 351.74 4.2793 351.694V352.979C3.90104 353.084 3.53646 353.137 3.18555 353.137C1.90951 353.137 1.27148 352.433 1.27148 351.024V346.834H0.0546875V345.604H1.27148V343.806H2.93262ZM7.15039 346.41C7.69271 345.781 8.37858 345.467 9.20801 345.467C10.7848 345.467 11.5846 346.367 11.6074 348.167V353H9.94629V348.229C9.94629 347.718 9.83464 347.358 9.61133 347.148C9.39258 346.934 9.06901 346.827 8.64062 346.827C7.97526 346.827 7.47852 347.123 7.15039 347.716V353H5.48926V342.5H7.15039V346.41ZM16.5498 353.137C15.4971 353.137 14.6426 352.806 13.9863 352.146C13.3346 351.48 13.0088 350.596 13.0088 349.493V349.288C13.0088 348.55 13.1501 347.891 13.4326 347.312C13.7197 346.729 14.1208 346.276 14.6357 345.952C15.1507 345.629 15.7249 345.467 16.3584 345.467C17.3656 345.467 18.1426 345.788 18.6895 346.431C19.2409 347.073 19.5166 347.982 19.5166 349.158V349.828H14.6836C14.7337 350.439 14.9365 350.922 15.292 351.277C15.652 351.633 16.1032 351.811 16.6455 351.811C17.4066 351.811 18.0264 351.503 18.5049 350.888L19.4004 351.742C19.1042 352.184 18.7077 352.528 18.2109 352.774C17.7188 353.016 17.165 353.137 16.5498 353.137ZM16.3516 346.8C15.8958 346.8 15.5267 346.959 15.2441 347.278C14.9661 347.597 14.7884 348.042 14.7109 348.611H17.876V348.488C17.8395 347.932 17.6914 347.513 17.4316 347.23C17.1719 346.943 16.8118 346.8 16.3516 346.8ZM28.4443 350.99C28.4443 350.694 28.3213 350.468 28.0752 350.313C27.8337 350.159 27.4303 350.022 26.8652 349.903C26.3001 349.785 25.8285 349.634 25.4502 349.452C24.6208 349.051 24.2061 348.47 24.2061 347.709C24.2061 347.071 24.4749 346.538 25.0127 346.109C25.5505 345.681 26.234 345.467 27.0635 345.467C27.9476 345.467 28.6608 345.686 29.2031 346.123C29.75 346.561 30.0234 347.128 30.0234 347.825H28.3623C28.3623 347.506 28.2438 347.242 28.0068 347.032C27.7699 346.818 27.4554 346.711 27.0635 346.711C26.6989 346.711 26.4004 346.795 26.168 346.964C25.9401 347.132 25.8262 347.358 25.8262 347.641C25.8262 347.896 25.9333 348.094 26.1475 348.235C26.3617 348.377 26.7946 348.52 27.4463 348.666C28.098 348.807 28.6084 348.978 28.9775 349.179C29.3512 349.375 29.627 349.612 29.8047 349.89C29.987 350.168 30.0781 350.505 30.0781 350.901C30.0781 351.567 29.8024 352.107 29.251 352.521C28.6995 352.932 27.9772 353.137 27.084 353.137C26.4779 353.137 25.9378 353.027 25.4639 352.809C24.9899 352.59 24.6208 352.289 24.3564 351.906C24.0921 351.523 23.96 351.111 23.96 350.669H25.5732C25.596 351.061 25.7441 351.364 26.0176 351.578C26.291 351.788 26.6533 351.893 27.1045 351.893C27.542 351.893 27.8747 351.811 28.1025 351.646C28.3304 351.478 28.4443 351.259 28.4443 350.99ZM33.6123 343.806V345.604H34.918V346.834H33.6123V350.963C33.6123 351.245 33.667 351.451 33.7764 351.578C33.8903 351.701 34.0908 351.763 34.3779 351.763C34.5693 351.763 34.763 351.74 34.959 351.694V352.979C34.5807 353.084 34.2161 353.137 33.8652 353.137C32.5892 353.137 31.9512 352.433 31.9512 351.024V346.834H30.7344V345.604H31.9512V343.806H33.6123ZM35.6768 349.233C35.6768 348.509 35.8203 347.857 36.1074 347.278C36.3945 346.695 36.7979 346.248 37.3174 345.938C37.8369 345.624 38.4339 345.467 39.1084 345.467C40.1064 345.467 40.9154 345.788 41.5352 346.431C42.1595 347.073 42.4967 347.925 42.5469 348.987L42.5537 349.377C42.5537 350.106 42.4124 350.758 42.1299 351.332C41.8519 351.906 41.4508 352.351 40.9268 352.665C40.4072 352.979 39.8057 353.137 39.1221 353.137C38.0785 353.137 37.2422 352.79 36.6133 352.098C35.9889 351.4 35.6768 350.473 35.6768 349.315V349.233ZM37.3379 349.377C37.3379 350.138 37.4951 350.735 37.8096 351.168C38.124 351.596 38.5615 351.811 39.1221 351.811C39.6826 351.811 40.1178 351.592 40.4277 351.154C40.7422 350.717 40.8994 350.076 40.8994 349.233C40.8994 348.486 40.7376 347.894 40.4141 347.456C40.0951 347.019 39.6598 346.8 39.1084 346.8C38.5661 346.8 38.1354 347.016 37.8164 347.449C37.4974 347.878 37.3379 348.52 37.3379 349.377ZM47.8311 347.121C47.6123 347.085 47.3867 347.066 47.1543 347.066C46.3932 347.066 45.8805 347.358 45.6162 347.941V353H43.9551V345.604H45.541L45.582 346.431C45.9831 345.788 46.5391 345.467 47.25 345.467C47.487 345.467 47.6829 345.499 47.8379 345.562L47.8311 347.121ZM51.5908 350.621L53.0947 345.604H54.8652L51.9258 354.121C51.4746 355.365 50.709 355.987 49.6289 355.987C49.3874 355.987 49.1208 355.946 48.8291 355.864V354.579L49.1436 354.6C49.5628 354.6 49.8773 354.522 50.0869 354.367C50.3011 354.217 50.4697 353.962 50.5928 353.602L50.832 352.966L48.2344 345.604H50.0254L51.5908 350.621ZM60.874 345.604L60.9219 346.376C61.4414 345.77 62.1523 345.467 63.0547 345.467C64.0436 345.467 64.7204 345.845 65.085 346.602C65.6227 345.845 66.3792 345.467 67.3545 345.467C68.1702 345.467 68.7764 345.692 69.1729 346.144C69.5739 346.595 69.779 347.26 69.7881 348.14V353H68.127V348.188C68.127 347.718 68.0244 347.374 67.8193 347.155C67.6143 346.937 67.2747 346.827 66.8008 346.827C66.4225 346.827 66.1126 346.93 65.8711 347.135C65.6341 347.335 65.4678 347.6 65.3721 347.928L65.3789 353H63.7178V348.133C63.695 347.262 63.2507 346.827 62.3848 346.827C61.7194 346.827 61.2477 347.098 60.9697 347.641V353H59.3086V345.604H60.874ZM75.9131 353C75.8402 352.859 75.7764 352.629 75.7217 352.31C75.193 352.861 74.5459 353.137 73.7803 353.137C73.0374 353.137 72.4313 352.925 71.9619 352.501C71.4925 352.077 71.2578 351.553 71.2578 350.929C71.2578 350.14 71.5495 349.536 72.1328 349.117C72.7207 348.693 73.5592 348.481 74.6484 348.481H75.667V347.996C75.667 347.613 75.5599 347.308 75.3457 347.08C75.1315 346.848 74.8057 346.731 74.3682 346.731C73.9899 346.731 73.68 346.827 73.4385 347.019C73.1969 347.205 73.0762 347.445 73.0762 347.736H71.415C71.415 347.331 71.5495 346.952 71.8184 346.602C72.0872 346.246 72.4518 345.968 72.9121 345.768C73.377 345.567 73.8942 345.467 74.4639 345.467C75.3298 345.467 76.0202 345.686 76.5352 346.123C77.0501 346.556 77.3145 347.167 77.3281 347.955V351.291C77.3281 351.956 77.4215 352.487 77.6084 352.884V353H75.9131ZM74.0879 351.804C74.416 351.804 74.7236 351.724 75.0107 351.564C75.3024 351.405 75.5212 351.191 75.667 350.922V349.527H74.7715C74.1562 349.527 73.6937 349.634 73.3838 349.849C73.0739 350.063 72.9189 350.366 72.9189 350.758C72.9189 351.077 73.0238 351.332 73.2334 351.523C73.4476 351.71 73.7324 351.804 74.0879 351.804ZM85.5449 349.377C85.5449 350.521 85.2852 351.435 84.7656 352.118C84.2461 352.797 83.5488 353.137 82.6738 353.137C81.8626 353.137 81.2132 352.87 80.7256 352.337V355.844H79.0645V345.604H80.5957L80.6641 346.355C81.1517 345.763 81.8148 345.467 82.6533 345.467C83.5557 345.467 84.262 345.804 84.7725 346.479C85.2874 347.148 85.5449 348.08 85.5449 349.274V349.377ZM83.8906 349.233C83.8906 348.495 83.7425 347.91 83.4463 347.477C83.1546 347.044 82.7354 346.827 82.1885 346.827C81.5094 346.827 81.0218 347.107 80.7256 347.668V350.949C81.0264 351.523 81.5186 351.811 82.2021 351.811C82.7308 351.811 83.1432 351.599 83.4395 351.175C83.7402 350.746 83.8906 350.099 83.8906 349.233Z" fill="#36B27E"/>
<defs>
<filter id="filter0_d" x="506" y="222" width="234" height="92" filterUnits="userSpaceOnUse" color-interpolation-filters="sRGB">
<feFlood flood-opacity="0" result="BackgroundImageFix"/>
<feColorMatrix in="SourceAlpha" type="matrix" values="0 0 0 0 0 0 0 0 0 0 0 0 0 0 0 0 0 0 127 0"/>
<feOffset dx="2" dy="3"/>
<feGaussianBlur stdDeviation="2"/>
<feColorMatrix type="matrix" values="0 0 0 0 0 0 0 0 0 0 0 0 0 0 0 0 0 0 0.15 0"/>
<feBlend mode="normal" in2="BackgroundImageFix" result="effect1_dropShadow"/>
<feBlend mode="normal" in="SourceGraphic" in2="effect1_dropShadow" result="shape"/>
</filter>
<filter id="filter1_dd" x="500" y="219" width="242" height="100" filterUnits="userSpaceOnUse" color-interpolation-filters="sRGB">
<feFlood flood-opacity="0" result="BackgroundImageFix"/>
<feColorMatrix in="SourceAlpha" type="matrix" values="0 0 0 0 0 0 0 0 0 0 0 0 0 0 0 0 0 0 127 0"/>
<feOffset dy="4"/>
<feGaussianBlur stdDeviation="4"/>
<feColorMatrix type="matrix" values="0 0 0 0 0.0352941 0 0 0 0 0.117647 0 0 0 0 0.258824 0 0 0 0.25 0"/>
<feBlend mode="normal" in2="BackgroundImageFix" result="effect1_dropShadow"/>
<feColorMatrix in="SourceAlpha" type="matrix" values="0 0 0 0 0 0 0 0 0 0 0 0 0 0 0 0 0 0 127 0"/>
<feOffset/>
<feGaussianBlur stdDeviation="0.5"/>
<feColorMatrix type="matrix" values="0 0 0 0 0.0352941 0 0 0 0 0.117647 0 0 0 0 0.258824 0 0 0 0.31 0"/>
<feBlend mode="normal" in2="effect1_dropShadow" result="effect2_dropShadow"/>
<feBlend mode="normal" in="SourceGraphic" in2="effect2_dropShadow" result="shape"/>
</filter>
<filter id="filter2_d" x="256" y="127" width="234" height="92" filterUnits="userSpaceOnUse" color-interpolation-filters="sRGB">
<feFlood flood-opacity="0" result="BackgroundImageFix"/>
<feColorMatrix in="SourceAlpha" type="matrix" values="0 0 0 0 0 0 0 0 0 0 0 0 0 0 0 0 0 0 127 0"/>
<feOffset dx="2" dy="3"/>
<feGaussianBlur stdDeviation="2"/>
<feColorMatrix type="matrix" values="0 0 0 0 0 0 0 0 0 0 0 0 0 0 0 0 0 0 0.15 0"/>
<feBlend mode="normal" in2="BackgroundImageFix" result="effect1_dropShadow"/>
<feBlend mode="normal" in="SourceGraphic" in2="effect1_dropShadow" result="shape"/>
</filter>
<filter id="filter3_dd" x="250" y="124" width="242" height="100" filterUnits="userSpaceOnUse" color-interpolation-filters="sRGB">
<feFlood flood-opacity="0" result="BackgroundImageFix"/>
<feColorMatrix in="SourceAlpha" type="matrix" values="0 0 0 0 0 0 0 0 0 0 0 0 0 0 0 0 0 0 127 0"/>
<feOffset dy="4"/>
<feGaussianBlur stdDeviation="4"/>
<feColorMatrix type="matrix" values="0 0 0 0 0.0352941 0 0 0 0 0.117647 0 0 0 0 0.258824 0 0 0 0.25 0"/>
<feBlend mode="normal" in2="BackgroundImageFix" result="effect1_dropShadow"/>
<feColorMatrix in="SourceAlpha" type="matrix" values="0 0 0 0 0 0 0 0 0 0 0 0 0 0 0 0 0 0 127 0"/>
<feOffset/>
<feGaussianBlur stdDeviation="0.5"/>
<feColorMatrix type="matrix" values="0 0 0 0 0.0352941 0 0 0 0 0.117647 0 0 0 0 0.258824 0 0 0 0.31 0"/>
<feBlend mode="normal" in2="effect1_dropShadow" result="effect2_dropShadow"/>
<feBlend mode="normal" in="SourceGraphic" in2="effect2_dropShadow" result="shape"/>
</filter>
<filter id="filter4_d" x="256" y="0" width="234" height="92" filterUnits="userSpaceOnUse" color-interpolation-filters="sRGB">
<feFlood flood-opacity="0" result="BackgroundImageFix"/>
<feColorMatrix in="SourceAlpha" type="matrix" values="0 0 0 0 0 0 0 0 0 0 0 0 0 0 0 0 0 0 127 0"/>
<feOffset dx="2" dy="3"/>
<feGaussianBlur stdDeviation="2"/>
<feColorMatrix type="matrix" values="0 0 0 0 0 0 0 0 0 0 0 0 0 0 0 0 0 0 0.15 0"/>
<feBlend mode="normal" in2="BackgroundImageFix" result="effect1_dropShadow"/>
<feBlend mode="normal" in="SourceGraphic" in2="effect1_dropShadow" result="shape"/>
</filter>
<filter id="filter5_dd" x="250" y="-3" width="242" height="100" filterUnits="userSpaceOnUse" color-interpolation-filters="sRGB">
<feFlood flood-opacity="0" result="BackgroundImageFix"/>
<feColorMatrix in="SourceAlpha" type="matrix" values="0 0 0 0 0 0 0 0 0 0 0 0 0 0 0 0 0 0 127 0"/>
<feOffset dy="4"/>
<feGaussianBlur stdDeviation="4"/>
<feColorMatrix type="matrix" values="0 0 0 0 0.0352941 0 0 0 0 0.117647 0 0 0 0 0.258824 0 0 0 0.25 0"/>
<feBlend mode="normal" in2="BackgroundImageFix" result="effect1_dropShadow"/>
<feColorMatrix in="SourceAlpha" type="matrix" values="0 0 0 0 0 0 0 0 0 0 0 0 0 0 0 0 0 0 127 0"/>
<feOffset/>
<feGaussianBlur stdDeviation="0.5"/>
<feColorMatrix type="matrix" values="0 0 0 0 0.0352941 0 0 0 0 0.117647 0 0 0 0 0.258824 0 0 0 0.31 0"/>
<feBlend mode="normal" in2="effect1_dropShadow" result="effect2_dropShadow"/>
<feBlend mode="normal" in="SourceGraphic" in2="effect2_dropShadow" result="shape"/>
</filter>
<filter id="filter6_d" x="506" y="0" width="234" height="92" filterUnits="userSpaceOnUse" color-interpolation-filters="sRGB">
<feFlood flood-opacity="0" result="BackgroundImageFix"/>
<feColorMatrix in="SourceAlpha" type="matrix" values="0 0 0 0 0 0 0 0 0 0 0 0 0 0 0 0 0 0 127 0"/>
<feOffset dx="2" dy="3"/>
<feGaussianBlur stdDeviation="2"/>
<feColorMatrix type="matrix" values="0 0 0 0 0 0 0 0 0 0 0 0 0 0 0 0 0 0 0.15 0"/>
<feBlend mode="normal" in2="BackgroundImageFix" result="effect1_dropShadow"/>
<feBlend mode="normal" in="SourceGraphic" in2="effect1_dropShadow" result="shape"/>
</filter>
<filter id="filter7_dd" x="500" y="-3" width="242" height="100" filterUnits="userSpaceOnUse" color-interpolation-filters="sRGB">
<feFlood flood-opacity="0" result="BackgroundImageFix"/>
<feColorMatrix in="SourceAlpha" type="matrix" values="0 0 0 0 0 0 0 0 0 0 0 0 0 0 0 0 0 0 127 0"/>
<feOffset dy="4"/>
<feGaussianBlur stdDeviation="4"/>
<feColorMatrix type="matrix" values="0 0 0 0 0.0352941 0 0 0 0 0.117647 0 0 0 0 0.258824 0 0 0 0.25 0"/>
<feBlend mode="normal" in2="BackgroundImageFix" result="effect1_dropShadow"/>
<feColorMatrix in="SourceAlpha" type="matrix" values="0 0 0 0 0 0 0 0 0 0 0 0 0 0 0 0 0 0 127 0"/>
<feOffset/>
<feGaussianBlur stdDeviation="0.5"/>
<feColorMatrix type="matrix" values="0 0 0 0 0.0352941 0 0 0 0 0.117647 0 0 0 0 0.258824 0 0 0 0.31 0"/>
<feBlend mode="normal" in2="effect1_dropShadow" result="effect2_dropShadow"/>
<feBlend mode="normal" in="SourceGraphic" in2="effect2_dropShadow" result="shape"/>
</filter>
<filter id="filter8_d" x="506" y="127" width="234" height="92" filterUnits="userSpaceOnUse" color-interpolation-filters="sRGB">
<feFlood flood-opacity="0" result="BackgroundImageFix"/>
<feColorMatrix in="SourceAlpha" type="matrix" values="0 0 0 0 0 0 0 0 0 0 0 0 0 0 0 0 0 0 127 0"/>
<feOffset dx="2" dy="3"/>
<feGaussianBlur stdDeviation="2"/>
<feColorMatrix type="matrix" values="0 0 0 0 0 0 0 0 0 0 0 0 0 0 0 0 0 0 0.15 0"/>
<feBlend mode="normal" in2="BackgroundImageFix" result="effect1_dropShadow"/>
<feBlend mode="normal" in="SourceGraphic" in2="effect1_dropShadow" result="shape"/>
</filter>
<filter id="filter9_dd" x="500" y="124" width="242" height="100" filterUnits="userSpaceOnUse" color-interpolation-filters="sRGB">
<feFlood flood-opacity="0" result="BackgroundImageFix"/>
<feColorMatrix in="SourceAlpha" type="matrix" values="0 0 0 0 0 0 0 0 0 0 0 0 0 0 0 0 0 0 127 0"/>
<feOffset dy="4"/>
<feGaussianBlur stdDeviation="4"/>
<feColorMatrix type="matrix" values="0 0 0 0 0.0352941 0 0 0 0 0.117647 0 0 0 0 0.258824 0 0 0 0.25 0"/>
<feBlend mode="normal" in2="BackgroundImageFix" result="effect1_dropShadow"/>
<feColorMatrix in="SourceAlpha" type="matrix" values="0 0 0 0 0 0 0 0 0 0 0 0 0 0 0 0 0 0 127 0"/>
<feOffset/>
<feGaussianBlur stdDeviation="0.5"/>
<feColorMatrix type="matrix" values="0 0 0 0 0.0352941 0 0 0 0 0.117647 0 0 0 0 0.258824 0 0 0 0.31 0"/>
<feBlend mode="normal" in2="effect1_dropShadow" result="effect2_dropShadow"/>
<feBlend mode="normal" in="SourceGraphic" in2="effect2_dropShadow" result="shape"/>
</filter>
<clipPath id="clip0">
</clipPath>
<clipPath id="clip1">
</clipPath>
<clipPath id="clip2">
</clipPath>
<clipPath id="clip3">
</clipPath>
<clipPath id="clip4">
</clipPath>
</defs>
</svg>
