<svg width="380" height="32" viewBox="0 0 380 32" fill="none" xmlns="http://www.w3.org/2000/svg">
<g id="logo-gradient-white-marketplace">
<g id="Group">
<g id="Group_2">
<g id="Group_3">
<path id="Vector" d="M7.83872 11.0841C7.47796 10.6873 6.93675 10.7234 6.68422 11.1923L0.839888 22.9171C0.623431 23.3861 0.948099 23.9273 1.45317 23.9273H9.60642C9.85896 23.9273 10.1115 23.7829 10.2197 23.5304C12.0235 19.8867 10.9413 14.367 7.83872 11.0841Z" fill="url(#paint0_linear)"/>
<path id="Vector_2" d="M12.1324 0.405337C8.84946 5.60031 9.06592 11.3364 11.2305 15.6655C13.3951 19.9946 15.0545 23.2776 15.1628 23.5301C15.271 23.7827 15.5236 23.927 15.7761 23.927H23.9293C24.4344 23.927 24.7951 23.3858 24.5426 22.9169C24.5426 22.9169 13.5754 0.982504 13.2868 0.441361C13.1064 -0.0637063 12.4571 -0.0997297 12.1324 0.405337Z" fill="white"/>
</g>
</g>
<g id="Group_4">
<g id="Group_5">
<g id="Group_6">
<path id="Vector_3" d="M122.92 18.1189C122.92 14.6917 121.08 13.0683 115.957 11.9499C113.107 11.3366 112.422 10.6873 112.422 9.78535C112.422 8.66699 113.432 8.16193 115.308 8.16193C117.581 8.16193 119.817 8.84732 121.946 9.82138V5.31185C120.467 4.55425 118.158 3.97705 115.452 3.97705C110.365 3.97705 107.732 6.17768 107.732 9.82138C107.732 12.7075 109.067 15.0163 114.334 16.0265C117.472 16.6758 118.122 17.1809 118.122 18.2272C118.122 19.2373 117.472 19.8867 115.236 19.8867C112.674 19.8867 109.608 19.0208 107.624 17.8303V22.5563C109.211 23.35 111.303 24.2158 115.2 24.2158C120.755 24.2158 122.92 21.7626 122.92 18.1189Z" fill="white"/>
<path id="Vector_4" d="M178.441 4.26562V23.9272H182.626V8.95553L184.394 12.9239L190.311 23.9272H195.578V4.26562H191.393V16.9644L189.805 13.2847L185.043 4.26562H178.441Z" fill="white"/>
<path id="Vector_5" d="M151.817 4.26562H147.235V23.891H151.817V4.26562Z" fill="white"/>
<path id="Vector_6" d="M141.967 18.1189C141.967 14.6917 140.128 13.0683 135.005 11.9499C132.155 11.3366 131.469 10.6873 131.469 9.78535C131.469 8.66699 132.479 8.16193 134.355 8.16193C136.628 8.16193 138.865 8.84732 140.993 9.82138V5.31185C139.514 4.55425 137.205 3.97705 134.5 3.97705C129.413 3.97705 126.779 6.17768 126.779 9.82138C126.779 12.7075 128.114 15.0163 133.381 16.0265C136.52 16.6758 137.169 17.1809 137.169 18.2272C137.169 19.2373 136.52 19.8867 134.283 19.8867C131.722 19.8867 128.655 19.0208 126.671 17.8303V22.5563C128.259 23.35 130.351 24.2158 134.247 24.2158C139.803 24.2158 141.967 21.7626 141.967 18.1189Z" fill="white"/>
<path id="Vector_7" d="M72.2339 4.26562V23.9272H81.6497L83.1289 19.6701H76.8516V4.26562H72.2339Z" fill="white"/>
<path id="Vector_8" d="M53.6895 4.26624V8.52324H58.7763V23.9278H63.358V8.52324H68.8055V4.26624H53.6895Z" fill="white"/>
</g>
</g>
<path id="Vector_9" d="M47.0166 4.26733H40.9919L34.1375 23.8928H39.3685L40.3425 20.5738C41.497 20.8984 42.7236 21.1149 44.0223 21.1149C45.285 21.1149 46.5116 20.9345 47.7021 20.5738L48.6762 23.8928H53.9072L47.0166 4.26733ZM43.9863 17.0744C43.1204 17.0744 42.2546 16.9301 41.4609 16.7136L43.9863 8.12747L46.5116 16.7136C45.7179 16.9301 44.8521 17.0744 43.9863 17.0744Z" fill="white"/>
<path id="Vector_10" d="M97.8481 4.26562H91.8233L84.9688 23.891H90.1999L91.174 20.5721C92.3284 20.8967 93.555 21.1132 94.8537 21.1132C96.1525 21.1132 97.343 20.9328 98.5335 20.5721L99.5075 23.891H104.739L97.8481 4.26562ZM94.8537 17.0727C93.9879 17.0727 93.1221 16.9284 92.3284 16.7119L94.8537 8.12576L97.3791 16.7119C96.5493 16.9284 95.7196 17.0727 94.8537 17.0727Z" fill="white"/>
<path id="Vector_11" d="M168.304 4.26562H162.279L155.425 23.891H160.656L161.63 20.5721C162.784 20.8967 164.011 21.1132 165.31 21.1132C166.609 21.1132 167.799 20.9328 168.99 20.5721L169.964 23.891H175.195L168.304 4.26562ZM165.274 17.0727C164.408 17.0727 163.542 16.9284 162.748 16.7119L165.274 8.12576L167.799 16.7119C167.005 16.9284 166.176 17.0727 165.274 17.0727Z" fill="white"/>
</g>
</g>
<g id="Group_7">
<path id="Vector_12" d="M210.912 4.55431V23.9272H208.026V2.82263H213.041L217.839 14.9442L219.787 20.7525L221.735 14.9442L226.569 2.82263H231.223V23.9272H228.337V4.77071L225.848 12.3828L221.194 23.9272H218.416L213.834 12.3828L210.912 4.55431Z" fill="white"/>
<path id="Vector_13" d="M246.735 21.005C245.725 23.1335 243.777 24.2159 241.324 24.2159C237.067 24.2159 234.902 20.5721 234.902 15.8822C234.902 11.3366 237.139 7.54858 241.648 7.54858C243.993 7.54858 245.797 8.59486 246.771 10.6873V7.87332H249.549V23.9272H246.771V21.005H246.735ZM242.045 21.6544C244.534 21.6544 246.735 20.0671 246.735 16.5316V15.2328C246.735 11.6613 244.715 10.11 242.37 10.11C239.267 10.11 237.644 12.1664 237.644 15.8822C237.644 19.7424 239.195 21.6544 242.045 21.6544Z" fill="white"/>
<path id="Vector_14" d="M256.367 23.9272H253.661V7.87332H256.367V10.6873C257.305 8.77524 258.893 7.44042 262.067 7.6208V10.3265C258.532 9.96575 256.367 11.048 256.367 14.4392V23.9272Z" fill="white"/>
<path id="Vector_15" d="M264.413 23.9271V1.16296H267.191V15.377L274.081 7.87317H277.689L270.149 15.7738L278.014 23.9271H274.262L267.191 16.4232V23.9271H264.413Z" fill="white"/>
<path id="Vector_16" d="M287.177 24.2158C281.188 24.2158 278.555 20.7524 278.555 15.846C278.555 11.0118 281.26 7.51245 286.131 7.51245C291.073 7.51245 293.057 10.9396 293.057 15.846V17.1087H281.333C281.729 19.8505 283.497 21.6182 287.285 21.6182C289.161 21.6182 290.712 21.2575 292.155 20.7524V23.2777C290.821 23.9632 288.8 24.2158 287.177 24.2158ZM281.297 14.7277H290.243C290.099 11.7334 288.728 10.0378 285.986 10.0378C283.064 10.0378 281.585 11.9498 281.297 14.7277Z" fill="white"/>
<path id="Vector_17" d="M302.69 21.2935C303.339 21.2935 303.953 21.1492 304.422 21.077V23.7467C303.953 23.891 303.411 23.9992 302.546 23.9992C299.118 23.9992 297.423 21.979 297.423 18.9847V10.3985H294.825V7.83705H297.423V4.44592H300.129V7.83705H304.386V10.3985H300.129V18.9124C300.129 20.3555 300.958 21.2935 302.69 21.2935Z" fill="white"/>
<path id="Vector_18" d="M310.699 21.0771V30.1683H307.921V7.8371H310.699V10.7232C311.709 8.5947 313.658 7.51245 316.111 7.51245C320.368 7.51245 322.532 11.1561 322.532 15.846C322.532 20.3916 320.296 24.1796 315.786 24.1796C313.477 24.2157 311.673 23.1695 310.699 21.0771ZM315.389 10.1099C312.9 10.1099 310.699 11.6973 310.699 15.2327V16.5315C310.699 20.103 312.72 21.6543 315.064 21.6543C318.167 21.6543 319.791 19.598 319.791 15.8821C319.791 12.022 318.239 10.1099 315.389 10.1099Z" fill="white"/>
<path id="Vector_19" d="M330.072 23.9992C327.438 23.9992 325.779 22.7366 325.779 19.7783V1.12695H328.557V19.4536C328.557 20.8966 329.531 21.4018 330.721 21.4018C331.01 21.4018 331.19 21.4017 331.515 21.3657V23.855C331.263 23.9271 330.757 23.9992 330.072 23.9992Z" fill="white"/>
<path id="Vector_20" d="M344.863 21.005C343.853 23.1335 341.905 24.2159 339.452 24.2159C335.195 24.2159 333.03 20.5721 333.03 15.8822C333.03 11.3366 335.267 7.54858 339.777 7.54858C342.121 7.54858 343.925 8.59486 344.899 10.6873V7.87332H347.677V23.9272H344.899V21.005H344.863ZM340.173 21.6544C342.662 21.6544 344.863 20.0671 344.863 16.5316V15.2328C344.863 11.6613 342.843 10.11 340.498 10.11C337.396 10.11 335.772 12.1664 335.772 15.8822C335.772 19.7424 337.323 21.6544 340.173 21.6544Z" fill="white"/>
<path id="Vector_21" d="M363.155 23.4942C362.181 23.9993 360.701 24.2158 359.222 24.2158C353.522 24.2158 350.853 20.7524 350.853 15.846C350.853 11.0118 353.522 7.51245 359.222 7.51245C360.665 7.51245 361.784 7.69278 363.046 8.27V10.8314C362.036 10.3625 360.918 10.0738 359.403 10.0738C355.218 10.0738 353.522 12.7074 353.522 15.81C353.522 18.9125 355.254 21.5461 359.475 21.5461C361.098 21.5461 362.144 21.3297 363.118 20.9689V23.4942H363.155Z" fill="white"/>
<path id="Vector_22" d="M373.977 24.2158C367.989 24.2158 365.355 20.7524 365.355 15.846C365.355 11.0118 368.061 7.51245 372.931 7.51245C377.873 7.51245 379.858 10.9396 379.858 15.846V17.1087H368.133C368.53 19.8505 370.297 21.6182 374.085 21.6182C375.961 21.6182 377.513 21.2575 378.956 20.7524V23.2777C377.621 23.9632 375.601 24.2158 373.977 24.2158ZM368.097 14.7277H377.044C376.899 11.7334 375.529 10.0378 372.787 10.0378C369.865 10.0378 368.385 11.9498 368.097 14.7277Z" fill="white"/>
</g>
</g>
<defs>
<linearGradient id="paint0_linear" x1="11.0624" y1="12.8736" x2="4.88215" y2="23.5782" gradientUnits="userSpaceOnUse">
<stop stop-color="white" stop-opacity="0.4"/>
<stop offset="0.9228" stop-color="white"/>
</linearGradient>
</defs>
</svg>
